<svg width="18" height="11" viewBox="0 0 18 11" fill="none" xmlns="http://www.w3.org/2000/svg">
<path d="M9.07129 9.14258L8.01063 10.2032C8.59642 10.789 9.54616 10.789 10.1319 10.2032L9.07129 9.14258ZM3.06088 1.01085C2.47509 0.425064 1.52535 0.425064 0.939561 1.01085C0.353775 1.59664 0.353775 2.54638 0.939561 3.13217L3.06088 1.01085ZM17.203 3.13217C17.7888 2.54638 17.7888 1.59664 17.203 1.01085C16.6172 0.425064 15.6675 0.425064 15.0817 1.01085L17.203 3.13217ZM10.1319 8.08192L3.06088 1.01085L0.939561 3.13217L8.01063 10.2032L10.1319 8.08192ZM15.0817 1.01085L8.01063 8.08192L10.1319 10.2032L17.203 3.13217L15.0817 1.01085Z" fill="#4285F4"/>
</svg>
