<svg width="14" height="14" viewBox="0 0 14 14" fill="none" xmlns="http://www.w3.org/2000/svg">
<path d="M0.309483 1.62049C0.750624 0.738213 1.26529 0.297073 1.70643 0.0765025C2.14757 -0.0705444 2.58871 0.00297905 3.02985 0.223549C3.91213 0.66469 4.79441 1.84106 5.16203 2.94392C5.3826 3.5321 5.3826 3.8262 5.30908 4.12029C5.23555 4.34086 5.08851 4.56143 4.72089 4.782C4.20622 5.22314 4.27975 5.95838 4.50032 6.47304C4.72089 7.06123 5.23555 7.64942 5.75022 8.16408C6.26488 8.67874 6.92659 9.11988 7.44126 9.41398C8.02944 9.63455 8.69115 9.70807 9.13229 9.19341C9.35286 8.89931 9.57343 8.67874 9.79401 8.60522C10.0146 8.5317 10.3822 8.5317 10.8969 8.75227C11.9997 9.11988 13.1761 10.0022 13.6907 10.958C13.9113 11.3991 13.9848 11.8403 13.7643 12.2814C13.6172 12.7225 13.1026 13.2372 12.2203 13.7519C11.338 14.193 10.0146 14.046 8.54411 13.3107C7.07364 12.5755 5.45612 11.3256 3.98565 9.92864C2.58871 8.5317 1.33881 6.84066 0.603577 5.37019C-0.0581336 3.8262 -0.20518 2.50278 0.309483 1.62049Z" fill="#FFD919"/>
</svg>
