<svg width="11" height="14" viewBox="0 0 11 14" fill="none" xmlns="http://www.w3.org/2000/svg">
<path d="M0 7.02996V11.0826C0 12.6939 1.31892 14 2.94602 14H7.94287C9.56997 14 10.8889 12.6939 10.8889 11.0826V7.02996C10.8889 6.22524 10.2285 5.57129 9.41588 5.57129H1.47301C0.658543 5.57129 0 6.22524 0 7.02996Z" fill="#FFD919"/>
<path d="M5.44447 0C3.36245 0 1.66748 1.67847 1.66748 3.74024V5.00817H3.58441V3.74024C3.58441 2.7248 4.41905 1.90009 5.44264 1.90009C6.46805 1.90009 7.3027 2.72661 7.3027 3.74024V5.00817H9.21963V3.74024C9.21963 1.67847 7.52649 0 5.44447 0Z" fill="#FFD919"/>
</svg>


