<svg width="48" height="48" viewBox="0 0 48 48" fill="none" xmlns="http://www.w3.org/2000/svg">
<path d="M24 0H5C2.23858 0 0 2.23858 0 5V24H24V0Z" fill="url(#paint0_linear)"/>
<path d="M24 24H0V43C0 45.7614 2.23858 48 5 48H24V24Z" fill="url(#paint1_linear)"/>
<path d="M48 24H24V48H43C45.7614 48 48 45.7614 48 43V24Z" fill="url(#paint2_linear)"/>
<path d="M43 0H24V24H48V5C48 2.23858 45.7614 0 43 0Z" fill="url(#paint3_linear)"/>
<path d="M11.8052 17.3842V7.00586" stroke="#4285F4" stroke-width="2" stroke-miterlimit="10" stroke-linecap="round" stroke-linejoin="round"/>
<path d="M6.61621 12.1953H16.9946" stroke="#4285F4" stroke-width="2" stroke-miterlimit="10" stroke-linecap="round" stroke-linejoin="round"/>
<path d="M8.17285 39.6973L15.4377 32.3027" stroke="white" stroke-width="2" stroke-miterlimit="10" stroke-linecap="round" stroke-linejoin="round"/>
<path d="M8.17285 32.3027L15.4377 39.6973" stroke="white" stroke-width="2" stroke-miterlimit="10" stroke-linecap="round" stroke-linejoin="round"/>
<path d="M30.7461 12.1943H41.1245" stroke="white" stroke-width="2" stroke-miterlimit="10" stroke-linecap="round" stroke-linejoin="round"/>
<path d="M30.7461 33.4707H41.1245" stroke="#4285F4" stroke-width="2" stroke-miterlimit="10" stroke-linecap="round" stroke-linejoin="round"/>
<path d="M30.7461 38.5303H41.1245" stroke="#4285F4" stroke-width="2" stroke-miterlimit="10" stroke-linecap="round" stroke-linejoin="round"/>
<defs>
<linearGradient id="paint0_linear" x1="12" y1="0" x2="12" y2="24" gradientUnits="userSpaceOnUse">
<stop stop-color="#FFE323"/>
<stop offset="1" stop-color="#FFD919"/>
</linearGradient>
<linearGradient id="paint1_linear" x1="12" y1="24" x2="12" y2="48" gradientUnits="userSpaceOnUse">
<stop stop-color="#90C2FF"/>
<stop offset="1" stop-color="#6AADFF"/>
</linearGradient>
<linearGradient id="paint2_linear" x1="36" y1="24" x2="36" y2="48" gradientUnits="userSpaceOnUse">
<stop stop-color="#DCEDFF"/>
<stop offset="1" stop-color="#B6D8FF"/>
</linearGradient>
<linearGradient id="paint3_linear" x1="36" y1="0" x2="36" y2="24" gradientUnits="userSpaceOnUse">
<stop stop-color="#4F92F8"/>
<stop offset="1" stop-color="#2E76E3"/>
</linearGradient>
</defs>
</svg>
