<svg width="90" height="32" viewBox="0 0 90 32" fill="none" xmlns="http://www.w3.org/2000/svg">
<g filter="url(#filter0_i)">
<path d="M16.1 7.40039L64.2 11.2004C79.5 12.8004 82.1 14.2004 84.5 15.7004C88.1 17.8004 89.1 22.0004 89.3 24.8004C89.4 25.6004 89.4 26.2004 89.4 26.8004C89.4 27.2004 89.4 27.4004 89.4 27.4004H81.4L11.1 27.0004H9.7C1.7 26.0004 0.2 20.5004 0 15.2004C0 13.2004 1.3 11.4004 3.2 10.9004L16.1 7.40039Z" fill="url(#paint0_linear)"/>
</g>
<path d="M40.8001 0C26.5001 0 16.1001 7.4 16.1001 7.4L43.0001 9.6L41.6001 0C41.3001 0 41.1001 0 40.8001 0Z" fill="url(#paint1_linear)"/>
<path d="M43.0001 9.59961L64.2001 11.2996C64.2001 11.2996 55.0001 0.399609 41.6001 0.0996094L43.0001 9.59961Z" fill="url(#paint2_linear)"/>
<g filter="url(#filter1_i)">
<path d="M17.7876 17.5195C13.8546 17.5195 10.5474 20.8268 10.5474 24.7598C10.5474 28.6927 13.8546 32 17.7876 32C21.7205 32 25.0278 28.6927 25.0278 24.7598C25.0278 20.7374 21.7205 17.5195 17.7876 17.5195Z" fill="url(#paint3_linear)"/>
</g>
<g filter="url(#filter2_i)">
<path d="M74.7261 17.5195C70.7931 17.5195 67.4858 20.8268 67.4858 24.7598C67.4858 28.6927 70.7931 32 74.7261 32C78.659 32 81.9663 28.6927 81.9663 24.7598C81.9663 20.7374 78.7484 17.5195 74.7261 17.5195Z" fill="url(#paint4_linear)"/>
</g>
<defs>
<filter id="filter0_i" x="-2" y="4.40039" width="91.4" height="23" filterUnits="userSpaceOnUse" color-interpolation-filters="sRGB">
<feFlood flood-opacity="0" result="BackgroundImageFix"/>
<feBlend mode="normal" in="SourceGraphic" in2="BackgroundImageFix" result="shape"/>
<feColorMatrix in="SourceAlpha" type="matrix" values="0 0 0 0 0 0 0 0 0 0 0 0 0 0 0 0 0 0 127 0" result="hardAlpha"/>
<feOffset dx="-2" dy="-3"/>
<feGaussianBlur stdDeviation="2.5"/>
<feComposite in2="hardAlpha" operator="arithmetic" k2="-1" k3="1"/>
<feColorMatrix type="matrix" values="0 0 0 0 0.0980392 0 0 0 0 0.403922 0 0 0 0 0.823529 0 0 0 0.15 0"/>
<feBlend mode="normal" in2="shape" result="effect1_innerShadow"/>
</filter>
<filter id="filter1_i" x="8.54736" y="14.5195" width="16.4804" height="17.4804" filterUnits="userSpaceOnUse" color-interpolation-filters="sRGB">
<feFlood flood-opacity="0" result="BackgroundImageFix"/>
<feBlend mode="normal" in="SourceGraphic" in2="BackgroundImageFix" result="shape"/>
<feColorMatrix in="SourceAlpha" type="matrix" values="0 0 0 0 0 0 0 0 0 0 0 0 0 0 0 0 0 0 127 0" result="hardAlpha"/>
<feOffset dx="-2" dy="-3"/>
<feGaussianBlur stdDeviation="2.5"/>
<feComposite in2="hardAlpha" operator="arithmetic" k2="-1" k3="1"/>
<feColorMatrix type="matrix" values="0 0 0 0 0.776471 0 0 0 0 0.396078 0 0 0 0 0.054902 0 0 0 0.15 0"/>
<feBlend mode="normal" in2="shape" result="effect1_innerShadow"/>
</filter>
<filter id="filter2_i" x="65.4858" y="14.5195" width="16.4804" height="17.4804" filterUnits="userSpaceOnUse" color-interpolation-filters="sRGB">
<feFlood flood-opacity="0" result="BackgroundImageFix"/>
<feBlend mode="normal" in="SourceGraphic" in2="BackgroundImageFix" result="shape"/>
<feColorMatrix in="SourceAlpha" type="matrix" values="0 0 0 0 0 0 0 0 0 0 0 0 0 0 0 0 0 0 127 0" result="hardAlpha"/>
<feOffset dx="-2" dy="-3"/>
<feGaussianBlur stdDeviation="2.5"/>
<feComposite in2="hardAlpha" operator="arithmetic" k2="-1" k3="1"/>
<feColorMatrix type="matrix" values="0 0 0 0 0.776471 0 0 0 0 0.396078 0 0 0 0 0.054902 0 0 0 0.15 0"/>
<feBlend mode="normal" in2="shape" result="effect1_innerShadow"/>
</filter>
<linearGradient id="paint0_linear" x1="44.7" y1="7.40039" x2="44.7" y2="27.4004" gradientUnits="userSpaceOnUse">
<stop stop-color="#DCEDFF"/>
<stop offset="1" stop-color="#B6D8FF"/>
</linearGradient>
<linearGradient id="paint1_linear" x1="29.5501" y1="0" x2="29.5501" y2="9.6" gradientUnits="userSpaceOnUse">
<stop stop-color="#90C2FF"/>
<stop offset="1" stop-color="#6AADFF"/>
</linearGradient>
<linearGradient id="paint2_linear" x1="52.9001" y1="0.0996094" x2="52.9001" y2="11.2996" gradientUnits="userSpaceOnUse">
<stop stop-color="#4F92F8"/>
<stop offset="1" stop-color="#2E76E3"/>
</linearGradient>
<linearGradient id="paint3_linear" x1="17.7876" y1="17.5195" x2="17.7876" y2="32" gradientUnits="userSpaceOnUse">
<stop stop-color="#FFE323"/>
<stop offset="1" stop-color="#FFD919"/>
</linearGradient>
<linearGradient id="paint4_linear" x1="74.7261" y1="17.5195" x2="74.7261" y2="32" gradientUnits="userSpaceOnUse">
<stop stop-color="#FFE323"/>
<stop offset="1" stop-color="#FFD919"/>
</linearGradient>
</defs>
</svg>
