<svg width="31" height="38" viewBox="0 0 31 38" fill="none" xmlns="http://www.w3.org/2000/svg">
<path fill-rule="evenodd" clip-rule="evenodd" d="M25.4929 30.2205H22.3417L23.5517 32.8917H7.2761L8.4942 30.2205H5.33556L0 38H5.10878L6.21386 35.5813H24.6139L25.7101 38H30.8189L25.4929 30.2205Z" fill="url(#paint0_linear)"/>
<g filter="url(#filter0_i)">
<path fill-rule="evenodd" clip-rule="evenodd" d="M25.8921 30.2258C28.1976 30.051 29.4861 28.6479 29.556 25.7733L29.5739 6.96171C26.8652 -2.32057 4.61804 -2.32057 1.90039 6.96171L1.92717 25.7733C1.9971 28.6479 3.28563 30.051 5.59113 30.2258H25.8921Z" fill="url(#paint1_linear)"/>
</g>
<path fill-rule="evenodd" clip-rule="evenodd" d="M11.9903 2.66687H19.4759C19.932 2.66687 20.3002 3.03513 20.3002 3.49117C20.3002 3.95539 19.9409 4.32365 19.4759 4.32365H11.9903C11.5343 4.32365 11.166 3.95539 11.166 3.49935C11.1668 3.03513 11.5261 2.66687 11.9903 2.66687Z" fill="url(#paint2_linear)"/>
<g filter="url(#filter1_i)">
<path fill-rule="evenodd" clip-rule="evenodd" d="M6.76366 8.25916H24.6981C25.5484 8.25916 26.241 8.95177 26.241 9.80211V20.4875C26.241 21.3378 25.5484 22.0304 24.6981 22.0304H6.76366C5.91332 22.0304 5.2207 21.3378 5.2207 20.4875V9.80211C5.22145 8.95177 5.91407 8.25916 6.76366 8.25916Z" fill="url(#paint3_linear)"/>
</g>
<g filter="url(#filter2_i)">
<path d="M25.7949 28.1316C26.8455 28.1316 27.6971 27.2799 27.6971 26.2293C27.6971 25.1787 26.8455 24.327 25.7949 24.327C24.7443 24.327 23.8926 25.1787 23.8926 26.2293C23.8926 27.2799 24.7443 28.1316 25.7949 28.1316Z" fill="url(#paint4_linear)"/>
</g>
<g filter="url(#filter3_i)">
<path fill-rule="evenodd" clip-rule="evenodd" d="M5.58197 24.327C6.63392 24.327 7.48425 25.1774 7.48425 26.2293C7.48425 27.2813 6.63392 28.1316 5.58197 28.1316C4.53077 28.1316 3.67969 27.2813 3.67969 26.2293C3.67969 25.1774 4.53002 24.327 5.58197 24.327Z" fill="url(#paint5_linear)"/>
</g>
<defs>
<filter id="filter0_i" x="-0.0996094" y="-3" width="29.6735" height="33.2258" filterUnits="userSpaceOnUse" color-interpolation-filters="sRGB">
<feFlood flood-opacity="0" result="BackgroundImageFix"/>
<feBlend mode="normal" in="SourceGraphic" in2="BackgroundImageFix" result="shape"/>
<feColorMatrix in="SourceAlpha" type="matrix" values="0 0 0 0 0 0 0 0 0 0 0 0 0 0 0 0 0 0 127 0" result="hardAlpha"/>
<feOffset dx="-2" dy="-3"/>
<feGaussianBlur stdDeviation="2.5"/>
<feComposite in2="hardAlpha" operator="arithmetic" k2="-1" k3="1"/>
<feColorMatrix type="matrix" values="0 0 0 0 0.0980392 0 0 0 0 0.403922 0 0 0 0 0.823529 0 0 0 0.15 0"/>
<feBlend mode="normal" in2="shape" result="effect1_innerShadow"/>
</filter>
<filter id="filter1_i" x="5.2207" y="8.25916" width="23.0203" height="14.7713" filterUnits="userSpaceOnUse" color-interpolation-filters="sRGB">
<feFlood flood-opacity="0" result="BackgroundImageFix"/>
<feBlend mode="normal" in="SourceGraphic" in2="BackgroundImageFix" result="shape"/>
<feColorMatrix in="SourceAlpha" type="matrix" values="0 0 0 0 0 0 0 0 0 0 0 0 0 0 0 0 0 0 127 0" result="hardAlpha"/>
<feOffset dx="2" dy="1"/>
<feGaussianBlur stdDeviation="1.5"/>
<feComposite in2="hardAlpha" operator="arithmetic" k2="-1" k3="1"/>
<feColorMatrix type="matrix" values="0 0 0 0 1 0 0 0 0 1 0 0 0 0 1 0 0 0 0.35 0"/>
<feBlend mode="normal" in2="shape" result="effect1_innerShadow"/>
</filter>
<filter id="filter2_i" x="21.8926" y="21.327" width="5.80457" height="6.80457" filterUnits="userSpaceOnUse" color-interpolation-filters="sRGB">
<feFlood flood-opacity="0" result="BackgroundImageFix"/>
<feBlend mode="normal" in="SourceGraphic" in2="BackgroundImageFix" result="shape"/>
<feColorMatrix in="SourceAlpha" type="matrix" values="0 0 0 0 0 0 0 0 0 0 0 0 0 0 0 0 0 0 127 0" result="hardAlpha"/>
<feOffset dx="-2" dy="-3"/>
<feGaussianBlur stdDeviation="2.5"/>
<feComposite in2="hardAlpha" operator="arithmetic" k2="-1" k3="1"/>
<feColorMatrix type="matrix" values="0 0 0 0 0.776471 0 0 0 0 0.396078 0 0 0 0 0.054902 0 0 0 0.15 0"/>
<feBlend mode="normal" in2="shape" result="effect1_innerShadow"/>
</filter>
<filter id="filter3_i" x="1.67969" y="21.327" width="5.80457" height="6.80457" filterUnits="userSpaceOnUse" color-interpolation-filters="sRGB">
<feFlood flood-opacity="0" result="BackgroundImageFix"/>
<feBlend mode="normal" in="SourceGraphic" in2="BackgroundImageFix" result="shape"/>
<feColorMatrix in="SourceAlpha" type="matrix" values="0 0 0 0 0 0 0 0 0 0 0 0 0 0 0 0 0 0 127 0" result="hardAlpha"/>
<feOffset dx="-2" dy="-3"/>
<feGaussianBlur stdDeviation="2.5"/>
<feComposite in2="hardAlpha" operator="arithmetic" k2="-1" k3="1"/>
<feColorMatrix type="matrix" values="0 0 0 0 0.776471 0 0 0 0 0.396078 0 0 0 0 0.054902 0 0 0 0.15 0"/>
<feBlend mode="normal" in2="shape" result="effect1_innerShadow"/>
</filter>
<linearGradient id="paint0_linear" x1="15.4094" y1="30.2205" x2="15.4094" y2="38" gradientUnits="userSpaceOnUse">
<stop stop-color="#4F92F8"/>
<stop offset="1" stop-color="#2E76E3"/>
</linearGradient>
<linearGradient id="paint1_linear" x1="15.7371" y1="0" x2="15.7371" y2="30.2258" gradientUnits="userSpaceOnUse">
<stop stop-color="#90C2FF"/>
<stop offset="1" stop-color="#6AADFF"/>
</linearGradient>
<linearGradient id="paint2_linear" x1="15.7331" y1="2.66687" x2="15.7331" y2="4.32365" gradientUnits="userSpaceOnUse">
<stop stop-color="#DCEDFF"/>
<stop offset="1" stop-color="#B6D8FF"/>
</linearGradient>
<linearGradient id="paint3_linear" x1="15.7309" y1="8.25916" x2="15.7309" y2="22.0304" gradientUnits="userSpaceOnUse">
<stop stop-color="#DCEDFF"/>
<stop offset="1" stop-color="#B6D8FF"/>
</linearGradient>
<linearGradient id="paint4_linear" x1="25.7949" y1="24.327" x2="25.7949" y2="28.1316" gradientUnits="userSpaceOnUse">
<stop stop-color="#FFE323"/>
<stop offset="1" stop-color="#FFD919"/>
</linearGradient>
<linearGradient id="paint5_linear" x1="5.58197" y1="24.327" x2="5.58197" y2="28.1316" gradientUnits="userSpaceOnUse">
<stop stop-color="#FFE323"/>
<stop offset="1" stop-color="#FFD919"/>
</linearGradient>
</defs>
</svg>
