<svg width="43" height="57" viewBox="0 0 43 57" fill="none" xmlns="http://www.w3.org/2000/svg">
<g filter="url(#filter0_i)">
<path d="M12 19.3828C12 15.2437 15.4087 11.835 19.5478 11.835H35.3739C39.513 11.835 42.9217 15.2437 42.9217 19.3828V41.5393C42.9217 50.0611 35.9826 57.0002 27.4608 57.0002C18.9391 57.0002 12 50.0611 12 41.5393V19.3828Z" fill="url(#paint0_linear)"/>
</g>
<path d="M42.8784 26.8089H27.4175V11.835H35.574C39.5914 11.835 42.8784 15.1219 42.8784 19.1393V26.8089Z" fill="url(#paint1_linear)"/>
<path d="M12.0001 26.8089H27.4609V11.835H19.3044C15.287 11.835 12.0001 15.1219 12.0001 19.1393V26.8089Z" fill="url(#paint2_linear)"/>
<path d="M14.2695 7.69565V1" stroke="url(#paint3_linear)" stroke-width="2" stroke-linecap="round" stroke-linejoin="round"/>
<path d="M7.69565 15.2432H1" stroke="url(#paint4_linear)" stroke-width="2" stroke-linecap="round" stroke-linejoin="round"/>
<path d="M9.27809 10.4952L4.53027 5.86914" stroke="url(#paint5_linear)" stroke-width="2" stroke-linecap="round" stroke-linejoin="round"/>
<defs>
<filter id="filter0_i" x="10" y="8.83496" width="32.9217" height="48.1652" filterUnits="userSpaceOnUse" color-interpolation-filters="sRGB">
<feFlood flood-opacity="0" result="BackgroundImageFix"/>
<feBlend mode="normal" in="SourceGraphic" in2="BackgroundImageFix" result="shape"/>
<feColorMatrix in="SourceAlpha" type="matrix" values="0 0 0 0 0 0 0 0 0 0 0 0 0 0 0 0 0 0 127 0" result="hardAlpha"/>
<feOffset dx="-2" dy="-3"/>
<feGaussianBlur stdDeviation="2.5"/>
<feComposite in2="hardAlpha" operator="arithmetic" k2="-1" k3="1"/>
<feColorMatrix type="matrix" values="0 0 0 0 0 0 0 0 0 0.231373 0 0 0 0 1 0 0 0 0.15 0"/>
<feBlend mode="normal" in2="shape" result="effect1_innerShadow"/>
</filter>
<linearGradient id="paint0_linear" x1="27.4609" y1="11.835" x2="27.4609" y2="57.0002" gradientUnits="userSpaceOnUse">
<stop stop-color="#DCEDFF"/>
<stop offset="1" stop-color="#B6D8FF"/>
</linearGradient>
<linearGradient id="paint1_linear" x1="35.1479" y1="11.835" x2="35.1479" y2="26.8089" gradientUnits="userSpaceOnUse">
<stop stop-color="#4F92F8"/>
<stop offset="1" stop-color="#2E76E3"/>
</linearGradient>
<linearGradient id="paint2_linear" x1="19.7305" y1="11.835" x2="19.7305" y2="26.8089" gradientUnits="userSpaceOnUse">
<stop stop-color="#FFE323"/>
<stop offset="1" stop-color="#FFD919"/>
</linearGradient>
<linearGradient id="paint3_linear" x1="14.7695" y1="1" x2="14.7695" y2="7.69565" gradientUnits="userSpaceOnUse">
<stop stop-color="#90C2FF"/>
<stop offset="1" stop-color="#6AADFF"/>
</linearGradient>
<linearGradient id="paint4_linear" x1="0.5" y1="14.9997" x2="8" y2="14.9997" gradientUnits="userSpaceOnUse">
<stop stop-color="#A8C7FF"/>
<stop offset="1" stop-color="#7695FF"/>
</linearGradient>
<linearGradient id="paint5_linear" x1="3.99985" y1="5.49959" x2="9.99985" y2="10.9996" gradientUnits="userSpaceOnUse">
<stop stop-color="#A8C7FF"/>
<stop offset="1" stop-color="#7695FF"/>
</linearGradient>
</defs>
</svg>
