<svg width="28" height="72" viewBox="0 0 28 72" fill="none" xmlns="http://www.w3.org/2000/svg">
<g filter="url(#filter0_i)">
<path d="M16.8889 20.6064H10.3434C4.68687 20.6064 0.0808081 25.2125 0 30.8691V40.6469C0 43.2327 1.61616 45.4145 4.0404 46.2226L5.25253 46.6266L6.54545 69.1721C6.62626 70.7883 7.91919 72.0004 9.53535 72.0004H17.5354C19.1515 72.0004 20.4444 70.7883 20.5253 69.1721L21.8182 46.6266L23.0303 46.2226C25.4545 45.3337 27.0707 43.1519 27.0707 40.6469V30.7883C27.1515 25.1317 22.5455 20.6064 16.8889 20.6064Z" fill="url(#paint0_linear)"/>
</g>
<path d="M13.6565 17.7778C18.5657 17.7778 22.5454 13.7981 22.5454 8.88889C22.5454 3.97969 18.5657 0 13.6565 0C8.74727 0 4.76758 3.97969 4.76758 8.88889C4.76758 13.7981 8.74727 17.7778 13.6565 17.7778Z" fill="url(#paint1_linear)"/>
<path d="M2 25L8 32" stroke="url(#paint2_linear)" stroke-width="2" stroke-miterlimit="10" stroke-linecap="round" stroke-linejoin="round"/>
<path d="M26 25L20 32" stroke="url(#paint3_linear)" stroke-width="2" stroke-miterlimit="10" stroke-linecap="round" stroke-linejoin="round"/>
<path d="M13.8183 37.495C14.7109 37.495 15.4345 36.7714 15.4345 35.8789C15.4345 34.9863 14.7109 34.2627 13.8183 34.2627C12.9257 34.2627 12.2021 34.9863 12.2021 35.8789C12.2021 36.7714 12.9257 37.495 13.8183 37.495Z" fill="url(#paint4_linear)"/>
<g filter="url(#filter1_i)">
<path d="M9.46485 31.0303C7.80799 31.0303 6.46484 32.3734 6.46484 34.0303V37.6464C6.46484 39.3033 7.80799 40.6464 9.46484 40.6464H18.0103C19.6671 40.6464 21.0103 39.3033 21.0103 37.6464V34.0303C21.0103 32.3734 19.6672 31.0303 18.0103 31.0303H9.46485ZM13.8184 37.4949C12.9295 37.4949 12.2022 36.7676 12.2022 35.8788C12.2022 34.9899 12.9295 34.2626 13.8184 34.2626C14.7073 34.2626 15.4345 34.9899 15.4345 35.8788C15.4345 36.7676 14.7073 37.4949 13.8184 37.4949Z" fill="url(#paint5_linear)"/>
</g>
<defs>
<filter id="filter0_i" x="-2" y="17.6064" width="29.0718" height="54.3939" filterUnits="userSpaceOnUse" color-interpolation-filters="sRGB">
<feFlood flood-opacity="0" result="BackgroundImageFix"/>
<feBlend mode="normal" in="SourceGraphic" in2="BackgroundImageFix" result="shape"/>
<feColorMatrix in="SourceAlpha" type="matrix" values="0 0 0 0 0 0 0 0 0 0 0 0 0 0 0 0 0 0 127 0" result="hardAlpha"/>
<feOffset dx="-2" dy="-3"/>
<feGaussianBlur stdDeviation="2.5"/>
<feComposite in2="hardAlpha" operator="arithmetic" k2="-1" k3="1"/>
<feColorMatrix type="matrix" values="0 0 0 0 0.0980392 0 0 0 0 0.403922 0 0 0 0 0.823529 0 0 0 0.15 0"/>
<feBlend mode="normal" in2="shape" result="effect1_innerShadow"/>
</filter>
<filter id="filter1_i" x="5.46484" y="29.0303" width="15.5455" height="11.6162" filterUnits="userSpaceOnUse" color-interpolation-filters="sRGB">
<feFlood flood-opacity="0" result="BackgroundImageFix"/>
<feBlend mode="normal" in="SourceGraphic" in2="BackgroundImageFix" result="shape"/>
<feColorMatrix in="SourceAlpha" type="matrix" values="0 0 0 0 0 0 0 0 0 0 0 0 0 0 0 0 0 0 127 0" result="hardAlpha"/>
<feOffset dx="-1" dy="-2"/>
<feGaussianBlur stdDeviation="1.5"/>
<feComposite in2="hardAlpha" operator="arithmetic" k2="-1" k3="1"/>
<feColorMatrix type="matrix" values="0 0 0 0 0.776471 0 0 0 0 0.396078 0 0 0 0 0.054902 0 0 0 0.15 0"/>
<feBlend mode="normal" in2="shape" result="effect1_innerShadow"/>
</filter>
<linearGradient id="paint0_linear" x1="13.5359" y1="20.6064" x2="13.5359" y2="72.0004" gradientUnits="userSpaceOnUse">
<stop stop-color="#90C2FF"/>
<stop offset="1" stop-color="#6AADFF"/>
</linearGradient>
<linearGradient id="paint1_linear" x1="13.6565" y1="0" x2="13.6565" y2="17.7778" gradientUnits="userSpaceOnUse">
<stop stop-color="#4F92F8"/>
<stop offset="1" stop-color="#2E76E3"/>
</linearGradient>
<linearGradient id="paint2_linear" x1="5" y1="25" x2="5" y2="32" gradientUnits="userSpaceOnUse">
<stop stop-color="#DCEDFF"/>
<stop offset="1" stop-color="#B6D8FF"/>
</linearGradient>
<linearGradient id="paint3_linear" x1="23" y1="25" x2="23" y2="32" gradientUnits="userSpaceOnUse">
<stop stop-color="#DCEDFF"/>
<stop offset="1" stop-color="#B6D8FF"/>
</linearGradient>
<linearGradient id="paint4_linear" x1="13.8183" y1="34.2627" x2="13.8183" y2="37.495" gradientUnits="userSpaceOnUse">
<stop stop-color="#4F92F8"/>
<stop offset="1" stop-color="#2E76E3"/>
</linearGradient>
<linearGradient id="paint5_linear" x1="13.7376" y1="31.0303" x2="13.7376" y2="40.6464" gradientUnits="userSpaceOnUse">
<stop stop-color="#FFE323"/>
<stop offset="1" stop-color="#FFD919"/>
</linearGradient>
</defs>
</svg>
