<svg width="196" height="50" viewBox="0 0 196 50" fill="none" xmlns="http://www.w3.org/2000/svg">
<path d="M170.627 50C184.434 50 195.627 38.8071 195.627 25C195.627 11.1929 184.434 0 170.627 0C156.82 0 145.627 11.1929 145.627 25C145.627 38.8071 156.82 50 170.627 50Z" fill="white"/>
<path d="M168.805 34.6213H153.28V30.6855L160.715 25.0003C161.589 24.3444 162.282 23.6519 162.828 22.9231C163.484 22.0484 163.776 21.2102 163.776 20.4449C163.776 20.1169 163.703 19.8254 163.594 19.5339C163.484 19.2423 163.302 18.9508 163.047 18.6592C162.755 18.3312 162.428 18.0761 162.063 17.9304C161.699 17.7481 161.334 17.6753 160.97 17.6753C160.059 17.6753 159.257 18.0761 158.528 18.8779C157.799 19.6796 157.435 20.5907 157.435 21.6476L153.317 20.6272C153.718 18.5499 154.519 16.9828 155.722 15.8895C157.07 14.6505 158.893 14.0674 161.225 14.0674C162.61 14.0674 163.776 14.2496 164.687 14.6505C165.707 15.0878 166.582 15.7802 167.347 16.8006C167.748 17.3837 168.076 17.9668 168.258 18.5863C168.441 19.2059 168.55 19.8254 168.55 20.4449C168.55 21.684 168.186 22.9231 167.42 24.1257C166.728 25.219 165.853 26.1301 164.76 26.8589L159.111 30.6126H168.732V34.6213H168.805Z" fill="#4285F4"/>
<path d="M188.01 34.6946H171.429V30.8681H177.478V19.4978L171.793 22.5226V18.4045C172.34 18.2587 172.777 18.113 173.142 18.0036C173.47 17.8579 173.943 17.6757 174.526 17.3841C175.474 16.9104 176.057 16.6188 176.239 16.5095C176.895 16.0722 177.733 15.3069 178.754 14.25H182.289V30.7952H188.01V34.6946Z" fill="#4285F4"/>
<path d="M25.0727 19.2784C24.5625 22.5219 23.4692 25.0364 21.7928 26.7857C19.8613 28.863 17.1281 29.8834 13.5931 29.8834C9.7301 29.8834 6.52311 28.4985 4.00853 25.7653C1.49395 23.0321 0.254883 19.4971 0.254883 15.1604C0.254883 11.0423 1.42106 7.50729 3.75343 4.59184C6.19512 1.53061 9.29279 0 13.0464 0C16.9458 0 19.8977 1.09329 21.9386 3.27988C23.7243 5.17493 24.7447 7.87172 25.0727 11.3703L18.0756 11.7347C18.0756 10.0219 17.7112 8.60058 17.0187 7.50729C16.1805 6.19534 14.9415 5.53936 13.338 5.53936C11.2972 5.53936 9.87588 6.37755 9.03768 8.05394C8.30882 9.54811 7.94439 11.9534 7.94439 15.2697C7.94439 17.9665 8.34526 20.0802 9.14701 21.6472C10.0581 23.4694 11.4794 24.3805 13.3744 24.3805C14.8321 24.3805 16.0348 23.8338 17.0187 22.777C17.9663 21.7201 18.44 20.4446 18.44 18.9504L25.0727 19.2784Z" fill="white"/>
<path d="M52.5874 29.5188H44.8614L40.4518 17.6019H35.532V29.5188H28.6807V0.364258L42.5291 0.400701C45.6632 0.400701 48.0684 1.23889 49.7813 2.87884C51.3848 4.40945 52.1865 6.41382 52.1865 8.9284C52.1865 10.7141 51.7492 12.2447 50.911 13.5567C50.0728 14.8686 48.8337 15.889 47.1938 16.6543L52.5874 29.5188ZM45.0801 9.07417C45.0801 7.90799 44.6792 6.99691 43.841 6.30449C43.0393 5.64852 41.8731 5.32053 40.4154 5.32053H35.532V12.9371H40.7798C42.0553 12.9371 43.0757 12.5727 43.8775 11.8803C44.6792 11.1514 45.0801 10.2404 45.0801 9.07417Z" fill="white"/>
<path d="M78.0609 29.5188H57.3247V0.364258H78.0609V6.19516H64.1396V11.9896H75.0361V17.6019H64.0302V23.6879H78.0609V29.5188V29.5188Z" fill="white"/>
<path d="M105.648 15.1602C105.648 19.3147 104.373 22.7404 101.858 25.4371C99.3073 28.1339 96.0639 29.4823 92.0551 29.4823H81.7417V0.364258H91.5085C96.0639 0.364258 99.5988 1.78554 102.113 4.59166C104.446 7.25201 105.648 10.787 105.648 15.1602ZM98.7242 14.9051C98.7242 12.5363 98.1411 10.5319 97.0114 8.89196C95.7359 7.10624 94.0595 6.19516 91.9458 6.19516H88.7023V23.6879H91.9822C94.0595 23.6879 95.7359 22.7768 97.0114 20.9546C98.1776 19.2783 98.7242 17.2739 98.7242 14.9051Z" fill="white"/>
<path d="M115.743 29.5188H108.855V0.364258H115.743V29.5188Z" fill="white"/>
<path d="M140.853 6.19516H133.6V29.5188H126.749V6.19516H119.57V0.364258H140.816V6.19516H140.853Z" fill="white"/>
<path d="M0 34.6592H12.6093V36.5907H7.36152V49.7831H5.17493V36.5907H0V34.6592Z" fill="white"/>
<path d="M33.9286 34.6943H36.0788L29.9563 49.8547H29.4826L24.5263 37.5733L19.5336 49.8547H19.0598L13.0103 34.6943H15.1968L19.3514 45.1171L23.5423 34.6943H25.5831L29.8105 45.1171L33.9286 34.6943Z" fill="white"/>
<path d="M37.7552 34.6943H46.3193V36.6258H39.9053V41.2177H46.1007V43.1491H39.9053V47.8503H46.5016V49.7818H37.7188V34.6943H37.7552Z" fill="white"/>
<path d="M60.8235 34.6943H62.8643V49.8182H61.0057L50.9109 38.1929V49.8182H48.8701V34.6943H50.6194L60.8235 46.429V34.6943V34.6943Z" fill="white"/>
<path d="M64.8323 34.6582H77.4417V36.5897H72.1574V49.7821H69.9708V36.5897H64.7959V34.6582H64.8323Z" fill="white"/>
<path d="M88.5935 34.6943H91.2174L85.6416 41.8008V49.7818H83.4186V41.8008L77.8428 34.6943H80.4667L84.5119 39.9057L88.5935 34.6943Z" fill="white"/>
<path d="M88.7754 43.8418H94.169V45.9555H88.7754V43.8418V43.8418Z" fill="white"/>
<path d="M104.154 34.4756C106.487 34.4756 108.418 35.2044 109.985 36.6986C111.552 38.1928 112.318 40.0149 112.318 42.2744C112.318 44.4975 111.516 46.3561 109.949 47.8138C108.382 49.2715 106.414 50.0004 104.009 50.0004C101.749 50.0004 99.8176 49.2715 98.3234 47.8138C96.7928 46.3561 96.064 44.5339 96.064 42.3109C96.064 40.0514 96.8293 38.1928 98.3599 36.6986C99.8905 35.2044 101.822 34.4756 104.154 34.4756ZM104.227 36.5164C102.514 36.5164 101.093 37.063 99.9634 38.1563C98.8336 39.2496 98.287 40.6345 98.287 42.3109C98.287 43.9508 98.8336 45.2992 99.9634 46.3925C101.093 47.4858 102.478 48.0324 104.154 48.0324C105.831 48.0324 107.252 47.4858 108.382 46.3925C109.511 45.2992 110.058 43.9144 110.058 42.2744C110.058 40.6709 109.511 39.3225 108.382 38.2292C107.252 37.0631 105.867 36.5164 104.227 36.5164Z" fill="white"/>
<path d="M126.968 34.6943H129.009V49.8182H127.186L117.092 38.1929V49.8182H115.051V34.6943H116.8L127.004 46.429V34.6943H126.968Z" fill="white"/>
<path d="M132.252 34.6943H140.817V36.6258H134.403V41.2177H140.598V43.1491H134.403V47.8503H141.035V49.7818H132.252V34.6943Z" fill="white"/>
</svg>
