<svg width="150" height="39" viewBox="0 0 150 39" fill="none" xmlns="http://www.w3.org/2000/svg">
<path d="M130.831 38.3383C141.418 38.3383 150 29.756 150 19.1692C150 8.58232 141.418 0 130.831 0C120.244 0 111.662 8.58232 111.662 19.1692C111.662 29.756 120.244 38.3383 130.831 38.3383Z" fill="#4285F4"/>
<path d="M129.434 26.5457H117.53V23.5278L123.23 19.1687C123.901 18.6657 124.432 18.1348 124.851 17.5759C125.354 16.9052 125.578 16.2625 125.578 15.6757C125.578 15.4242 125.522 15.2007 125.438 14.9772C125.354 14.7536 125.214 14.5301 125.019 14.3065C124.795 14.055 124.544 13.8594 124.264 13.7476C123.985 13.6079 123.705 13.552 123.426 13.552C122.727 13.552 122.113 13.8594 121.554 14.4742C120.995 15.0889 120.715 15.7875 120.715 16.5979L117.558 15.8155C117.865 14.2227 118.48 13.0211 119.402 12.1828C120.436 11.2327 121.833 10.7856 123.621 10.7856C124.683 10.7856 125.578 10.9254 126.276 11.2327C127.059 11.5681 127.729 12.099 128.316 12.8814C128.623 13.3285 128.875 13.7756 129.015 14.2506C129.154 14.7257 129.238 15.2007 129.238 15.6757C129.238 16.6258 128.959 17.5759 128.372 18.498C127.841 19.3363 127.17 20.0349 126.332 20.5938L122.001 23.4719H129.378V26.5457H129.434Z" fill="white"/>
<path d="M144.16 26.602H131.446V23.668H136.084V14.9496L131.725 17.2689V14.1113C132.144 13.9996 132.48 13.8878 132.759 13.804C133.01 13.6922 133.374 13.5525 133.821 13.3289C134.547 12.9656 134.994 12.7421 135.134 12.6583C135.637 12.323 136.28 11.7361 137.062 10.9258H139.773V23.6121H144.16V26.602Z" fill="white"/>
<path d="M19.225 14.782C18.8338 17.269 17.9955 19.1971 16.7101 20.5384C15.2291 22.1312 13.1334 22.9136 10.4229 22.9136C7.46088 22.9136 5.00186 21.8517 3.07377 19.756C1.14567 17.6602 0.195599 14.9497 0.195599 11.6244C0.195599 8.46684 1.08979 5.75634 2.87816 3.52087C4.75037 1.17362 7.12556 0 10.0037 0C12.9937 0 15.2571 0.838301 16.8219 2.5149C18.1911 3.96796 18.9736 6.03577 19.225 8.71833L13.8599 8.99777C13.8599 7.68443 13.5805 6.59464 13.0496 5.75634C12.4069 4.75037 11.4568 4.24739 10.2273 4.24739C8.66244 4.24739 7.57265 4.89009 6.92995 6.17549C6.37109 7.32116 6.09165 9.16543 6.09165 11.7083C6.09165 13.7761 6.39903 15.3968 7.01378 16.5984C7.71237 17.9955 8.80216 18.6941 10.2552 18.6941C11.373 18.6941 12.2951 18.275 13.0496 17.4646C13.7761 16.6543 14.1393 15.6762 14.1393 14.5306L19.225 14.782Z" fill="#4285F4"/>
<path d="M40.3223 22.634H34.3983L31.0171 13.4965H27.2448V22.634H21.9914V0.279297L32.6099 0.30724C35.013 0.30724 36.8573 0.949938 38.1706 2.20739C39.4002 3.38101 40.0149 4.9179 40.0149 6.84599C40.0149 8.21522 39.6796 9.38884 39.0369 10.3948C38.3942 11.4008 37.4441 12.1832 36.1867 12.77L40.3223 22.634ZM34.566 6.95776C34.566 6.06358 34.2586 5.36499 33.6159 4.83407C33.0011 4.33109 32.1069 4.0796 30.9892 4.0796H27.2448V9.91976H31.2686C32.2467 9.91976 33.0291 9.64033 33.6438 9.1094C34.2586 8.55054 34.566 7.85195 34.566 6.95776Z" fill="#4285F4"/>
<path d="M59.8547 22.634H43.9549V0.279297H59.8547V4.75024H49.1803V9.19324H57.5354V13.4965H49.0965V18.1631H59.8547V22.634Z" fill="#4285F4"/>
<path d="M81.0078 11.6243C81.0078 14.8099 80.0298 17.4365 78.1017 19.5043C76.1457 21.5722 73.6587 22.6061 70.585 22.6061H62.677V0.279297H70.1658C73.6587 0.279297 76.3692 1.36909 78.2973 3.52073C80.0857 5.5606 81.0078 8.2711 81.0078 11.6243ZM75.6986 11.4287C75.6986 9.61239 75.2515 8.0755 74.3853 6.81805C73.4072 5.44882 72.1218 4.75024 70.5011 4.75024H68.0142V18.1631H70.5291C72.1218 18.1631 73.4072 17.4645 74.3853 16.0673C75.2794 14.7819 75.6986 13.245 75.6986 11.4287Z" fill="#4285F4"/>
<path d="M88.7481 22.634H83.4668V0.279297H88.7481V22.634Z" fill="#4285F4"/>
<path d="M108.001 4.75024H102.44V22.634H97.187V4.75024H91.6822V0.279297H107.973V4.75024H108.001Z" fill="#4285F4"/>
<path d="M0 26.5752H9.66841V28.0562H5.64456V38.1717H3.96796V28.0562H0V26.5752Z" fill="#4285F4"/>
<path d="M26.0153 26.6021H27.6639L22.9695 38.2265H22.6062L18.8059 28.8096L14.9777 38.2265H14.6144L9.97579 26.6021H11.6524L14.8379 34.5939L18.0514 26.6021H19.6163L22.8577 34.5939L26.0153 26.6021Z" fill="#4285F4"/>
<path d="M28.9493 26.6021H35.516V28.0831H30.598V31.6039H35.3484V33.0849H30.598V36.6896H35.6557V38.1706H28.9214V26.6021H28.9493Z" fill="#4285F4"/>
<path d="M46.6375 26.6021H48.2023V38.1986H46.7772L39.0369 29.2846V38.1986H37.4721V26.6021H38.8134L46.6375 35.5998V26.6021Z" fill="#4285F4"/>
<path d="M49.7113 26.5742H59.3797V28.0552H55.3279V38.1707H53.6513V28.0552H49.6834V26.5742H49.7113Z" fill="#4285F4"/>
<path d="M67.9303 26.6021H69.9423L65.6669 32.051V38.1706H63.9624V32.051L59.687 26.6021H61.699L64.8007 30.598L67.9303 26.6021Z" fill="#4285F4"/>
<path d="M68.0701 33.6157H72.2057V35.2364H68.0701V33.6157Z" fill="#4285F4"/>
<path d="M79.8622 26.4346C81.6506 26.4346 83.1316 26.9934 84.3331 28.1391C85.5347 29.2848 86.1215 30.682 86.1215 32.4145C86.1215 34.119 85.5067 35.5441 84.3052 36.6618C83.1036 37.7796 81.5947 38.3384 79.7504 38.3384C78.0179 38.3384 76.5369 37.7796 75.3912 36.6618C74.2176 35.5441 73.6588 34.1469 73.6588 32.4424C73.6588 30.7099 74.2456 29.2848 75.4192 28.1391C76.5928 26.9934 78.0738 26.4346 79.8622 26.4346ZM79.9181 27.9994C78.6047 27.9994 77.5149 28.4185 76.6487 29.2569C75.7824 30.0952 75.3633 31.157 75.3633 32.4424C75.3633 33.6998 75.7824 34.7338 76.6487 35.5721C77.5149 36.4104 78.5768 36.8295 79.8622 36.8295C81.1476 36.8295 82.2374 36.4104 83.1036 35.5721C83.9699 34.7338 84.389 33.6719 84.389 32.4145C84.389 31.1849 83.9699 30.151 83.1036 29.3127C82.2374 28.4186 81.1755 27.9994 79.9181 27.9994Z" fill="#4285F4"/>
<path d="M97.3547 26.6021H98.9195V38.1986H97.5224L89.7821 29.2846V38.1986H88.2172V26.6021H89.5585L97.3827 35.5998V26.6021H97.3547Z" fill="#4285F4"/>
<path d="M101.407 26.6021H107.973V28.0831H103.055V31.6039H107.806V33.0849H103.055V36.6896H108.141V38.1706H101.407V26.6021Z" fill="#4285F4"/>
</svg>
