<svg width="42" height="41" viewBox="0 0 42 41" fill="none" xmlns="http://www.w3.org/2000/svg">
<g opacity="0.5">
<ellipse cx="21" cy="20.5" rx="21" ry="20.5" fill="#909090"/>
</g>
<path d="M15.3686 28.8394L28.8743 15.3337C29.3503 14.8577 29.3321 14.0873 28.8548 13.61C28.3775 13.1327 27.6072 13.1145 27.1312 13.5905L13.6255 27.0962C13.1495 27.5722 13.1677 28.3425 13.645 28.8198C14.1223 29.2971 14.8926 29.3154 15.3686 28.8394Z" fill="#E0E2E4" stroke="#E0E2E4" stroke-width="0.5"/>
<path d="M27.346 29.014C27.8233 29.4913 28.5937 29.5096 29.0697 29.0336C29.5457 28.5576 29.5275 27.7872 29.0502 27.3099L15.1538 13.4136C14.6765 12.9363 13.9062 12.918 13.4301 13.394C12.9541 13.87 12.9724 14.6404 13.4497 15.1177L27.346 29.014Z" fill="#E0E2E4" stroke="#E0E2E4" stroke-width="0.5"/>
</svg>
