<svg width="30" height="56" viewBox="0 0 30 56" fill="none" xmlns="http://www.w3.org/2000/svg">
<rect width="30" height="55.5319" rx="5" fill="url(#paint0_linear)"/>
<path d="M15.0002 53.6171C16.4808 53.6171 17.681 52.4168 17.681 50.9362C17.681 49.4556 16.4808 48.2554 15.0002 48.2554C13.5196 48.2554 12.3193 49.4556 12.3193 50.9362C12.3193 52.4168 13.5196 53.6171 15.0002 53.6171Z" fill="url(#paint1_linear)"/>
<path d="M26.8298 8.23389H3.10645C2.55416 8.23389 2.10645 8.6816 2.10645 9.23389V45.3403C2.10645 45.8926 2.55416 46.3403 3.10645 46.3403H26.8298C27.3821 46.3403 27.8298 45.8926 27.8298 45.3403V9.23389C27.8298 8.6816 27.3821 8.23389 26.8298 8.23389Z" fill="url(#paint2_linear)"/>
<path d="M10.0853 3.57422H19.9789C20.4257 3.57422 20.7449 3.89337 20.7449 4.34018C20.7449 4.78698 20.4257 5.10613 19.9789 5.10613H10.0853C9.63848 5.10613 9.31934 4.78698 9.31934 4.34018C9.31934 3.89337 9.63848 3.57422 10.0853 3.57422Z" fill="url(#paint3_linear)"/>
<defs>
<linearGradient id="paint0_linear" x1="15" y1="0" x2="15" y2="55.5319" gradientUnits="userSpaceOnUse">
<stop stop-color="#4F92F8"/>
<stop offset="1" stop-color="#2E76E3"/>
</linearGradient>
<linearGradient id="paint1_linear" x1="15.0002" y1="48.2554" x2="15.0002" y2="53.6171" gradientUnits="userSpaceOnUse">
<stop stop-color="#FFE323"/>
<stop offset="1" stop-color="#FFD919"/>
</linearGradient>
<linearGradient id="paint2_linear" x1="14.9681" y1="8.23389" x2="14.9681" y2="46.3403" gradientUnits="userSpaceOnUse">
<stop stop-color="#DCEDFF"/>
<stop offset="1" stop-color="#B6D8FF"/>
</linearGradient>
<linearGradient id="paint3_linear" x1="15.0321" y1="3.57422" x2="15.0321" y2="5.10613" gradientUnits="userSpaceOnUse">
<stop stop-color="#90C2FF"/>
<stop offset="1" stop-color="#6AADFF"/>
</linearGradient>
</defs>
</svg>
