<svg width="50" height="48" viewBox="0 0 50 48" fill="none" xmlns="http://www.w3.org/2000/svg">
<path d="M6.15137 32.2571V37.1244C6.15137 38.515 7.40296 39.4885 8.65456 39.4885H37.8584L48.0102 47.6934C48.8446 48.3887 49.9572 47.8325 49.9572 46.7199V39.4885V9.86745C49.9572 8.47679 48.8446 7.36426 47.454 7.36426H43.6992" fill="url(#paint0_linear)"/>
<g filter="url(#filter0_di)">
<path d="M42.4417 0H3.50319C2.11253 0 1 1.11253 1 2.50319V32.1242V39.3557C1 40.4682 2.25159 40.8854 2.94692 40.3291L13.0987 32.1242H42.3026C43.6933 32.1242 44.8058 31.0117 44.8058 29.6211V2.50319C44.9449 0.973462 43.8323 0 42.4417 0Z" fill="url(#paint1_linear)"/>
</g>
<g filter="url(#filter1_i)">
<circle cx="23" cy="16" r="10" fill="url(#paint2_linear)"/>
</g>
<path d="M22.4941 19.0526C22.2836 19.0526 22.073 18.8421 22.073 18.6316C22.073 18.1053 22.1783 17.5789 22.2836 17.1579C22.4941 16.8421 22.5993 16.6316 22.8099 16.2105C23.0204 16 23.3362 15.6842 23.8625 15.2632C24.3888 14.8421 24.7046 14.4211 24.8099 14.2105C25.0204 14 25.0204 13.6842 25.0204 13.3684C25.0204 12.8421 24.8099 12.3158 24.3888 11.8947C23.9678 11.4737 23.4415 11.2632 22.7046 11.2632C22.1783 11.2632 21.5467 11.4737 21.1257 11.7895C20.8099 12.1053 20.5993 12.4211 20.4941 12.8421C20.3888 13.2632 19.9678 13.4737 19.652 13.4737C19.2309 13.4737 18.9151 13.0526 19.0204 12.6316C19.2309 11.8947 19.5467 11.2632 20.073 10.8421C20.8099 10.3158 21.5467 10 22.5993 10C23.7572 10 24.7046 10.3158 25.4415 10.9474C26.073 11.4737 26.3888 12.3158 26.3888 13.2632C26.3888 13.7895 26.2836 14.2105 26.073 14.6316C25.8625 15.0526 25.3362 15.5789 24.7046 16.3158C24.1783 16.7368 23.8625 16.9474 23.7572 17.2632C23.652 17.4737 23.5467 17.6842 23.4415 17.8947C23.4415 18 23.3362 18.2105 23.3362 18.4211C23.2309 18.8421 23.0204 19.1579 22.5993 19.1579H22.4941V19.0526ZM22.9151 22C22.4941 22 22.073 21.5789 22.073 21.1579C22.073 20.7368 22.4941 20.3158 22.9151 20.3158C23.3362 20.3158 23.7572 20.7368 23.7572 21.1579C23.652 21.5789 23.3362 22 22.9151 22Z" fill="url(#paint3_linear)" stroke="url(#paint4_linear)" stroke-width="0.5"/>
<defs>
<filter id="filter0_di" x="-1" y="-3" width="50.8175" height="49.5745" filterUnits="userSpaceOnUse" color-interpolation-filters="sRGB">
<feFlood flood-opacity="0" result="BackgroundImageFix"/>
<feColorMatrix in="SourceAlpha" type="matrix" values="0 0 0 0 0 0 0 0 0 0 0 0 0 0 0 0 0 0 127 0"/>
<feOffset dx="2" dy="3"/>
<feGaussianBlur stdDeviation="1.5"/>
<feColorMatrix type="matrix" values="0 0 0 0 0 0 0 0 0 0.231373 0 0 0 0 1 0 0 0 0.2 0"/>
<feBlend mode="normal" in2="BackgroundImageFix" result="effect1_dropShadow"/>
<feBlend mode="normal" in="SourceGraphic" in2="effect1_dropShadow" result="shape"/>
<feColorMatrix in="SourceAlpha" type="matrix" values="0 0 0 0 0 0 0 0 0 0 0 0 0 0 0 0 0 0 127 0" result="hardAlpha"/>
<feOffset dx="-2" dy="-3"/>
<feGaussianBlur stdDeviation="2.5"/>
<feComposite in2="hardAlpha" operator="arithmetic" k2="-1" k3="1"/>
<feColorMatrix type="matrix" values="0 0 0 0 0 0 0 0 0 0.231373 0 0 0 0 1 0 0 0 0.15 0"/>
<feBlend mode="normal" in2="shape" result="effect2_innerShadow"/>
</filter>
<filter id="filter1_i" x="11" y="3" width="22" height="23" filterUnits="userSpaceOnUse" color-interpolation-filters="sRGB">
<feFlood flood-opacity="0" result="BackgroundImageFix"/>
<feBlend mode="normal" in="SourceGraphic" in2="BackgroundImageFix" result="shape"/>
<feColorMatrix in="SourceAlpha" type="matrix" values="0 0 0 0 0 0 0 0 0 0 0 0 0 0 0 0 0 0 127 0" result="hardAlpha"/>
<feOffset dx="-2" dy="-3"/>
<feGaussianBlur stdDeviation="2.5"/>
<feComposite in2="hardAlpha" operator="arithmetic" k2="-1" k3="1"/>
<feColorMatrix type="matrix" values="0 0 0 0 0.776471 0 0 0 0 0.396078 0 0 0 0 0.054902 0 0 0 0.15 0"/>
<feBlend mode="normal" in2="shape" result="effect1_innerShadow"/>
</filter>
<linearGradient id="paint0_linear" x1="28.0543" y1="7.36426" x2="28.0543" y2="48.0001" gradientUnits="userSpaceOnUse">
<stop stop-color="#90C2FF"/>
<stop offset="1" stop-color="#6AADFF"/>
</linearGradient>
<linearGradient id="paint1_linear" x1="22.9088" y1="0" x2="22.9088" y2="40.5745" gradientUnits="userSpaceOnUse">
<stop stop-color="#DCEDFF"/>
<stop offset="1" stop-color="#B6D8FF"/>
</linearGradient>
<linearGradient id="paint2_linear" x1="23" y1="6" x2="23" y2="26" gradientUnits="userSpaceOnUse">
<stop stop-color="#FFE323"/>
<stop offset="1" stop-color="#FFD919"/>
</linearGradient>
<linearGradient id="paint3_linear" x1="22.6944" y1="10" x2="22.6944" y2="22" gradientUnits="userSpaceOnUse">
<stop stop-color="#4F92F8"/>
<stop offset="1" stop-color="#2E76E3"/>
</linearGradient>
<linearGradient id="paint4_linear" x1="22.6944" y1="10" x2="22.6944" y2="22" gradientUnits="userSpaceOnUse">
<stop stop-color="#4F92F8"/>
<stop offset="1" stop-color="#2E76E3"/>
</linearGradient>
</defs>
</svg>
