<svg width="55" height="50" viewBox="0 0 55 50" fill="none" xmlns="http://www.w3.org/2000/svg">
<g filter="url(#filter0_i)">
<path d="M45.9048 26.5454H8.35947C7.54129 26.5454 6.90493 27.0909 6.6322 27.8181L0.0867721 47.6362C-0.276863 48.8181 0.541316 49.9999 1.81404 49.9999H52.4502C53.7229 49.9999 54.5411 48.8181 54.1775 47.6362L47.6321 27.8181C47.3593 27.0909 46.6321 26.5454 45.9048 26.5454Z" fill="url(#paint0_linear)"/>
</g>
<path d="M12.6318 14.3636C12.6318 6.45452 19.1773 0 27.0863 0C35.0863 0 41.5408 6.45452 41.5408 14.3636C41.5408 21.1817 32.7227 31.1817 27.9045 37.4544C27.5409 37.9999 26.7227 37.9999 26.3591 37.4544C21.45 31.2726 12.6318 21.2727 12.6318 14.3636Z" fill="url(#paint1_linear)"/>
<g filter="url(#filter1_i)">
<path d="M26.9961 9.63574C24.1779 9.63574 21.9961 11.8176 21.9961 14.6357C21.9961 17.4539 24.1779 19.7266 26.9961 19.7266C29.8142 19.7266 32.087 17.5448 32.087 14.6357C32.087 11.9085 29.8142 9.63574 26.9961 9.63574Z" fill="url(#paint2_linear)"/>
</g>
<defs>
<filter id="filter0_i" x="-2" y="23.5454" width="56.2643" height="26.4545" filterUnits="userSpaceOnUse" color-interpolation-filters="sRGB">
<feFlood flood-opacity="0" result="BackgroundImageFix"/>
<feBlend mode="normal" in="SourceGraphic" in2="BackgroundImageFix" result="shape"/>
<feColorMatrix in="SourceAlpha" type="matrix" values="0 0 0 0 0 0 0 0 0 0 0 0 0 0 0 0 0 0 127 0" result="hardAlpha"/>
<feOffset dx="-2" dy="-3"/>
<feGaussianBlur stdDeviation="2.5"/>
<feComposite in2="hardAlpha" operator="arithmetic" k2="-1" k3="1"/>
<feColorMatrix type="matrix" values="0 0 0 0 0.0980392 0 0 0 0 0.403922 0 0 0 0 0.823529 0 0 0 0.15 0"/>
<feBlend mode="normal" in2="shape" result="effect1_innerShadow"/>
</filter>
<filter id="filter1_i" x="19.9961" y="6.63574" width="12.0909" height="13.0909" filterUnits="userSpaceOnUse" color-interpolation-filters="sRGB">
<feFlood flood-opacity="0" result="BackgroundImageFix"/>
<feBlend mode="normal" in="SourceGraphic" in2="BackgroundImageFix" result="shape"/>
<feColorMatrix in="SourceAlpha" type="matrix" values="0 0 0 0 0 0 0 0 0 0 0 0 0 0 0 0 0 0 127 0" result="hardAlpha"/>
<feOffset dx="-2" dy="-3"/>
<feGaussianBlur stdDeviation="2.5"/>
<feComposite in2="hardAlpha" operator="arithmetic" k2="-1" k3="1"/>
<feColorMatrix type="matrix" values="0 0 0 0 0.776471 0 0 0 0 0.396078 0 0 0 0 0.054902 0 0 0 0.15 0"/>
<feBlend mode="normal" in2="shape" result="effect1_innerShadow"/>
</filter>
<linearGradient id="paint0_linear" x1="27.1321" y1="26.5454" x2="27.1321" y2="49.9999" gradientUnits="userSpaceOnUse">
<stop stop-color="#DCEDFF"/>
<stop offset="1" stop-color="#B6D8FF"/>
</linearGradient>
<linearGradient id="paint1_linear" x1="27.0863" y1="0" x2="27.0863" y2="37.8635" gradientUnits="userSpaceOnUse">
<stop stop-color="#4F92F8"/>
<stop offset="1" stop-color="#2E76E3"/>
</linearGradient>
<linearGradient id="paint2_linear" x1="27.0415" y1="9.63574" x2="27.0415" y2="19.7266" gradientUnits="userSpaceOnUse">
<stop stop-color="#FFE323"/>
<stop offset="1" stop-color="#FFD919"/>
</linearGradient>
</defs>
</svg>
