<svg width="515" height="328" viewBox="0 0 515 328" fill="none" xmlns="http://www.w3.org/2000/svg">
<g filter="url(#filter0_d)">
<path d="M412.549 255.596C442.649 265.361 471.861 278.031 499.62 293.282C492.277 277.062 488.484 268.993 480.98 253.014C488.484 247.043 492.196 244.138 499.62 238.408C471.861 223.157 442.729 210.487 412.549 200.723C412.549 222.753 412.549 233.728 412.549 255.596Z" fill="url(#paint0_linear)"/>
<path d="M452.251 228.482C436.596 238.649 428.607 244.056 412.549 255.595C412.549 220.089 412.549 184.663 412.549 149.157C428.527 154.321 436.435 157.307 452.01 163.844C452.171 189.747 452.171 202.659 452.251 228.482Z" fill="url(#paint1_linear)"/>
<path d="M102.511 255.595C72.3306 265.359 43.1991 278.029 15.4395 293.28C22.7829 277.061 26.5756 268.991 34.0804 253.013C26.5756 247.041 22.7829 244.137 15.4395 238.488C43.1991 223.236 72.3306 210.647 102.511 200.802C102.511 222.752 102.511 233.727 102.511 255.595Z" fill="url(#paint2_linear)"/>
<path d="M62.8086 228.482C78.4637 238.649 86.4527 244.056 102.512 255.595C102.512 220.089 102.512 184.663 102.512 149.157C86.5335 154.321 78.6251 157.307 63.0507 163.844C62.8893 189.747 62.8893 202.659 62.8086 228.482Z" fill="url(#paint3_linear)"/>
<path d="M236.385 113.732C178.93 116.152 121.311 128.257 62.5645 150.126C62.5645 181.517 62.5645 197.172 62.5645 228.563C121.311 206.694 178.93 194.509 236.385 192.169V113.732Z" fill="url(#paint4_linear)"/>
<path d="M332.094 118.734V197.172C371.797 202.982 411.742 213.392 452.251 228.482V150.044C411.742 134.954 371.797 124.545 332.094 118.734Z" fill="url(#paint5_linear)"/>
<path d="M343.391 257.29L335.564 276.416L314.986 274.56L302.882 291.345L283.353 284.566L267.537 297.962L250.187 286.745L231.708 295.945L217.505 280.854L197.331 285.373L187.163 267.378L166.505 266.893L160.936 247.042L141.004 241.635L140.359 220.977L122.283 210.971L126.56 190.716L111.389 176.675L120.426 158.114L109.129 140.845L122.364 124.948L115.424 105.419L132.047 93.1536L130.029 72.5759L149.155 64.6676L152.06 44.2513L172.557 41.1041L180.304 21.979L200.881 23.8351L212.986 7.05012L232.514 13.8286L248.331 0.432983L265.681 11.6498L284.16 2.4504L298.363 17.46L318.537 13.0216L328.705 31.017L349.363 31.5012L354.931 51.3526L374.863 56.7593L375.509 77.4176L393.585 87.4244L389.308 107.679L404.479 121.72L395.441 140.28L406.739 157.549L393.504 173.447L400.445 192.976L383.82 205.161L385.838 225.738L366.713 233.727L363.808 254.143L343.391 257.29Z" fill="url(#paint6_linear)"/>
<path d="M392.372 149.158C392.372 223.398 332.172 283.598 257.931 283.598C183.69 283.598 123.49 223.398 123.49 149.158C123.49 74.9166 183.69 14.7169 257.931 14.7169C332.172 14.7976 392.372 74.9974 392.372 149.158Z" fill="url(#paint7_linear)"/>
<path d="M257.932 280.693C330.577 280.693 389.468 221.802 389.468 149.157C389.468 76.5118 330.577 17.6213 257.932 17.6213C185.287 17.6213 126.396 76.5118 126.396 149.157C126.396 221.802 185.287 280.693 257.932 280.693Z" fill="url(#paint8_radial)"/>
<path d="M250.429 274.883C249.218 274.802 248.25 273.753 248.331 272.542C248.412 271.331 249.461 270.363 250.671 270.444C251.881 270.525 252.849 271.574 252.769 272.785C252.688 273.994 251.72 274.883 250.51 274.883C250.51 274.883 250.51 274.883 250.429 274.883ZM263.824 272.704C263.743 271.493 264.712 270.444 265.922 270.363C267.133 270.282 268.263 271.251 268.344 272.461C268.424 273.672 267.455 274.721 266.246 274.802C266.165 274.802 266.165 274.802 266.084 274.802C264.873 274.802 263.905 273.914 263.824 272.704ZM234.774 272.945C233.563 272.704 232.756 271.574 232.998 270.363C233.24 269.153 234.37 268.346 235.581 268.588C236.791 268.83 237.598 269.96 237.356 271.171C237.114 272.3 236.226 273.026 235.177 273.026C235.016 272.945 234.854 272.945 234.774 272.945ZM279.318 271.009C279.076 269.798 279.883 268.588 281.093 268.427C282.304 268.184 283.515 268.992 283.676 270.202C283.918 271.412 283.111 272.542 281.901 272.785C281.739 272.785 281.577 272.865 281.497 272.865C280.448 272.865 279.479 272.139 279.318 271.009ZM219.441 269.072C218.231 268.669 217.585 267.458 217.988 266.248C218.392 265.037 219.602 264.392 220.813 264.795C222.024 265.199 222.589 266.409 222.265 267.619C221.943 268.588 221.055 269.153 220.087 269.153C219.845 269.153 219.683 269.153 219.441 269.072ZM294.327 267.378C293.924 266.167 294.57 264.957 295.78 264.553C296.991 264.15 298.201 264.795 298.605 266.006C299.008 267.135 298.363 268.427 297.233 268.83C296.991 268.911 296.749 268.911 296.506 268.911C295.538 268.992 294.651 268.346 294.327 267.378ZM204.674 263.262C203.544 262.778 203.06 261.406 203.625 260.276C204.109 259.147 205.48 258.662 206.61 259.227C207.74 259.711 208.224 261.083 207.659 262.213C207.256 263.02 206.449 263.504 205.642 263.504C205.319 263.504 204.996 263.423 204.674 263.262ZM308.854 261.89C308.369 260.76 308.773 259.469 309.903 258.904C311.032 258.339 312.323 258.823 312.888 259.953C313.453 261.083 312.969 262.374 311.839 262.939C311.516 263.1 311.193 263.101 310.871 263.101C310.063 263.181 309.257 262.697 308.854 261.89ZM190.794 255.676C189.745 255.031 189.422 253.659 190.068 252.61C190.713 251.561 192.085 251.239 193.134 251.883C194.183 252.529 194.506 253.901 193.86 254.951C193.457 255.595 192.731 256 191.924 256C191.601 256.08 191.197 255.919 190.794 255.676ZM322.572 254.627C321.926 253.578 322.249 252.207 323.217 251.561C324.266 250.915 325.638 251.239 326.364 252.207C327.01 253.256 326.687 254.627 325.638 255.273C325.234 255.515 324.831 255.595 324.428 255.595C323.701 255.676 322.975 255.273 322.572 254.627ZM178.043 246.477C177.075 245.67 176.914 244.298 177.721 243.33C178.528 242.362 179.9 242.2 180.868 243.007C181.836 243.814 181.998 245.186 181.191 246.154C180.706 246.719 180.062 246.961 179.416 246.961C178.932 246.961 178.448 246.8 178.043 246.477ZM335.241 245.751C334.434 244.783 334.596 243.411 335.564 242.604C336.532 241.797 337.904 241.958 338.711 242.846C339.518 243.814 339.357 245.186 338.388 245.993C337.984 246.316 337.5 246.558 336.935 246.558C336.37 246.558 335.725 246.235 335.241 245.751ZM166.504 235.663C165.616 234.776 165.697 233.324 166.585 232.516C167.473 231.629 168.925 231.71 169.732 232.597C170.62 233.484 170.539 234.938 169.651 235.744C169.248 236.148 168.683 236.309 168.118 236.309C167.473 236.39 166.908 236.148 166.504 235.663ZM346.78 235.26C345.893 234.453 345.812 233 346.7 232.113C347.507 231.226 348.959 231.145 349.847 232.032C350.735 232.92 350.816 234.292 349.928 235.179C349.443 235.663 348.878 235.906 348.314 235.906C347.749 235.825 347.184 235.663 346.78 235.26ZM156.337 223.559C155.61 222.591 155.853 221.138 156.821 220.412C157.789 219.686 159.241 219.928 159.968 220.896C160.694 221.865 160.452 223.317 159.484 224.043C159.08 224.366 158.596 224.447 158.192 224.447C157.466 224.447 156.821 224.124 156.337 223.559ZM356.867 223.478C355.899 222.752 355.658 221.38 356.383 220.331C357.11 219.363 358.481 219.121 359.53 219.847C360.499 220.573 360.741 221.945 360.015 222.994C359.53 223.559 358.885 223.882 358.24 223.882C357.675 223.882 357.271 223.721 356.867 223.478ZM147.782 210.245C147.218 209.196 147.54 207.823 148.67 207.177C149.719 206.613 151.091 206.936 151.737 208.066C152.301 209.115 151.898 210.486 150.849 211.132C150.526 211.294 150.123 211.374 149.8 211.374C148.993 211.374 148.186 210.97 147.782 210.245ZM365.422 210.486C364.372 209.921 363.969 208.55 364.534 207.42C365.099 206.371 366.471 205.968 367.6 206.532C368.65 207.097 369.053 208.469 368.488 209.518C368.085 210.245 367.277 210.648 366.551 210.648C366.067 210.729 365.744 210.648 365.422 210.486ZM141.004 196.042C140.52 194.912 141.085 193.62 142.215 193.136C143.344 192.652 144.716 193.217 145.119 194.428C145.604 195.558 145.039 196.848 143.909 197.333C143.667 197.413 143.344 197.494 143.102 197.494C142.215 197.413 141.407 196.848 141.004 196.042ZM372.2 196.526C371.07 196.042 370.505 194.75 370.909 193.62C371.393 192.491 372.684 191.926 373.814 192.33C374.944 192.814 375.509 194.105 375.105 195.234C374.782 196.122 373.895 196.687 373.007 196.687C372.765 196.687 372.523 196.687 372.2 196.526ZM136.081 180.951C135.759 179.741 136.485 178.53 137.695 178.208C138.906 177.885 140.117 178.611 140.439 179.821C140.762 181.032 140.036 182.243 138.825 182.565C138.663 182.646 138.422 182.646 138.26 182.646C137.292 182.646 136.324 182 136.081 180.951ZM377.284 181.839C376.074 181.516 375.347 180.306 375.67 179.095C375.993 177.885 377.204 177.159 378.413 177.481C379.624 177.804 380.351 179.015 380.027 180.225C379.786 181.274 378.817 181.92 377.848 181.92C377.607 181.92 377.445 181.92 377.284 181.839ZM133.096 165.458C132.934 164.247 133.822 163.117 135.032 162.956C136.243 162.795 137.373 163.682 137.534 164.893C137.695 166.103 136.808 167.233 135.597 167.394C135.516 167.394 135.436 167.394 135.275 167.394C134.226 167.394 133.257 166.588 133.096 165.458ZM380.431 166.668C379.221 166.507 378.333 165.377 378.494 164.166C378.656 162.956 379.786 162.068 380.996 162.23C382.206 162.391 383.094 163.521 382.933 164.731C382.771 165.861 381.803 166.668 380.673 166.668C380.592 166.668 380.512 166.668 380.431 166.668ZM132.047 149.722C132.047 149.641 132.047 149.56 132.047 149.479C132.047 149.399 132.047 149.318 132.047 149.238C132.047 148.027 133.015 146.978 134.307 146.978C135.516 146.978 136.565 147.946 136.565 149.238C136.565 149.318 136.565 149.399 136.565 149.479C136.565 149.56 136.565 149.641 136.565 149.722C136.565 151.013 135.597 151.981 134.307 151.981C133.015 151.981 132.047 150.932 132.047 149.722ZM379.382 148.914C379.382 147.705 380.351 146.656 381.641 146.656C382.852 146.656 383.901 147.624 383.901 148.834C383.901 150.125 382.933 151.093 381.641 151.093C380.351 151.174 379.382 150.206 379.382 148.914ZM136.485 149.641C136.485 149.722 136.485 149.722 136.485 149.641V149.641ZM134.951 135.923C133.742 135.761 132.853 134.631 133.015 133.421C133.177 132.21 134.307 131.323 135.516 131.484C136.727 131.645 137.614 132.775 137.454 133.986C137.292 135.116 136.324 135.923 135.275 135.923C135.194 135.923 135.032 135.923 134.951 135.923ZM378.413 133.744C378.253 132.533 379.14 131.404 380.351 131.242C381.561 131.081 382.69 131.968 382.852 133.179C383.014 134.389 382.126 135.519 380.915 135.68C380.835 135.68 380.754 135.68 380.592 135.68C379.462 135.68 378.575 134.874 378.413 133.744ZM137.534 120.59C136.324 120.268 135.597 119.057 135.92 117.846C136.243 116.636 137.454 115.91 138.663 116.232C139.874 116.556 140.601 117.766 140.277 118.976C140.036 119.944 139.148 120.671 138.099 120.671C137.938 120.671 137.776 120.671 137.534 120.59ZM375.509 118.734C375.186 117.524 375.912 116.313 377.123 115.991C378.333 115.668 379.543 116.394 379.866 117.605C380.189 118.815 379.462 120.025 378.253 120.348C378.091 120.348 377.848 120.429 377.688 120.429C376.639 120.429 375.75 119.784 375.509 118.734ZM142.134 105.742C141.004 105.257 140.439 103.967 140.842 102.837C141.326 101.707 142.618 101.142 143.748 101.545C144.877 102.03 145.442 103.321 145.039 104.451C144.716 105.338 143.828 105.822 142.94 105.822C142.618 105.903 142.376 105.822 142.134 105.742ZM370.748 104.289C370.264 103.159 370.828 101.869 372.038 101.385C373.168 100.901 374.46 101.465 374.944 102.675C375.428 103.805 374.863 105.097 373.652 105.581C373.411 105.661 373.087 105.742 372.846 105.742C371.958 105.661 371.151 105.177 370.748 104.289ZM148.428 91.6202C147.298 90.9745 146.976 89.683 147.54 88.5532C148.105 87.5042 149.477 87.1009 150.526 87.6658C151.656 88.2307 151.979 89.603 151.414 90.732C151.01 91.4586 150.203 91.8619 149.477 91.8619C149.154 91.8619 148.832 91.7811 148.428 91.6202ZM364.292 90.4904C363.727 89.4414 364.13 88.0691 365.179 87.4242C366.309 86.8593 367.6 87.1817 368.246 88.3115C368.811 89.3606 368.407 90.732 367.358 91.3778C367.036 91.6202 366.632 91.701 366.309 91.701C365.422 91.701 364.695 91.2169 364.292 90.4904ZM156.578 78.3051C155.529 77.5789 155.368 76.207 156.094 75.158C156.821 74.1089 158.192 73.9475 159.241 74.6737C160.209 75.4 160.452 76.7719 159.725 77.8209C159.322 78.3858 158.596 78.7086 157.951 78.7086C157.386 78.7893 156.982 78.6279 156.578 78.3051ZM356.061 77.6595C355.334 76.6912 355.577 75.2386 356.545 74.5124C357.513 73.7861 358.966 74.0281 359.692 74.9966C360.418 75.9649 360.176 77.4175 359.208 78.1437C358.805 78.4665 358.32 78.5472 357.916 78.5472C357.191 78.6279 356.464 78.3051 356.061 77.6595ZM166.262 66.2006C165.375 65.3129 165.294 63.9411 166.181 63.0534C167.069 62.1658 168.441 62.085 169.328 62.9728C170.216 63.8604 170.297 65.2323 169.409 66.1199C168.925 66.6041 168.36 66.8462 167.795 66.8462C167.23 66.7654 166.665 66.6041 166.262 66.2006ZM346.377 65.9585C345.49 65.0709 345.57 63.6183 346.458 62.8114C347.345 61.9237 348.798 62.0044 349.605 62.892C350.492 63.7797 350.412 65.2323 349.524 66.0392C349.121 66.4427 348.556 66.6041 347.991 66.6041C347.345 66.6848 346.78 66.4427 346.377 65.9585ZM177.318 55.3872C176.51 54.4188 176.672 53.047 177.64 52.2401C178.608 51.4331 179.981 51.5945 180.787 52.5629C181.595 53.5312 181.433 54.903 180.465 55.71C180.062 56.0328 179.577 56.1942 179.013 56.1942C178.448 56.1942 177.802 55.8714 177.318 55.3872ZM335.241 55.5486C334.272 54.7416 334.191 53.3698 334.918 52.4015C335.725 51.4331 337.097 51.3524 338.065 52.0787C339.033 52.8856 339.114 54.2574 338.388 55.2258C337.904 55.7907 337.339 56.0328 336.694 56.0328C336.129 56.0328 335.645 55.8715 335.241 55.5486ZM189.745 46.0264C189.099 44.9774 189.422 43.6055 190.39 42.9599C191.439 42.3144 192.811 42.6371 193.457 43.6862C194.103 44.7353 193.78 46.1071 192.811 46.7527C192.408 46.9948 192.004 47.0755 191.601 47.0755C190.875 46.9948 190.148 46.672 189.745 46.0264ZM322.894 46.5913C321.845 45.9457 321.523 44.5739 322.168 43.5248C322.814 42.4757 324.185 42.153 325.234 42.7985C326.283 43.4441 326.607 44.816 325.961 45.865C325.558 46.5106 324.831 46.9141 324.024 46.9141C323.701 46.9141 323.217 46.8334 322.894 46.5913ZM203.141 38.2795C202.576 37.1498 203.06 35.8586 204.19 35.2937C205.319 34.8095 206.61 35.2131 207.175 36.3428C207.659 37.4726 207.256 38.7637 206.126 39.3286C205.804 39.49 205.48 39.5707 205.158 39.5707C204.35 39.5707 203.544 39.0865 203.141 38.2795ZM309.498 39.2479C308.369 38.683 307.885 37.3918 308.449 36.2621C309.014 35.1323 310.306 34.6481 311.436 35.2131C312.565 35.6972 313.05 37.069 312.485 38.1988C312.081 39.0058 311.274 39.49 310.467 39.49C310.144 39.4093 309.822 39.4093 309.498 39.2479ZM217.504 32.308C217.101 31.0975 217.747 29.8871 218.957 29.4836C220.167 29.0801 221.378 29.7257 221.781 30.8554C222.185 32.0659 221.54 33.2763 220.329 33.6798C220.087 33.7605 219.845 33.7605 219.602 33.7605C218.715 33.8412 217.827 33.1956 217.504 32.308ZM295.296 33.5991C294.167 33.1956 293.521 31.9852 293.843 30.7747C294.247 29.645 295.457 28.9994 296.668 29.3222C297.798 29.7257 298.443 30.9361 298.12 32.1466C297.798 33.115 296.91 33.6798 296.022 33.6798C295.78 33.7605 295.538 33.6798 295.296 33.5991ZM232.433 28.1118C232.191 26.9013 232.998 25.6909 234.209 25.5295C235.419 25.2873 236.549 26.0943 236.791 27.3048C237.033 28.5152 236.226 29.7257 235.016 29.8871C234.854 29.8871 234.693 29.9677 234.612 29.9677C233.644 29.9677 232.675 29.2415 232.433 28.1118ZM280.528 29.8871C279.318 29.645 278.511 28.5152 278.753 27.3048C278.995 26.0943 280.125 25.2873 281.336 25.5295C282.546 25.7715 283.353 26.9013 283.111 28.1118C282.95 29.1608 281.981 29.9677 280.932 29.9677C280.851 29.8871 280.69 29.8871 280.528 29.8871ZM247.847 25.9329C247.766 24.7225 248.734 23.6734 249.945 23.5928C251.155 23.512 252.285 24.4804 252.285 25.6909C252.365 26.9013 251.397 27.9504 250.186 28.031C250.106 28.031 250.106 28.031 250.025 28.031C248.896 28.031 247.927 27.0627 247.847 25.9329ZM265.438 27.9504C264.228 27.8696 263.259 26.8206 263.34 25.6101C263.421 24.3997 264.47 23.4314 265.681 23.512C266.971 23.5928 267.859 24.6418 267.779 25.8523C267.698 27.0627 266.73 27.9504 265.519 27.9504C265.519 28.031 265.519 27.9504 265.438 27.9504Z" fill="url(#paint9_linear)"/>
<path d="M257.933 265.36C322.111 265.36 374.137 213.334 374.137 149.157C374.137 84.9792 322.111 32.9532 257.933 32.9532C193.756 32.9532 141.73 84.9792 141.73 149.157C141.73 213.334 193.756 265.36 257.933 265.36Z" fill="url(#paint10_linear)"/>
<path d="M144.551 149.158C144.551 86.5368 195.309 35.7787 257.93 35.7787C320.551 35.7787 371.308 86.5368 371.308 149.158C371.308 211.778 320.551 262.536 257.93 262.536C195.309 262.536 144.551 211.778 144.551 149.158Z" fill="url(#paint11_radial)"/>
<path d="M357.672 205.161H157.867V206.372H357.672V205.161Z" fill="url(#paint12_linear)"/>
<path d="M356.625 89.9253H158.918V90.9743H356.625V89.9253Z" fill="url(#paint13_linear)"/>
<g style="mix-blend-mode:screen">
<path style="mix-blend-mode:screen" d="M208.382 251.158L257.93 149.077L205.639 249.786C206.526 250.27 207.414 250.754 208.382 251.158ZM196.923 244.703L258.011 149.077L194.341 243.089C195.148 243.573 196.036 244.138 196.923 244.703ZM257.93 262.536C258.414 262.536 258.979 262.536 259.463 262.536L257.93 149.077L256.397 262.536C256.881 262.536 257.446 262.536 257.93 262.536ZM220.567 256.242L257.93 149.077L217.663 255.193C218.631 255.516 219.599 255.919 220.567 256.242ZM186.191 236.955L257.93 148.996L183.85 234.938C184.657 235.664 185.383 236.31 186.191 236.955ZM233.237 259.873L257.93 149.077L230.251 259.147C231.3 259.389 232.268 259.631 233.237 259.873ZM246.309 261.972L258.011 149.077L243.324 261.568C244.211 261.729 245.26 261.891 246.309 261.972ZM146.488 170.3L257.93 149.077L145.923 167.314C146.084 168.282 146.246 169.251 146.488 170.3ZM149.635 183.05L257.93 149.077L148.747 180.145C149.07 181.114 149.312 182.082 149.635 183.05ZM160.448 207.097L257.93 149.077L158.915 204.434C159.399 205.323 159.884 206.21 160.448 207.097ZM167.872 218.072L258.011 149.077L166.097 215.571C166.581 216.378 167.227 217.185 167.872 218.072ZM154.315 195.397L257.93 149.077L153.105 192.572C153.509 193.541 153.912 194.428 154.315 195.397ZM285.609 259.147L257.93 149.077L282.623 259.873C283.591 259.631 284.559 259.389 285.609 259.147ZM367.112 180.145L257.93 149.077L366.225 183.05C366.548 182.082 366.79 181.114 367.112 180.145ZM362.755 192.572L257.93 149.077L361.545 195.397C361.948 194.428 362.351 193.541 362.755 192.572ZM356.945 204.434L257.93 149.077L355.412 207.097C355.977 206.21 356.461 205.323 356.945 204.434ZM371.067 157.146C371.148 156.097 371.228 155.129 371.228 154.08L257.849 148.996L371.067 157.146ZM349.843 215.571L257.93 149.077L348.069 218.072C348.633 217.185 349.278 216.378 349.843 215.571ZM369.937 167.233L257.93 148.996L369.372 170.219C369.615 169.251 369.775 168.282 369.937 167.233ZM341.532 225.82L257.93 149.077L339.434 227.998C340.16 227.272 340.886 226.545 341.532 225.82ZM298.197 255.193L257.93 149.077L295.292 256.242C296.261 255.919 297.229 255.516 298.197 255.193ZM272.617 261.568L257.93 149.077L269.631 261.972C270.599 261.891 271.648 261.729 272.617 261.568ZM144.793 157.146L257.93 148.996L144.551 154.08C144.632 155.129 144.712 156.178 144.793 157.146ZM310.222 249.786L257.93 149.077L307.478 251.158C308.446 250.754 309.333 250.27 310.222 249.786ZM321.6 243.008L257.93 148.996L319.017 244.622C319.824 244.138 320.712 243.573 321.6 243.008ZM332.009 235.019L257.93 149.077L329.67 237.036C330.476 236.31 331.283 235.664 332.009 235.019ZM176.426 227.998L257.93 149.077L174.328 225.82C175.055 226.545 175.7 227.272 176.426 227.998ZM339.434 70.0746L257.93 148.996L341.532 72.2534C340.886 71.6078 340.16 70.8815 339.434 70.0746ZM307.478 46.9146L257.93 148.996L310.222 48.2864C309.333 47.883 308.446 47.3988 307.478 46.9146ZM329.67 61.1172L257.93 149.077L332.009 63.1347C331.283 62.4891 330.476 61.7628 329.67 61.1172ZM319.017 53.3704L257.93 148.996L321.6 54.9843C320.712 54.5001 319.824 53.9353 319.017 53.3704ZM282.623 38.2801L257.93 149.077L285.609 39.0064C284.559 38.7642 283.591 38.5222 282.623 38.2801ZM295.292 41.9114L257.93 149.077L298.197 42.9605C297.229 42.557 296.261 42.2342 295.292 41.9114ZM369.453 127.853L258.011 149.077L370.018 130.839C369.775 129.871 369.615 128.822 369.453 127.853ZM269.631 36.182L257.93 149.077L272.617 36.5855C271.648 36.4241 270.599 36.2627 269.631 36.182ZM371.067 140.926L257.93 149.077L371.308 143.993C371.228 142.943 371.148 141.975 371.067 140.926ZM348.069 80.0809L258.011 149.077L349.924 82.5822C349.278 81.6948 348.633 80.8879 348.069 80.0809ZM366.225 115.022L257.93 148.996L367.112 117.928C366.79 117.04 366.548 115.991 366.225 115.022ZM355.412 90.9751L257.93 149.077L356.945 93.6381C356.461 92.7507 355.977 91.8625 355.412 90.9751ZM361.545 102.757L257.93 149.077L362.755 105.581C362.351 104.613 361.948 103.644 361.545 102.757ZM158.915 93.6381L257.93 149.077L160.448 90.9751C159.884 91.8625 159.399 92.7507 158.915 93.6381ZM174.328 72.3341L257.93 149.077L176.426 70.1553C175.7 70.8815 175.055 71.6078 174.328 72.3341ZM153.105 105.5L257.93 148.996L154.315 102.676C153.912 103.644 153.509 104.613 153.105 105.5ZM166.016 82.5022L257.93 148.996L167.872 80.0809C167.227 80.8879 166.581 81.6948 166.016 82.5022ZM144.551 143.993L257.93 149.077L144.793 140.926C144.712 141.975 144.632 142.943 144.551 143.993ZM145.923 130.839L257.93 149.077L146.488 127.853C146.246 128.822 146.084 129.871 145.923 130.839ZM148.747 118.009L257.93 149.077L149.635 115.022C149.312 115.991 149.07 117.04 148.747 118.009ZM183.85 63.1347L257.93 149.077L186.191 61.1172C185.383 61.7628 184.657 62.4891 183.85 63.1347ZM217.663 42.9605L257.93 149.077L220.567 41.9114C219.599 42.2342 218.631 42.557 217.663 42.9605ZM230.251 39.0064L257.93 149.077L233.237 38.2801C232.268 38.5222 231.3 38.7642 230.251 39.0064ZM257.93 35.5364C257.446 35.5364 256.881 35.5364 256.397 35.5364L257.93 148.996L259.463 35.5364C258.979 35.6171 258.414 35.5364 257.93 35.5364ZM243.243 36.5855L257.93 149.077L246.309 36.182C245.26 36.2627 244.211 36.4241 243.243 36.5855ZM194.341 55.065L258.011 149.077L196.923 53.3704C196.036 53.9353 195.148 54.5001 194.341 55.065ZM205.639 48.3672L257.93 149.077L208.382 46.9146C207.414 47.3988 206.526 47.883 205.639 48.3672Z" fill="url(#paint14_radial)"/>
</g>
<g style="mix-blend-mode:screen">
<path style="mix-blend-mode:screen" d="M184.496 235.503C200.07 210.002 218.631 186.197 240.015 164.812C272.778 132.05 311.109 105.903 352.749 87.1012C332.493 56.2751 297.633 35.8589 257.93 35.8589C195.309 35.8589 144.551 86.6171 144.551 149.238C144.551 183.776 160.044 214.683 184.496 235.503Z" fill="url(#paint15_radial)"/>
</g>
<path d="M264.469 63.1348L259.305 59.9875L254.06 63.1348L255.351 57.1632L250.832 53.1283L256.884 52.5635L259.224 46.9954L261.645 52.5635L267.697 53.1283L263.179 57.1632L264.469 63.1348Z" fill="url(#paint16_linear)"/>
<path d="M278.749 61.844L275.279 59.7459L271.809 61.844L272.696 57.8898L269.711 55.2269L273.665 54.8234L275.279 51.1113L276.893 54.8234L280.928 55.2269L277.861 57.8898L278.749 61.844Z" fill="url(#paint17_linear)"/>
<path d="M245.988 61.844L242.517 59.7459L239.048 61.844L239.935 57.8898L236.869 55.2269L240.904 54.8234L242.517 51.1113L244.131 54.8234L248.167 55.2269L245.1 57.8898L245.988 61.844Z" fill="url(#paint18_linear)"/>
<path d="M253.335 235.179L258.581 238.327L263.826 235.179L262.454 241.151L267.054 245.186L261.002 245.751L258.581 251.318L256.16 245.751L250.107 245.186L254.627 241.151L253.335 235.179Z" fill="url(#paint19_linear)"/>
<path d="M239.048 236.471L242.517 238.569L245.988 236.471L245.1 240.426L248.167 243.089L244.131 243.492L242.517 247.204L240.904 243.492L236.869 243.089L239.935 240.426L239.048 236.471Z" fill="url(#paint20_linear)"/>
<path d="M271.809 236.471L275.279 238.569L278.749 236.471L277.861 240.426L280.928 243.089L276.893 243.492L275.279 247.204L273.665 243.492L269.711 243.089L272.696 240.426L271.809 236.471Z" fill="url(#paint21_linear)"/>
<path d="M188.374 217.103H186.033V224.85H190.714V222.994H188.293L188.374 217.103Z" fill="url(#paint22_linear)"/>
<path d="M193.942 217.103H191.602V224.77H193.942V217.103Z" fill="url(#paint23_linear)"/>
<path d="M198.619 218.879C199.427 218.879 199.749 219.283 199.83 220.413H202.171C202.171 218.637 201.282 217.023 198.619 217.023C195.553 217.023 194.988 219.04 194.988 220.977C194.988 222.914 195.553 224.931 198.619 224.931C201.282 224.931 202.171 223.398 202.171 221.542H199.83C199.668 222.672 199.346 223.076 198.619 223.076C197.409 223.076 197.329 222.107 197.329 220.977C197.329 219.848 197.49 218.879 198.619 218.879Z" fill="url(#paint24_linear)"/>
<path d="M203.301 224.85H209.03V222.994H205.64V221.783H208.707V220.089H205.64V218.959H209.03V217.103H203.301V224.85Z" fill="url(#paint25_linear)"/>
<path d="M215.083 221.38L212.824 217.103H210.16V224.85H212.501V220.654L214.841 224.85H217.423V217.103H215.083V221.38Z" fill="url(#paint26_linear)"/>
<path d="M220.972 219.524C220.892 219.12 221.053 218.798 221.86 218.798C222.667 218.798 222.909 219.12 222.909 219.847H225.169C225.169 218.314 224.362 217.103 221.86 217.103C219.358 217.103 218.632 218.314 218.632 219.685C218.713 222.348 222.99 221.461 222.99 222.591C222.99 222.832 222.828 223.317 222.022 223.317C221.134 223.317 220.811 222.913 220.811 222.107H218.471C218.471 223.962 219.439 225.092 222.022 225.092C224.523 225.092 225.25 223.721 225.25 222.591C225.25 219.605 221.134 220.493 220.972 219.524Z" fill="url(#paint27_linear)"/>
<path d="M226.301 224.85H232.03V222.994H228.56V221.783H231.627V220.089H228.56V218.959H232.03V217.103H226.301V224.85Z" fill="url(#paint28_linear)"/>
<path d="M236.224 217.103H233.158V224.77H236.144C238.646 224.77 239.936 223.156 239.936 220.896C239.856 218.636 238.646 217.103 236.224 217.103ZM235.821 222.994H235.418V218.959H235.821C236.951 218.959 237.516 219.201 237.516 220.896C237.597 222.752 236.87 222.994 235.821 222.994Z" fill="url(#paint29_linear)"/>
<path d="M248.411 222.348L247.038 217.103H243.73V224.85H245.989V220.17L247.362 224.85H249.46L250.831 220.17V224.85H253.091V217.103H249.782L248.411 222.348Z" fill="url(#paint30_linear)"/>
<path d="M257.935 217.023C254.788 217.023 254.223 219.04 254.223 220.977C254.223 222.914 254.788 224.931 257.935 224.931C261.082 224.931 261.647 222.914 261.647 220.977C261.727 219.04 261.082 217.023 257.935 217.023ZM257.935 223.076C256.644 223.076 256.563 222.107 256.563 220.977C256.563 219.848 256.644 218.879 257.935 218.879C259.226 218.879 259.307 219.848 259.307 220.977C259.387 222.107 259.307 223.076 257.935 223.076Z" fill="url(#paint31_linear)"/>
<path d="M267.776 221.38L265.516 217.103H262.854V224.85H265.194V220.654L267.534 224.85H270.117V217.103H267.776V221.38Z" fill="url(#paint32_linear)"/>
<path d="M271.572 224.85H277.301V222.994H273.832V221.783H276.898V220.089H273.832V218.959H277.301V217.103H271.572V224.85Z" fill="url(#paint33_linear)"/>
<path d="M281.579 220.25L280.287 217.103H277.705L280.368 222.429V224.85H282.709V222.429L285.613 217.103H282.95L281.579 220.25Z" fill="url(#paint34_linear)"/>
<path d="M288.6 217.103H286.34V224.85H291.021V222.994H288.6V217.103Z" fill="url(#paint35_linear)"/>
<path d="M291.908 224.85H297.637V222.994H294.168V221.783H297.234V220.089H294.168V218.959H297.637V217.103H291.908V224.85Z" fill="url(#paint36_linear)"/>
<path d="M303.686 221.38L301.427 217.103H298.764V224.85H301.104V220.654L303.445 224.85H306.027V217.103H303.686V221.38Z" fill="url(#paint37_linear)"/>
<path d="M310.547 217.103H307.48V224.77H310.466C312.968 224.77 314.259 223.156 314.259 220.896C314.178 218.636 313.049 217.103 310.547 217.103ZM310.143 222.994H309.74V218.959H310.143C311.273 218.959 311.838 219.201 311.838 220.896C311.919 222.752 311.273 222.994 310.143 222.994Z" fill="url(#paint38_linear)"/>
<path d="M315.309 224.85H321.039V222.994H317.649V221.783H320.715V220.089H317.649V218.959H321.039V217.103H315.309V224.85Z" fill="url(#paint39_linear)"/>
<path d="M326.848 222.026C327.978 221.783 328.462 220.896 328.462 219.847C328.462 218.717 328.22 217.103 325.153 217.103H322.168V224.77H324.508V221.945L326.202 224.77H329.108L326.848 222.026ZM325.073 220.654H324.508V218.959H325.153C325.961 218.959 326.202 219.282 326.202 219.847C326.122 220.331 325.961 220.654 325.073 220.654Z" fill="url(#paint40_linear)"/>
<path d="M192.568 142.621C192.407 142.621 192.246 142.702 192.084 142.782C192.003 142.863 191.922 143.025 191.922 143.186V153.031C191.922 153.435 191.842 153.757 191.6 153.919C191.357 154.081 191.035 154.161 190.632 154.161H184.176C183.773 154.161 183.53 154.081 183.369 153.919C183.208 153.757 183.127 153.516 183.127 153.192V126.24C183.127 125.917 183.208 125.756 183.288 125.594C183.449 125.433 183.611 125.352 183.853 125.352H191.197C191.438 125.352 191.6 125.433 191.681 125.594C191.842 125.756 191.842 125.917 191.842 126.159V135.198C191.842 135.682 192.084 136.004 192.568 136.004H199.105C199.589 136.004 199.831 135.762 199.831 135.198V126.159C199.831 125.917 199.912 125.675 199.992 125.594C200.154 125.433 200.315 125.352 200.477 125.352H207.901C208.142 125.352 208.304 125.433 208.466 125.594C208.627 125.756 208.627 125.998 208.627 126.24V153.192C208.627 153.516 208.547 153.757 208.385 153.919C208.223 154.081 207.982 154.161 207.578 154.161H201.122C200.719 154.161 200.396 154.081 200.154 153.919C199.912 153.757 199.831 153.435 199.831 153.031V143.186C199.831 143.025 199.75 142.863 199.67 142.782C199.589 142.702 199.427 142.621 199.185 142.621H192.568Z" fill="url(#paint41_linear)"/>
<path d="M220.894 125.351C221.379 125.351 221.62 125.594 221.62 126.159V153.03C221.62 153.434 221.54 153.756 221.298 153.918C221.056 154.079 220.733 154.16 220.329 154.16H213.873C213.47 154.16 213.228 154.079 213.067 153.918C212.905 153.756 212.824 153.515 212.824 153.191V126.239C212.824 125.916 212.905 125.754 212.986 125.594C213.147 125.432 213.308 125.351 213.551 125.351H220.894Z" fill="url(#paint42_linear)"/>
<path d="M231.223 152.708C229.125 151.498 227.591 149.723 226.462 147.544C225.333 145.365 224.768 142.783 224.768 139.877C224.768 136.892 225.333 134.309 226.542 132.05C227.753 129.791 229.367 128.015 231.546 126.804C233.725 125.594 236.146 124.949 238.889 124.949C241.149 124.949 243.086 125.352 244.86 126.159C246.636 126.966 248.008 128.015 249.057 129.306C250.106 130.597 250.832 131.969 251.155 133.422C251.236 133.745 251.236 133.987 251.236 134.148C251.236 134.39 251.155 134.551 251.075 134.632C250.994 134.713 250.832 134.794 250.59 134.794L243.973 135.843C243.651 135.843 243.489 135.762 243.408 135.681C243.327 135.601 243.247 135.359 243.167 135.036C242.924 133.825 242.44 132.857 241.713 132.131C240.988 131.404 239.939 131.001 238.647 131.001C237.114 131.001 235.984 131.646 235.177 132.938C234.37 134.229 233.967 136.488 233.967 139.636C233.967 142.944 234.37 145.284 235.258 146.576C236.146 147.866 237.356 148.512 238.97 148.512C241.068 148.512 242.44 147.625 243.167 145.768L243.247 145.446L243.327 145.122C243.327 144.881 243.167 144.8 242.924 144.8H239.293C238.97 144.8 238.809 144.719 238.728 144.638C238.647 144.478 238.566 144.316 238.566 143.993V140.281C238.566 139.877 238.809 139.636 239.374 139.636L250.267 139.716C250.751 139.716 251.075 139.797 251.316 140.039C251.559 140.281 251.72 140.523 251.72 140.926V153.596C251.72 153.757 251.639 153.919 251.559 154.08C251.397 154.241 251.236 154.241 251.075 154.241H249.622C249.137 154.241 248.734 153.999 248.412 153.515L246.879 151.256C246.879 151.175 246.798 151.175 246.717 151.175C246.636 151.175 246.555 151.256 246.474 151.337C245.83 151.982 245.184 152.547 244.538 152.95C243.892 153.354 243.086 153.757 242.118 154.08C241.068 154.403 239.939 154.564 238.486 154.564C235.661 154.564 233.321 153.919 231.223 152.708Z" fill="url(#paint43_linear)"/>
<path d="M264.631 142.62C264.47 142.62 264.308 142.701 264.147 142.782C264.066 142.863 263.986 143.024 263.986 143.185V153.03C263.986 153.434 263.905 153.756 263.663 153.918C263.421 154.079 263.098 154.16 262.694 154.16H256.238C255.835 154.16 255.594 154.079 255.432 153.918C255.27 153.756 255.189 153.515 255.189 153.191V126.239C255.189 125.916 255.27 125.754 255.351 125.594C255.513 125.432 255.674 125.351 255.916 125.351H263.259C263.502 125.351 263.663 125.432 263.743 125.594C263.905 125.754 263.905 125.916 263.905 126.159V135.196C263.905 135.681 264.147 136.003 264.631 136.003H271.168C271.652 136.003 271.894 135.761 271.894 135.196V126.159C271.894 125.916 271.974 125.674 272.055 125.594C272.217 125.432 272.378 125.351 272.539 125.351H279.963C280.206 125.351 280.367 125.432 280.528 125.594C280.69 125.754 280.69 125.997 280.69 126.239V153.191C280.69 153.515 280.609 153.756 280.447 153.918C280.287 154.079 280.044 154.16 279.641 154.16H273.185C272.782 154.16 272.459 154.079 272.217 153.918C271.974 153.756 271.894 153.434 271.894 153.03V143.185C271.894 143.024 271.813 142.863 271.733 142.782C271.652 142.701 271.49 142.62 271.248 142.62H264.631Z" fill="url(#paint44_linear)"/>
<path d="M284.966 125.594C285.127 125.432 285.289 125.351 285.53 125.351H292.874C293.358 125.351 293.601 125.594 293.601 126.159V147.301C293.601 147.543 293.6 147.624 293.681 147.705C293.762 147.785 293.843 147.785 294.085 147.785H305.786C306.351 147.785 306.673 148.027 306.673 148.511V153.272C306.673 153.515 306.592 153.756 306.432 153.918C306.27 154.079 306.027 154.16 305.705 154.16H285.854C285.45 154.16 285.208 154.079 285.046 153.918C284.886 153.756 284.805 153.515 284.805 153.191V126.239C284.805 125.916 284.886 125.674 284.966 125.594Z" fill="url(#paint45_linear)"/>
<path d="M331.932 125.754C331.932 125.835 331.852 125.997 331.771 126.158L322.652 140.845C322.49 141.087 322.329 141.41 322.329 141.733C322.329 142.055 322.248 142.62 322.248 143.428V152.95C322.248 153.353 322.167 153.676 321.926 153.837C321.683 153.999 321.361 154.079 320.957 154.079H314.421C314.018 154.079 313.775 153.999 313.613 153.837C313.453 153.676 313.372 153.434 313.372 153.111V142.863C313.372 142.539 313.372 142.217 313.291 141.974C313.21 141.733 313.049 141.49 312.888 141.168L303.769 126.319C303.688 126.158 303.607 125.997 303.607 125.835C303.607 125.432 303.93 125.27 304.495 125.27H312.323C312.645 125.27 312.969 125.351 313.129 125.432C313.291 125.513 313.453 125.754 313.613 126.078L318.375 134.712C318.536 134.954 318.617 135.115 318.698 135.115C318.859 135.115 318.939 135.035 319.02 134.793L323.701 126.158C323.862 125.835 324.024 125.594 324.185 125.513C324.346 125.432 324.669 125.351 324.992 125.351H331.125C331.69 125.351 331.932 125.513 331.932 125.754Z" fill="url(#paint46_linear)"/>
<path d="M215.166 191.2C215.166 191.442 215.085 191.603 214.925 191.765C214.763 191.926 214.601 192.006 214.36 192.006H206.855C206.29 192.006 205.967 191.765 205.805 191.2L202.174 181.194C202.093 180.951 201.932 180.87 201.771 180.709C201.609 180.629 201.287 180.548 200.963 180.548H199.188C199.027 180.548 198.946 180.629 198.865 180.709C198.785 180.789 198.784 180.87 198.784 180.951V190.877C198.784 191.28 198.704 191.603 198.462 191.765C198.22 191.926 197.897 192.006 197.494 192.006H190.957C190.554 192.006 190.311 191.926 190.151 191.765C189.989 191.603 189.908 191.361 189.908 191.038V164.085C189.908 163.52 190.151 163.198 190.635 163.198H203.627C207.419 163.198 210.324 163.924 212.342 165.377C214.36 166.829 215.489 168.846 215.489 171.429C215.489 173.204 215.005 174.818 214.036 176.19C213.068 177.562 211.857 178.611 210.324 179.176C210.163 179.256 210.083 179.418 210.083 179.58C210.083 179.66 210.083 179.74 210.163 179.902L215.085 190.796C215.166 190.877 215.166 191.038 215.166 191.2ZM205.563 174.011C206.128 173.527 206.37 172.801 206.37 171.994C206.37 171.025 206.048 170.299 205.402 169.734C204.756 169.169 203.949 168.927 203.062 168.927H199.673C199.349 168.927 199.108 169.008 198.946 169.089C198.784 169.17 198.784 169.411 198.784 169.654V173.93C198.784 174.253 198.865 174.415 198.946 174.576C199.027 174.738 199.188 174.738 199.511 174.738H203.385C204.272 174.818 204.998 174.576 205.563 174.011Z" fill="url(#paint47_linear)"/>
<path d="M217.747 191.847C217.586 191.685 217.586 191.523 217.586 191.282C217.586 191.12 217.586 190.878 217.666 190.636L227.108 164.167C227.27 163.845 227.35 163.602 227.511 163.441C227.673 163.28 227.914 163.28 228.238 163.28H235.904C236.227 163.28 236.468 163.361 236.711 163.602C236.953 163.764 237.114 164.086 237.276 164.329L246.637 190.798C246.717 191.039 246.717 191.12 246.717 191.282C246.717 191.523 246.637 191.685 246.556 191.847C246.475 192.007 246.313 192.088 246.072 192.088H238.486C238.082 192.088 237.76 191.847 237.598 191.442L236.065 187.005C235.984 186.843 235.904 186.682 235.823 186.601C235.742 186.521 235.662 186.521 235.419 186.521H227.189C226.865 186.521 226.705 186.681 226.624 186.924L225.01 191.523C224.848 191.927 224.526 192.088 224.042 192.088H218.15C218.07 192.088 217.908 192.007 217.747 191.847ZM233.564 179.822C233.886 179.822 233.967 179.661 233.967 179.419C233.967 179.338 233.967 179.258 233.886 179.015L231.546 172.399C231.466 172.237 231.385 172.237 231.304 172.237C231.223 172.237 231.142 172.318 231.062 172.399L228.722 179.015C228.641 179.096 228.641 179.258 228.641 179.419C228.641 179.742 228.803 179.822 229.125 179.822H233.564Z" fill="url(#paint48_linear)"/>
<path d="M244.053 164.085C244.053 163.844 244.134 163.601 244.295 163.44C244.457 163.279 244.698 163.198 245.022 163.198H268.262C268.585 163.198 268.827 163.279 268.988 163.44C269.15 163.601 269.231 163.844 269.231 164.085V168.685C269.231 169.17 268.907 169.411 268.343 169.411H261.484C261.161 169.411 260.999 169.573 260.999 169.815V191.119C260.999 191.441 260.919 191.603 260.838 191.765C260.677 191.926 260.515 192.006 260.273 192.006H252.93C252.446 192.006 252.203 191.765 252.203 191.2V169.976C252.203 169.654 252.042 169.411 251.8 169.411H244.941C244.376 169.411 244.053 169.17 244.053 168.685V164.085Z" fill="url(#paint49_linear)"/>
<path d="M273.105 163.198H294.087C294.571 163.198 294.812 163.44 294.812 164.004V168.524C294.812 169.25 294.49 169.573 293.763 169.573H282.143C281.578 169.573 281.255 169.815 281.255 170.299V173.608C281.255 173.85 281.336 174.092 281.417 174.172C281.578 174.334 281.739 174.415 281.901 174.415H288.921C289.486 174.415 289.729 174.657 289.729 175.222V180.064C289.729 180.467 289.486 180.709 289.002 180.709H281.82C281.659 180.709 281.498 180.789 281.336 180.87C281.255 180.951 281.175 181.113 281.175 181.274V185.147C281.175 185.39 281.175 185.47 281.255 185.55C281.336 185.631 281.417 185.631 281.659 185.631H294.328C294.893 185.631 295.216 185.874 295.216 186.358V191.119C295.216 191.361 295.136 191.603 294.974 191.765C294.812 191.926 294.571 192.006 294.247 192.006H273.428C273.025 192.006 272.782 191.926 272.621 191.765C272.46 191.603 272.379 191.361 272.379 191.038V164.085C272.379 163.52 272.621 163.198 273.105 163.198Z" fill="url(#paint50_linear)"/>
<path d="M304.091 163.198C307.157 163.198 309.095 163.198 309.82 163.198C314.905 163.36 318.697 164.731 321.28 167.313C323.862 169.895 325.153 173.285 325.153 177.481C325.153 180.305 324.588 182.807 323.378 184.986C322.248 187.164 320.472 188.859 318.133 190.07C315.792 191.28 313.048 191.926 309.66 191.926H299.411C299.007 191.926 298.765 191.845 298.523 191.684C298.361 191.522 298.281 191.2 298.281 190.796V164.085C298.281 163.763 298.361 163.44 298.523 163.36C298.685 163.198 298.926 163.117 299.33 163.117H304.091V163.198ZM307.319 169.411C307.238 169.492 307.238 169.654 307.238 169.815V185.309C307.238 185.55 307.238 185.712 307.319 185.793C307.4 185.874 307.561 185.874 307.722 185.874H307.965C310.547 185.874 312.483 185.228 313.775 183.856C315.065 182.484 315.792 180.386 315.792 177.32C315.792 174.737 315.308 172.801 314.259 171.509C313.21 170.219 311.758 169.492 309.82 169.33L307.481 169.17C307.481 169.33 307.4 169.33 307.319 169.411Z" fill="url(#paint51_linear)"/>
<path d="M226.057 112.36V101.95H229.042V110.02H233.077V112.36H226.057Z" fill="url(#paint52_linear)"/>
<path d="M237.757 112.521C235.175 112.521 233.48 110.745 233.48 108.486C233.48 105.903 235.256 104.209 238.08 104.209C240.663 104.209 242.357 105.984 242.357 108.244C242.357 110.826 240.582 112.521 237.757 112.521ZM237.919 106.065C236.95 106.065 236.305 107.033 236.305 108.325C236.305 109.615 236.95 110.664 238 110.664C238.968 110.664 239.614 109.696 239.614 108.406C239.533 107.114 238.968 106.065 237.919 106.065Z" fill="url(#paint53_linear)"/>
<path d="M251.071 112.359C250.668 112.44 250.103 112.521 249.699 112.521C248.731 112.521 248.247 112.198 248.005 111.472H247.924C247.44 112.037 246.472 112.521 245.342 112.521C243.97 112.521 243.082 111.553 243.082 110.423C243.082 109.051 244.131 107.598 247.843 107.357V106.872C247.843 106.388 247.44 105.984 246.875 105.984C245.987 105.984 244.777 106.388 243.809 107.033L243.647 105.339C244.858 104.613 246.229 104.209 247.763 104.209C249.296 104.209 250.506 104.935 250.506 106.549C250.506 106.872 250.426 109.535 250.426 109.777C250.426 110.423 250.668 110.664 251.313 110.664L251.071 112.359ZM247.763 108.728C245.987 108.89 245.503 109.455 245.503 110.02C245.503 110.504 245.907 110.826 246.552 110.826C247.036 110.826 247.521 110.584 247.843 110.342V108.728H247.763Z" fill="url(#paint54_linear)"/>
<path d="M257.69 112.359V107.84C257.69 106.791 257.206 106.306 256.399 106.306C255.995 106.306 255.511 106.468 255.188 106.63V112.359H252.525V104.451L255.188 104.208L255.108 105.5H255.188C255.753 104.773 256.721 104.127 257.851 104.127C259.223 104.127 260.433 105.016 260.433 107.033V112.278H257.69V112.359Z" fill="url(#paint55_linear)"/>
<path d="M265.276 112.521C263.904 112.521 262.613 112.198 261.645 111.633L262.048 109.455C263.017 110.02 264.307 110.342 265.356 110.342C266.083 110.342 266.648 109.939 266.648 109.455C266.648 108.89 266.164 108.486 264.792 108.001C263.178 107.437 261.887 106.63 261.887 104.935C261.887 102.999 263.743 101.707 266.083 101.707C267.294 101.707 268.584 102.03 269.473 102.434L269.23 104.532C268.262 104.129 267.051 103.805 266.083 103.805C265.437 103.805 264.953 104.129 264.953 104.613C264.953 105.178 265.356 105.419 266.809 105.903C268.423 106.468 269.714 107.357 269.714 109.05C269.795 111.229 267.859 112.521 265.276 112.521Z" fill="url(#paint56_linear)"/>
<path d="M273.83 112.521C272.297 112.521 271.329 111.633 271.329 110.18C271.329 109.696 271.329 107.921 271.329 106.872V106.146H270.521V105.097L273.749 102.434H273.992V104.37H276.493V106.146H273.992C273.992 106.388 273.992 108.406 273.992 109.212C273.992 110.1 274.476 110.423 275.202 110.423C275.606 110.423 276.09 110.342 276.574 110.261V112.037C275.767 112.359 274.879 112.521 273.83 112.521Z" fill="url(#paint57_linear)"/>
<path d="M283.191 107.115C282.707 106.872 282.223 106.711 281.658 106.711C281.174 106.711 280.77 106.872 280.528 107.115V112.441H277.865V104.532L280.447 104.371L280.367 106.066H280.447C280.851 105.017 281.739 104.371 282.626 104.371C282.949 104.371 283.434 104.452 283.675 104.613L283.191 107.115Z" fill="url(#paint58_linear)"/>
<path d="M291.826 108.808H286.581C286.662 109.857 287.549 110.584 288.84 110.584C289.809 110.584 290.696 110.422 291.664 110.099L291.584 111.794C290.455 112.198 289.405 112.44 288.033 112.44C285.451 112.44 283.918 110.906 283.918 108.485C283.918 105.903 285.613 104.127 288.276 104.127C290.858 104.127 291.907 105.822 291.907 107.517C291.907 108.001 291.907 108.566 291.826 108.808ZM288.114 105.741C287.226 105.741 286.742 106.549 286.581 107.436H289.486C289.486 106.549 289.001 105.741 288.114 105.741Z" fill="url(#paint59_linear)"/>
<path d="M300.701 108.808H295.456C295.537 109.857 296.424 110.584 297.716 110.584C298.684 110.584 299.571 110.422 300.54 110.099L300.459 111.794C299.33 112.198 298.281 112.44 296.908 112.44C294.326 112.44 292.793 110.906 292.793 108.485C292.793 105.903 294.488 104.127 297.151 104.127C299.733 104.127 300.782 105.822 300.782 107.517C300.782 108.001 300.701 108.566 300.701 108.808ZM296.908 105.741C296.021 105.741 295.537 106.549 295.375 107.436H298.281C298.281 106.549 297.796 105.741 296.908 105.741Z" fill="url(#paint60_linear)"/>
<path d="M304.818 112.521C303.285 112.521 302.316 111.633 302.316 110.18C302.316 109.696 302.316 107.921 302.316 106.872V106.146H301.51V105.097L304.738 102.434H304.979V104.37H307.481V106.146H304.979C304.979 106.388 304.979 108.406 304.979 109.212C304.979 110.1 305.463 110.423 306.19 110.423C306.593 110.423 307.077 110.342 307.562 110.261V112.037C306.755 112.359 305.867 112.521 304.818 112.521Z" fill="url(#paint61_linear)"/>
<path d="M215.406 111.553H208.063C207.74 111.553 207.498 111.31 207.498 110.988C207.498 110.665 207.74 110.423 208.063 110.423H215.083L220.732 103.402C220.894 103.16 221.297 103.079 221.539 103.321C221.781 103.483 221.862 103.886 221.619 104.128L215.729 111.391C215.809 111.472 215.568 111.553 215.406 111.553Z" fill="url(#paint62_linear)"/>
<path d="M216.213 113.732H208.063C207.74 113.732 207.498 113.489 207.498 113.167C207.498 112.843 207.74 112.602 208.063 112.602H215.89L221.539 105.581C221.7 105.339 222.103 105.258 222.346 105.5C222.588 105.662 222.668 106.065 222.427 106.307L216.536 113.57C216.617 113.651 216.374 113.732 216.213 113.732Z" fill="url(#paint63_linear)"/>
<path d="M221.215 101.143C221.134 100.981 220.892 100.82 220.73 100.82L214.436 100.658C214.275 100.658 214.113 100.739 213.951 100.9L207.657 108.325C207.496 108.486 207.496 108.728 207.577 108.97C207.657 109.131 207.9 109.293 208.141 109.293H214.84C215.001 109.293 215.162 109.212 215.324 109.051L221.215 101.788C221.215 101.546 221.295 101.304 221.215 101.143ZM216.615 104.128C216.292 103.967 215.808 103.805 215.405 103.725C215.162 103.644 214.84 103.725 214.759 103.886C214.597 104.048 214.759 104.128 215.324 104.37C215.969 104.613 216.292 105.016 215.969 105.419C215.646 105.904 214.84 106.146 213.951 106.146L213.548 106.711L212.661 106.549L213.064 106.065C212.58 105.984 212.177 105.823 211.934 105.581L212.58 105.016C212.902 105.258 213.387 105.419 213.871 105.5C214.194 105.581 214.516 105.5 214.597 105.339C214.759 105.178 214.597 105.016 214.032 104.774C213.467 104.532 212.983 104.209 213.387 103.725C213.71 103.241 214.516 102.999 215.405 103.079L215.808 102.514L216.695 102.676L216.292 103.241C216.695 103.321 217.018 103.483 217.26 103.564L216.615 104.128Z" fill="url(#paint64_linear)"/>
<path d="M238.971 79.7584C238.971 75.3201 244.539 76.0463 244.781 74.271C244.942 73.222 244.297 72.8992 243.57 72.8992C242.763 72.8992 242.279 73.222 242.279 74.7552H238.971C238.971 72.0922 240.101 70.3169 243.57 70.3169C247.121 70.3169 248.332 72.1729 248.17 74.271C247.928 77.741 242.279 77.741 242.279 79.1935V79.4356H248.17V82.1789H238.971V79.7584Z" fill="url(#paint65_linear)"/>
<path d="M249.541 76.2885C249.541 73.1413 250.348 70.2362 254.624 70.2362C258.901 70.2362 259.709 73.0605 259.709 76.2885C259.709 79.4356 258.901 82.3407 254.624 82.3407C250.267 82.3407 249.541 79.5163 249.541 76.2885ZM256.158 76.2885C256.158 74.4324 256.238 73.0605 254.624 73.0605C253.091 73.0605 253.091 74.4324 253.091 76.2885C253.091 78.2252 253.091 79.5164 254.624 79.5164C256.238 79.5164 256.158 78.2252 256.158 76.2885Z" fill="url(#paint66_linear)"/>
<path d="M260.916 79.7576C260.916 75.3193 266.484 76.0455 266.727 74.2702C266.888 73.2211 266.242 72.8984 265.516 72.8984C264.709 72.8984 264.225 73.2211 264.225 74.7544H260.916C260.916 72.0914 262.046 70.316 265.516 70.316C269.066 70.316 270.277 72.1721 270.115 74.2702C269.874 77.7402 264.225 77.7402 264.225 79.1927V79.4348H270.115V82.1782H260.836V79.7576H260.916Z" fill="url(#paint67_linear)"/>
<path d="M272.539 73.2217H270.521V71.1236L273.024 70.478H276.009V82.1788H272.539V73.2217Z" fill="url(#paint68_linear)"/>
</g>
<defs>
<filter id="filter0_d" x="0.439453" y="0.432983" width="514.181" height="327.529" filterUnits="userSpaceOnUse" color-interpolation-filters="sRGB">
<feFlood flood-opacity="0" result="BackgroundImageFix"/>
<feColorMatrix in="SourceAlpha" type="matrix" values="0 0 0 0 0 0 0 0 0 0 0 0 0 0 0 0 0 0 127 0"/>
<feOffset dy="15"/>
<feGaussianBlur stdDeviation="7.5"/>
<feColorMatrix type="matrix" values="0 0 0 0 0 0 0 0 0 0 0 0 0 0 0 0 0 0 0.25 0"/>
<feBlend mode="normal" in2="BackgroundImageFix" result="effect1_dropShadow"/>
<feBlend mode="normal" in="SourceGraphic" in2="effect1_dropShadow" result="shape"/>
</filter>
<linearGradient id="paint0_linear" x1="501.294" y1="247.048" x2="370.743" y2="247.048" gradientUnits="userSpaceOnUse">
<stop stop-color="#EEBD47"/>
<stop offset="0.1194" stop-color="#F8DA76"/>
<stop offset="0.2097" stop-color="#FFED95"/>
<stop offset="0.4462" stop-color="#A1621E"/>
<stop offset="0.6667" stop-color="#EEA54B"/>
<stop offset="1" stop-color="#EEBD47"/>
</linearGradient>
<linearGradient id="paint1_linear" x1="412.584" y1="202.426" x2="452.275" y2="202.426" gradientUnits="userSpaceOnUse">
<stop stop-color="#793911"/>
<stop offset="0.0270246" stop-color="#793E16"/>
<stop offset="0.2097" stop-color="#795A35"/>
<stop offset="0.4462" stop-color="#50180C"/>
<stop offset="0.6667" stop-color="#782A0F"/>
<stop offset="1" stop-color="#793911"/>
</linearGradient>
<linearGradient id="paint2_linear" x1="29.1598" y1="247.046" x2="153.206" y2="247.046" gradientUnits="userSpaceOnUse">
<stop stop-color="#EEBD47"/>
<stop offset="0.1194" stop-color="#F8DA76"/>
<stop offset="0.2097" stop-color="#FFED95"/>
<stop offset="0.4462" stop-color="#A1621E"/>
<stop offset="0.6667" stop-color="#EEA54B"/>
<stop offset="1" stop-color="#EEBD47"/>
</linearGradient>
<linearGradient id="paint3_linear" x1="62.7866" y1="202.426" x2="102.475" y2="202.426" gradientUnits="userSpaceOnUse">
<stop stop-color="#793911"/>
<stop offset="0.0270246" stop-color="#793E16"/>
<stop offset="0.2097" stop-color="#795A35"/>
<stop offset="0.4462" stop-color="#50180C"/>
<stop offset="0.6667" stop-color="#782A0F"/>
<stop offset="1" stop-color="#793911"/>
</linearGradient>
<linearGradient id="paint4_linear" x1="54.7314" y1="171.155" x2="184.114" y2="171.155" gradientUnits="userSpaceOnUse">
<stop stop-color="#EEBD47"/>
<stop offset="0.1194" stop-color="#F8DA76"/>
<stop offset="0.2097" stop-color="#FFED95"/>
<stop offset="0.4462" stop-color="#A1621E"/>
<stop offset="0.6667" stop-color="#EEA54B"/>
<stop offset="1" stop-color="#EEBD47"/>
</linearGradient>
<linearGradient id="paint5_linear" x1="448.836" y1="173.613" x2="339.952" y2="173.613" gradientUnits="userSpaceOnUse">
<stop stop-color="#EEBD47"/>
<stop offset="0.1194" stop-color="#F8DA76"/>
<stop offset="0.2097" stop-color="#FFED95"/>
<stop offset="0.4462" stop-color="#A1621E"/>
<stop offset="0.6667" stop-color="#EEA54B"/>
<stop offset="1" stop-color="#EEBD47"/>
</linearGradient>
<linearGradient id="paint6_linear" x1="160.204" y1="51.4573" x2="368.757" y2="260.01" gradientUnits="userSpaceOnUse">
<stop stop-color="#EEBD47"/>
<stop offset="0.1194" stop-color="#F8DA76"/>
<stop offset="0.2097" stop-color="#FFED95"/>
<stop offset="0.4462" stop-color="#A1621E"/>
<stop offset="0.6667" stop-color="#EEA54B"/>
<stop offset="1" stop-color="#EEBD47"/>
</linearGradient>
<linearGradient id="paint7_linear" x1="180.051" y1="71.3031" x2="353.058" y2="244.309" gradientUnits="userSpaceOnUse">
<stop stop-color="#EEBD47"/>
<stop offset="0.1194" stop-color="#F8DA76"/>
<stop offset="0.2097" stop-color="#FFED95"/>
<stop offset="0.4462" stop-color="#A1621E"/>
<stop offset="0.6667" stop-color="#EEA54B"/>
<stop offset="1" stop-color="#EEBD47"/>
</linearGradient>
<radialGradient id="paint8_radial" cx="0" cy="0" r="1" gradientUnits="userSpaceOnUse" gradientTransform="translate(81.4927 5.33444) scale(241.207)">
<stop stop-color="#998573"/>
<stop offset="0.4892" stop-color="#4D3725"/>
<stop offset="1" stop-color="#0A0D13"/>
</radialGradient>
<linearGradient id="paint9_linear" x1="161.132" y1="52.3903" x2="361.622" y2="252.88" gradientUnits="userSpaceOnUse">
<stop stop-color="#EEBD47"/>
<stop offset="0.1194" stop-color="#F8DA76"/>
<stop offset="0.2097" stop-color="#FFED95"/>
<stop offset="0.4462" stop-color="#A1621E"/>
<stop offset="0.6667" stop-color="#EEA54B"/>
<stop offset="1" stop-color="#EEBD47"/>
</linearGradient>
<linearGradient id="paint10_linear" x1="177.88" y1="69.1282" x2="337.335" y2="228.583" gradientUnits="userSpaceOnUse">
<stop stop-color="#EEBD47"/>
<stop offset="0.1194" stop-color="#F8DA76"/>
<stop offset="0.2097" stop-color="#FFED95"/>
<stop offset="0.4462" stop-color="#A1621E"/>
<stop offset="0.6667" stop-color="#EEA54B"/>
<stop offset="1" stop-color="#EEBD47"/>
</linearGradient>
<radialGradient id="paint11_radial" cx="0" cy="0" r="1" gradientUnits="userSpaceOnUse" gradientTransform="translate(81.4892 5.3359) scale(241.208)">
<stop stop-color="#998573"/>
<stop offset="0.4892" stop-color="#4D3725"/>
<stop offset="1" stop-color="#0A0D13"/>
</radialGradient>
<linearGradient id="paint12_linear" x1="162.806" y1="147.124" x2="425.474" y2="309.3" gradientUnits="userSpaceOnUse">
<stop stop-color="#EEBD47"/>
<stop offset="0.1194" stop-color="#F8DA76"/>
<stop offset="0.2097" stop-color="#FFED95"/>
<stop offset="0.4462" stop-color="#A1621E"/>
<stop offset="0.6667" stop-color="#EEA54B"/>
<stop offset="1" stop-color="#EEBD47"/>
</linearGradient>
<linearGradient id="paint13_linear" x1="163.858" y1="32.4377" x2="423.638" y2="192.832" gradientUnits="userSpaceOnUse">
<stop stop-color="#EEBD47"/>
<stop offset="0.1194" stop-color="#F8DA76"/>
<stop offset="0.2097" stop-color="#FFED95"/>
<stop offset="0.4462" stop-color="#A1621E"/>
<stop offset="0.6667" stop-color="#EEA54B"/>
<stop offset="1" stop-color="#EEBD47"/>
</linearGradient>
<radialGradient id="paint14_radial" cx="0" cy="0" r="1" gradientUnits="userSpaceOnUse" gradientTransform="translate(194.373 -4.98692) scale(236.32)">
<stop stop-color="#FFF0D0"/>
<stop offset="0.0537634" stop-color="#FCC74D"/>
<stop offset="0.1398" stop-color="#A1621E"/>
<stop offset="0.1614" stop-color="#965B1C"/>
<stop offset="0.2483" stop-color="#6E4315"/>
<stop offset="0.3412" stop-color="#4C2E0E"/>
<stop offset="0.4395" stop-color="#301D09"/>
<stop offset="0.5452" stop-color="#1B1005"/>
<stop offset="0.6618" stop-color="#0C0702"/>
<stop offset="0.7979" stop-color="#030201"/>
<stop offset="1"/>
</radialGradient>
<radialGradient id="paint15_radial" cx="0" cy="0" r="1" gradientUnits="userSpaceOnUse" gradientTransform="translate(254.118 -48.8092) scale(321.592)">
<stop stop-color="#FCC74D"/>
<stop offset="0.1398" stop-color="#A1621E"/>
<stop offset="0.1614" stop-color="#965B1C"/>
<stop offset="0.2483" stop-color="#6E4315"/>
<stop offset="0.3412" stop-color="#4C2E0E"/>
<stop offset="0.4395" stop-color="#301D09"/>
<stop offset="0.5452" stop-color="#1B1005"/>
<stop offset="0.6618" stop-color="#0C0702"/>
<stop offset="0.7979" stop-color="#030201"/>
<stop offset="1"/>
</radialGradient>
<linearGradient id="paint16_linear" x1="245.275" y1="43.292" x2="344.815" y2="137.892" gradientUnits="userSpaceOnUse">
<stop stop-color="#EEBD47"/>
<stop offset="0.1194" stop-color="#F8DA76"/>
<stop offset="0.2097" stop-color="#FFED95"/>
<stop offset="0.4462" stop-color="#A1621E"/>
<stop offset="0.6667" stop-color="#EEA54B"/>
<stop offset="1" stop-color="#EEBD47"/>
</linearGradient>
<linearGradient id="paint17_linear" x1="252.425" y1="35.7564" x2="351.989" y2="130.378" gradientUnits="userSpaceOnUse">
<stop stop-color="#EEBD47"/>
<stop offset="0.1194" stop-color="#F8DA76"/>
<stop offset="0.2097" stop-color="#FFED95"/>
<stop offset="0.4462" stop-color="#A1621E"/>
<stop offset="0.6667" stop-color="#EEA54B"/>
<stop offset="1" stop-color="#EEBD47"/>
</linearGradient>
<linearGradient id="paint18_linear" x1="236.873" y1="52.127" x2="336.419" y2="146.732" gradientUnits="userSpaceOnUse">
<stop stop-color="#EEBD47"/>
<stop offset="0.1194" stop-color="#F8DA76"/>
<stop offset="0.2097" stop-color="#FFED95"/>
<stop offset="0.4462" stop-color="#A1621E"/>
<stop offset="0.6667" stop-color="#EEA54B"/>
<stop offset="1" stop-color="#EEBD47"/>
</linearGradient>
<linearGradient id="paint19_linear" x1="365.105" y1="372.391" x2="229.275" y2="206.377" gradientUnits="userSpaceOnUse">
<stop stop-color="#EEBD47"/>
<stop offset="0.1194" stop-color="#F8DA76"/>
<stop offset="0.2097" stop-color="#FFED95"/>
<stop offset="0.4462" stop-color="#A1621E"/>
<stop offset="0.6667" stop-color="#EEA54B"/>
<stop offset="1" stop-color="#EEBD47"/>
</linearGradient>
<linearGradient id="paint20_linear" x1="356.002" y1="379.82" x2="220.185" y2="213.821" gradientUnits="userSpaceOnUse">
<stop stop-color="#EEBD47"/>
<stop offset="0.1194" stop-color="#F8DA76"/>
<stop offset="0.2097" stop-color="#FFED95"/>
<stop offset="0.4462" stop-color="#A1621E"/>
<stop offset="0.6667" stop-color="#EEA54B"/>
<stop offset="1" stop-color="#EEBD47"/>
</linearGradient>
<linearGradient id="paint21_linear" x1="375.642" y1="363.762" x2="239.815" y2="197.751" gradientUnits="userSpaceOnUse">
<stop stop-color="#EEBD47"/>
<stop offset="0.1194" stop-color="#F8DA76"/>
<stop offset="0.2097" stop-color="#FFED95"/>
<stop offset="0.4462" stop-color="#A1621E"/>
<stop offset="0.6667" stop-color="#EEA54B"/>
<stop offset="1" stop-color="#EEBD47"/>
</linearGradient>
<linearGradient id="paint22_linear" x1="184.651" y1="220.859" x2="335.573" y2="228.891" gradientUnits="userSpaceOnUse">
<stop stop-color="#EEBD47"/>
<stop offset="0.1202" stop-color="#F8DA76"/>
<stop offset="0.2112" stop-color="#FFED95"/>
<stop offset="0.3346" stop-color="#F9D279"/>
<stop offset="0.5053" stop-color="#F1B158"/>
<stop offset="0.5986" stop-color="#EEA54B"/>
<stop offset="1" stop-color="#EEBD47"/>
</linearGradient>
<linearGradient id="paint23_linear" x1="184.667" y1="220.563" x2="335.589" y2="228.596" gradientUnits="userSpaceOnUse">
<stop stop-color="#EEBD47"/>
<stop offset="0.1202" stop-color="#F8DA76"/>
<stop offset="0.2112" stop-color="#FFED95"/>
<stop offset="0.3346" stop-color="#F9D279"/>
<stop offset="0.5053" stop-color="#F1B158"/>
<stop offset="0.5986" stop-color="#EEA54B"/>
<stop offset="1" stop-color="#EEBD47"/>
</linearGradient>
<linearGradient id="paint24_linear" x1="184.681" y1="220.251" x2="335.602" y2="228.283" gradientUnits="userSpaceOnUse">
<stop stop-color="#EEBD47"/>
<stop offset="0.1202" stop-color="#F8DA76"/>
<stop offset="0.2112" stop-color="#FFED95"/>
<stop offset="0.3346" stop-color="#F9D279"/>
<stop offset="0.5053" stop-color="#F1B158"/>
<stop offset="0.5986" stop-color="#EEA54B"/>
<stop offset="1" stop-color="#EEBD47"/>
</linearGradient>
<linearGradient id="paint25_linear" x1="184.703" y1="219.85" x2="335.624" y2="227.883" gradientUnits="userSpaceOnUse">
<stop stop-color="#EEBD47"/>
<stop offset="0.1202" stop-color="#F8DA76"/>
<stop offset="0.2112" stop-color="#FFED95"/>
<stop offset="0.3346" stop-color="#F9D279"/>
<stop offset="0.5053" stop-color="#F1B158"/>
<stop offset="0.5986" stop-color="#EEA54B"/>
<stop offset="1" stop-color="#EEBD47"/>
</linearGradient>
<linearGradient id="paint26_linear" x1="184.725" y1="219.446" x2="335.647" y2="227.478" gradientUnits="userSpaceOnUse">
<stop stop-color="#EEBD47"/>
<stop offset="0.1202" stop-color="#F8DA76"/>
<stop offset="0.2112" stop-color="#FFED95"/>
<stop offset="0.3346" stop-color="#F9D279"/>
<stop offset="0.5053" stop-color="#F1B158"/>
<stop offset="0.5986" stop-color="#EEA54B"/>
<stop offset="1" stop-color="#EEBD47"/>
</linearGradient>
<linearGradient id="paint27_linear" x1="184.747" y1="219.015" x2="335.668" y2="227.047" gradientUnits="userSpaceOnUse">
<stop stop-color="#EEBD47"/>
<stop offset="0.1202" stop-color="#F8DA76"/>
<stop offset="0.2112" stop-color="#FFED95"/>
<stop offset="0.3346" stop-color="#F9D279"/>
<stop offset="0.5053" stop-color="#F1B158"/>
<stop offset="0.5986" stop-color="#EEA54B"/>
<stop offset="1" stop-color="#EEBD47"/>
</linearGradient>
<linearGradient id="paint28_linear" x1="184.769" y1="218.632" x2="335.691" y2="226.665" gradientUnits="userSpaceOnUse">
<stop stop-color="#EEBD47"/>
<stop offset="0.1202" stop-color="#F8DA76"/>
<stop offset="0.2112" stop-color="#FFED95"/>
<stop offset="0.3346" stop-color="#F9D279"/>
<stop offset="0.5053" stop-color="#F1B158"/>
<stop offset="0.5986" stop-color="#EEA54B"/>
<stop offset="1" stop-color="#EEBD47"/>
</linearGradient>
<linearGradient id="paint29_linear" x1="184.783" y1="218.336" x2="335.705" y2="226.367" gradientUnits="userSpaceOnUse">
<stop stop-color="#EEBD47"/>
<stop offset="0.1202" stop-color="#F8DA76"/>
<stop offset="0.2112" stop-color="#FFED95"/>
<stop offset="0.3346" stop-color="#F9D279"/>
<stop offset="0.5053" stop-color="#F1B158"/>
<stop offset="0.5986" stop-color="#EEA54B"/>
<stop offset="1" stop-color="#EEBD47"/>
</linearGradient>
<linearGradient id="paint30_linear" x1="184.822" y1="217.609" x2="335.744" y2="225.642" gradientUnits="userSpaceOnUse">
<stop stop-color="#EEBD47"/>
<stop offset="0.1202" stop-color="#F8DA76"/>
<stop offset="0.2112" stop-color="#FFED95"/>
<stop offset="0.3346" stop-color="#F9D279"/>
<stop offset="0.5053" stop-color="#F1B158"/>
<stop offset="0.5986" stop-color="#EEA54B"/>
<stop offset="1" stop-color="#EEBD47"/>
</linearGradient>
<linearGradient id="paint31_linear" x1="184.852" y1="217.103" x2="335.773" y2="225.136" gradientUnits="userSpaceOnUse">
<stop stop-color="#EEBD47"/>
<stop offset="0.1202" stop-color="#F8DA76"/>
<stop offset="0.2112" stop-color="#FFED95"/>
<stop offset="0.3346" stop-color="#F9D279"/>
<stop offset="0.5053" stop-color="#F1B158"/>
<stop offset="0.5986" stop-color="#EEA54B"/>
<stop offset="1" stop-color="#EEBD47"/>
</linearGradient>
<linearGradient id="paint32_linear" x1="184.872" y1="216.65" x2="335.794" y2="224.682" gradientUnits="userSpaceOnUse">
<stop stop-color="#EEBD47"/>
<stop offset="0.1202" stop-color="#F8DA76"/>
<stop offset="0.2112" stop-color="#FFED95"/>
<stop offset="0.3346" stop-color="#F9D279"/>
<stop offset="0.5053" stop-color="#F1B158"/>
<stop offset="0.5986" stop-color="#EEA54B"/>
<stop offset="1" stop-color="#EEBD47"/>
</linearGradient>
<linearGradient id="paint33_linear" x1="184.897" y1="216.229" x2="335.819" y2="224.261" gradientUnits="userSpaceOnUse">
<stop stop-color="#EEBD47"/>
<stop offset="0.1202" stop-color="#F8DA76"/>
<stop offset="0.2112" stop-color="#FFED95"/>
<stop offset="0.3346" stop-color="#F9D279"/>
<stop offset="0.5053" stop-color="#F1B158"/>
<stop offset="0.5986" stop-color="#EEA54B"/>
<stop offset="1" stop-color="#EEBD47"/>
</linearGradient>
<linearGradient id="paint34_linear" x1="184.922" y1="215.775" x2="335.844" y2="223.807" gradientUnits="userSpaceOnUse">
<stop stop-color="#EEBD47"/>
<stop offset="0.1202" stop-color="#F8DA76"/>
<stop offset="0.2112" stop-color="#FFED95"/>
<stop offset="0.3346" stop-color="#F9D279"/>
<stop offset="0.5053" stop-color="#F1B158"/>
<stop offset="0.5986" stop-color="#EEA54B"/>
<stop offset="1" stop-color="#EEBD47"/>
</linearGradient>
<linearGradient id="paint35_linear" x1="184.935" y1="215.536" x2="335.856" y2="223.569" gradientUnits="userSpaceOnUse">
<stop stop-color="#EEBD47"/>
<stop offset="0.1202" stop-color="#F8DA76"/>
<stop offset="0.2112" stop-color="#FFED95"/>
<stop offset="0.3346" stop-color="#F9D279"/>
<stop offset="0.5053" stop-color="#F1B158"/>
<stop offset="0.5986" stop-color="#EEA54B"/>
<stop offset="1" stop-color="#EEBD47"/>
</linearGradient>
<linearGradient id="paint36_linear" x1="184.956" y1="215.151" x2="335.877" y2="223.182" gradientUnits="userSpaceOnUse">
<stop stop-color="#EEBD47"/>
<stop offset="0.1202" stop-color="#F8DA76"/>
<stop offset="0.2112" stop-color="#FFED95"/>
<stop offset="0.3346" stop-color="#F9D279"/>
<stop offset="0.5053" stop-color="#F1B158"/>
<stop offset="0.5986" stop-color="#EEA54B"/>
<stop offset="1" stop-color="#EEBD47"/>
</linearGradient>
<linearGradient id="paint37_linear" x1="184.974" y1="214.746" x2="335.895" y2="222.778" gradientUnits="userSpaceOnUse">
<stop stop-color="#EEBD47"/>
<stop offset="0.1202" stop-color="#F8DA76"/>
<stop offset="0.2112" stop-color="#FFED95"/>
<stop offset="0.3346" stop-color="#F9D279"/>
<stop offset="0.5053" stop-color="#F1B158"/>
<stop offset="0.5986" stop-color="#EEA54B"/>
<stop offset="1" stop-color="#EEBD47"/>
</linearGradient>
<linearGradient id="paint38_linear" x1="184.994" y1="214.391" x2="335.915" y2="222.423" gradientUnits="userSpaceOnUse">
<stop stop-color="#EEBD47"/>
<stop offset="0.1202" stop-color="#F8DA76"/>
<stop offset="0.2112" stop-color="#FFED95"/>
<stop offset="0.3346" stop-color="#F9D279"/>
<stop offset="0.5053" stop-color="#F1B158"/>
<stop offset="0.5986" stop-color="#EEA54B"/>
<stop offset="1" stop-color="#EEBD47"/>
</linearGradient>
<linearGradient id="paint39_linear" x1="185.021" y1="213.905" x2="335.942" y2="221.938" gradientUnits="userSpaceOnUse">
<stop stop-color="#EEBD47"/>
<stop offset="0.1202" stop-color="#F8DA76"/>
<stop offset="0.2112" stop-color="#FFED95"/>
<stop offset="0.3346" stop-color="#F9D279"/>
<stop offset="0.5053" stop-color="#F1B158"/>
<stop offset="0.5986" stop-color="#EEA54B"/>
<stop offset="1" stop-color="#EEBD47"/>
</linearGradient>
<linearGradient id="paint40_linear" x1="185.036" y1="213.61" x2="335.958" y2="221.641" gradientUnits="userSpaceOnUse">
<stop stop-color="#EEBD47"/>
<stop offset="0.1202" stop-color="#F8DA76"/>
<stop offset="0.2112" stop-color="#FFED95"/>
<stop offset="0.3346" stop-color="#F9D279"/>
<stop offset="0.5053" stop-color="#F1B158"/>
<stop offset="0.5986" stop-color="#EEA54B"/>
<stop offset="1" stop-color="#EEBD47"/>
</linearGradient>
<linearGradient id="paint41_linear" x1="184.893" y1="141.674" x2="496.179" y2="86.7868" gradientUnits="userSpaceOnUse">
<stop stop-color="#EEBD47"/>
<stop offset="0.1194" stop-color="#F8DA76"/>
<stop offset="0.2097" stop-color="#FFED95"/>
<stop offset="0.4462" stop-color="#A1621E"/>
<stop offset="0.6667" stop-color="#EEA54B"/>
<stop offset="1" stop-color="#EEBD47"/>
</linearGradient>
<linearGradient id="paint42_linear" x1="171.273" y1="147.803" x2="574.409" y2="76.7198" gradientUnits="userSpaceOnUse">
<stop stop-color="#EEBD47"/>
<stop offset="0.1194" stop-color="#F8DA76"/>
<stop offset="0.2097" stop-color="#FFED95"/>
<stop offset="0.4462" stop-color="#A1621E"/>
<stop offset="0.6667" stop-color="#EEA54B"/>
<stop offset="1" stop-color="#EEBD47"/>
</linearGradient>
<linearGradient id="paint43_linear" x1="186.402" y1="149.751" x2="458.406" y2="101.79" gradientUnits="userSpaceOnUse">
<stop stop-color="#EEBD47"/>
<stop offset="0.1194" stop-color="#F8DA76"/>
<stop offset="0.2097" stop-color="#FFED95"/>
<stop offset="0.4462" stop-color="#A1621E"/>
<stop offset="0.6667" stop-color="#EEA54B"/>
<stop offset="1" stop-color="#EEBD47"/>
</linearGradient>
<linearGradient id="paint44_linear" x1="174.152" y1="156.273" x2="485.438" y2="101.385" gradientUnits="userSpaceOnUse">
<stop stop-color="#EEBD47"/>
<stop offset="0.1194" stop-color="#F8DA76"/>
<stop offset="0.2097" stop-color="#FFED95"/>
<stop offset="0.4462" stop-color="#A1621E"/>
<stop offset="0.6667" stop-color="#EEA54B"/>
<stop offset="1" stop-color="#EEBD47"/>
</linearGradient>
<linearGradient id="paint45_linear" x1="183.599" y1="159.505" x2="456.587" y2="111.369" gradientUnits="userSpaceOnUse">
<stop stop-color="#EEBD47"/>
<stop offset="0.1194" stop-color="#F8DA76"/>
<stop offset="0.2097" stop-color="#FFED95"/>
<stop offset="0.4462" stop-color="#A1621E"/>
<stop offset="0.6667" stop-color="#EEA54B"/>
<stop offset="1" stop-color="#EEBD47"/>
</linearGradient>
<linearGradient id="paint46_linear" x1="192.295" y1="160.991" x2="455.4" y2="114.598" gradientUnits="userSpaceOnUse">
<stop stop-color="#EEBD47"/>
<stop offset="0.1194" stop-color="#F8DA76"/>
<stop offset="0.2097" stop-color="#FFED95"/>
<stop offset="0.4462" stop-color="#A1621E"/>
<stop offset="0.6667" stop-color="#EEA54B"/>
<stop offset="1" stop-color="#EEBD47"/>
</linearGradient>
<linearGradient id="paint47_linear" x1="15.2378" y1="210.657" x2="314.676" y2="157.857" gradientUnits="userSpaceOnUse">
<stop stop-color="#EEBD47"/>
<stop offset="0.1194" stop-color="#F8DA76"/>
<stop offset="0.2097" stop-color="#FFED95"/>
<stop offset="0.4462" stop-color="#A1621E"/>
<stop offset="0.6667" stop-color="#EEA54B"/>
<stop offset="1" stop-color="#EEBD47"/>
</linearGradient>
<linearGradient id="paint48_linear" x1="37.1796" y1="212.887" x2="300.284" y2="166.495" gradientUnits="userSpaceOnUse">
<stop stop-color="#EEBD47"/>
<stop offset="0.1194" stop-color="#F8DA76"/>
<stop offset="0.2097" stop-color="#FFED95"/>
<stop offset="0.4462" stop-color="#A1621E"/>
<stop offset="0.6667" stop-color="#EEA54B"/>
<stop offset="1" stop-color="#EEBD47"/>
</linearGradient>
<linearGradient id="paint49_linear" x1="34.9153" y1="216.026" x2="306.375" y2="168.161" gradientUnits="userSpaceOnUse">
<stop stop-color="#EEBD47"/>
<stop offset="0.1194" stop-color="#F8DA76"/>
<stop offset="0.2097" stop-color="#FFED95"/>
<stop offset="0.4462" stop-color="#A1621E"/>
<stop offset="0.6667" stop-color="#EEA54B"/>
<stop offset="1" stop-color="#EEBD47"/>
</linearGradient>
<linearGradient id="paint50_linear" x1="-6.4671" y1="228.793" x2="307.7" y2="173.397" gradientUnits="userSpaceOnUse">
<stop stop-color="#EEBD47"/>
<stop offset="0.1194" stop-color="#F8DA76"/>
<stop offset="0.2097" stop-color="#FFED95"/>
<stop offset="0.4462" stop-color="#A1621E"/>
<stop offset="0.6667" stop-color="#EEA54B"/>
<stop offset="1" stop-color="#EEBD47"/>
</linearGradient>
<linearGradient id="paint51_linear" x1="14.1902" y1="229.009" x2="302.856" y2="178.11" gradientUnits="userSpaceOnUse">
<stop stop-color="#EEBD47"/>
<stop offset="0.1194" stop-color="#F8DA76"/>
<stop offset="0.2097" stop-color="#FFED95"/>
<stop offset="0.4462" stop-color="#A1621E"/>
<stop offset="0.6667" stop-color="#EEA54B"/>
<stop offset="1" stop-color="#EEBD47"/>
</linearGradient>
<linearGradient id="paint52_linear" x1="205.325" y1="106.453" x2="572.833" y2="118.09" gradientUnits="userSpaceOnUse">
<stop stop-color="#EEBD47"/>
<stop offset="0.1194" stop-color="#F8DA76"/>
<stop offset="0.2097" stop-color="#FFED95"/>
<stop offset="0.4462" stop-color="#A1621E"/>
<stop offset="0.6667" stop-color="#EEA54B"/>
<stop offset="1" stop-color="#EEBD47"/>
</linearGradient>
<linearGradient id="paint53_linear" x1="205.297" y1="107.332" x2="572.806" y2="118.968" gradientUnits="userSpaceOnUse">
<stop stop-color="#EEBD47"/>
<stop offset="0.1194" stop-color="#F8DA76"/>
<stop offset="0.2097" stop-color="#FFED95"/>
<stop offset="0.4462" stop-color="#A1621E"/>
<stop offset="0.6667" stop-color="#EEA54B"/>
<stop offset="1" stop-color="#EEBD47"/>
</linearGradient>
<linearGradient id="paint54_linear" x1="205.305" y1="107.06" x2="572.813" y2="118.697" gradientUnits="userSpaceOnUse">
<stop stop-color="#EEBD47"/>
<stop offset="0.1194" stop-color="#F8DA76"/>
<stop offset="0.2097" stop-color="#FFED95"/>
<stop offset="0.4462" stop-color="#A1621E"/>
<stop offset="0.6667" stop-color="#EEA54B"/>
<stop offset="1" stop-color="#EEBD47"/>
</linearGradient>
<linearGradient id="paint55_linear" x1="205.317" y1="106.703" x2="572.827" y2="118.34" gradientUnits="userSpaceOnUse">
<stop stop-color="#EEBD47"/>
<stop offset="0.1194" stop-color="#F8DA76"/>
<stop offset="0.2097" stop-color="#FFED95"/>
<stop offset="0.4462" stop-color="#A1621E"/>
<stop offset="0.6667" stop-color="#EEA54B"/>
<stop offset="1" stop-color="#EEBD47"/>
</linearGradient>
<linearGradient id="paint56_linear" x1="205.364" y1="105.254" x2="572.872" y2="116.891" gradientUnits="userSpaceOnUse">
<stop stop-color="#EEBD47"/>
<stop offset="0.1194" stop-color="#F8DA76"/>
<stop offset="0.2097" stop-color="#FFED95"/>
<stop offset="0.4462" stop-color="#A1621E"/>
<stop offset="0.6667" stop-color="#EEA54B"/>
<stop offset="1" stop-color="#EEBD47"/>
</linearGradient>
<linearGradient id="paint57_linear" x1="205.363" y1="105.301" x2="572.871" y2="116.938" gradientUnits="userSpaceOnUse">
<stop stop-color="#EEBD47"/>
<stop offset="0.1194" stop-color="#F8DA76"/>
<stop offset="0.2097" stop-color="#FFED95"/>
<stop offset="0.4462" stop-color="#A1621E"/>
<stop offset="0.6667" stop-color="#EEA54B"/>
<stop offset="1" stop-color="#EEBD47"/>
</linearGradient>
<linearGradient id="paint58_linear" x1="205.343" y1="105.914" x2="572.85" y2="117.55" gradientUnits="userSpaceOnUse">
<stop stop-color="#EEBD47"/>
<stop offset="0.1194" stop-color="#F8DA76"/>
<stop offset="0.2097" stop-color="#FFED95"/>
<stop offset="0.4462" stop-color="#A1621E"/>
<stop offset="0.6667" stop-color="#EEA54B"/>
<stop offset="1" stop-color="#EEBD47"/>
</linearGradient>
<linearGradient id="paint59_linear" x1="205.348" y1="105.743" x2="572.857" y2="117.38" gradientUnits="userSpaceOnUse">
<stop stop-color="#EEBD47"/>
<stop offset="0.1194" stop-color="#F8DA76"/>
<stop offset="0.2097" stop-color="#FFED95"/>
<stop offset="0.4462" stop-color="#A1621E"/>
<stop offset="0.6667" stop-color="#EEA54B"/>
<stop offset="1" stop-color="#EEBD47"/>
</linearGradient>
<linearGradient id="paint60_linear" x1="205.356" y1="105.463" x2="572.866" y2="117.1" gradientUnits="userSpaceOnUse">
<stop stop-color="#EEBD47"/>
<stop offset="0.1194" stop-color="#F8DA76"/>
<stop offset="0.2097" stop-color="#FFED95"/>
<stop offset="0.4462" stop-color="#A1621E"/>
<stop offset="0.6667" stop-color="#EEA54B"/>
<stop offset="1" stop-color="#EEBD47"/>
</linearGradient>
<linearGradient id="paint61_linear" x1="205.393" y1="104.321" x2="572.904" y2="115.958" gradientUnits="userSpaceOnUse">
<stop stop-color="#EEBD47"/>
<stop offset="0.1194" stop-color="#F8DA76"/>
<stop offset="0.2097" stop-color="#FFED95"/>
<stop offset="0.4462" stop-color="#A1621E"/>
<stop offset="0.6667" stop-color="#EEA54B"/>
<stop offset="1" stop-color="#EEBD47"/>
</linearGradient>
<linearGradient id="paint62_linear" x1="205.308" y1="107.04" x2="572.816" y2="118.677" gradientUnits="userSpaceOnUse">
<stop stop-color="#EEBD47"/>
<stop offset="0.1194" stop-color="#F8DA76"/>
<stop offset="0.2097" stop-color="#FFED95"/>
<stop offset="0.4462" stop-color="#A1621E"/>
<stop offset="0.6667" stop-color="#EEA54B"/>
<stop offset="1" stop-color="#EEBD47"/>
</linearGradient>
<linearGradient id="paint63_linear" x1="205.24" y1="109.182" x2="572.748" y2="120.819" gradientUnits="userSpaceOnUse">
<stop stop-color="#EEBD47"/>
<stop offset="0.1194" stop-color="#F8DA76"/>
<stop offset="0.2097" stop-color="#FFED95"/>
<stop offset="0.4462" stop-color="#A1621E"/>
<stop offset="0.6667" stop-color="#EEA54B"/>
<stop offset="1" stop-color="#EEBD47"/>
</linearGradient>
<linearGradient id="paint64_linear" x1="205.38" y1="104.71" x2="572.888" y2="116.347" gradientUnits="userSpaceOnUse">
<stop stop-color="#EEBD47"/>
<stop offset="0.1194" stop-color="#F8DA76"/>
<stop offset="0.2097" stop-color="#FFED95"/>
<stop offset="0.4462" stop-color="#A1621E"/>
<stop offset="0.6667" stop-color="#EEA54B"/>
<stop offset="1" stop-color="#EEBD47"/>
</linearGradient>
<linearGradient id="paint65_linear" x1="238.849" y1="76.2067" x2="341.869" y2="76.2067" gradientUnits="userSpaceOnUse">
<stop stop-color="#EEBD47"/>
<stop offset="0.1194" stop-color="#F8DA76"/>
<stop offset="0.2097" stop-color="#FFED95"/>
<stop offset="0.4462" stop-color="#A1621E"/>
<stop offset="0.6667" stop-color="#EEA54B"/>
<stop offset="1" stop-color="#EEBD47"/>
</linearGradient>
<linearGradient id="paint66_linear" x1="238.847" y1="76.2979" x2="341.869" y2="76.2979" gradientUnits="userSpaceOnUse">
<stop stop-color="#EEBD47"/>
<stop offset="0.1194" stop-color="#F8DA76"/>
<stop offset="0.2097" stop-color="#FFED95"/>
<stop offset="0.4462" stop-color="#A1621E"/>
<stop offset="0.6667" stop-color="#EEA54B"/>
<stop offset="1" stop-color="#EEBD47"/>
</linearGradient>
<linearGradient id="paint67_linear" x1="238.845" y1="76.2059" x2="341.866" y2="76.2059" gradientUnits="userSpaceOnUse">
<stop stop-color="#EEBD47"/>
<stop offset="0.1194" stop-color="#F8DA76"/>
<stop offset="0.2097" stop-color="#FFED95"/>
<stop offset="0.4462" stop-color="#A1621E"/>
<stop offset="0.6667" stop-color="#EEA54B"/>
<stop offset="1" stop-color="#EEBD47"/>
</linearGradient>
<linearGradient id="paint68_linear" x1="238.847" y1="76.2977" x2="341.868" y2="76.2977" gradientUnits="userSpaceOnUse">
<stop stop-color="#EEBD47"/>
<stop offset="0.1194" stop-color="#F8DA76"/>
<stop offset="0.2097" stop-color="#FFED95"/>
<stop offset="0.4462" stop-color="#A1621E"/>
<stop offset="0.6667" stop-color="#EEA54B"/>
<stop offset="1" stop-color="#EEBD47"/>
</linearGradient>
</defs>
</svg>
