<svg width="326" height="200" viewBox="0 0 326 200" fill="none" xmlns="http://www.w3.org/2000/svg">
<path d="M266.938 171.521C287.171 178.085 306.807 186.601 325.467 196.853C320.531 185.951 317.982 180.526 312.937 169.785C317.982 165.771 320.477 163.819 325.467 159.967C306.807 149.715 287.225 141.198 266.938 134.635C266.938 149.443 266.938 156.821 266.938 171.521Z" fill="url(#paint0_linear)"/>
<path d="M293.626 153.295C283.102 160.13 277.732 163.764 266.938 171.521C266.938 147.653 266.938 123.84 266.938 99.9727C277.678 103.444 282.994 105.451 293.463 109.845C293.571 127.258 293.571 135.937 293.626 153.295Z" fill="url(#paint1_linear)"/>
<path d="M58.5297 171.521C38.2424 178.085 18.6602 186.602 0 196.854C4.93626 185.951 7.48574 180.526 12.5305 169.786C7.48574 165.772 4.93626 163.819 0 160.022C18.6602 149.769 38.2424 141.307 58.5297 134.689C58.5297 149.444 58.5297 156.821 58.5297 171.521Z" fill="url(#paint2_linear)"/>
<path d="M31.8418 153.295C42.3652 160.13 47.7355 163.764 58.5304 171.521C58.5304 147.653 58.5304 123.84 58.5304 99.9727C47.7897 103.444 42.4737 105.451 32.0046 109.845C31.8961 127.258 31.8961 135.937 31.8418 153.295Z" fill="url(#paint3_linear)"/>
<path d="M148.522 76.1592C109.9 77.7862 71.1685 85.9232 31.6787 100.623C31.6787 121.725 31.6787 132.248 31.6787 153.349C71.1685 138.649 109.9 130.458 148.522 128.885V76.1592Z" fill="url(#paint4_linear)"/>
<path d="M212.855 79.5225V132.249C239.544 136.154 266.395 143.152 293.626 153.296V100.569C266.395 90.4257 239.544 83.4285 212.855 79.5225Z" fill="url(#paint5_linear)"/>
<path d="M220.45 172.66L215.189 185.517L201.356 184.269L193.22 195.552L180.092 190.995L169.46 200L157.798 192.46L145.376 198.644L135.829 188.5L122.268 191.538L115.432 179.441L101.546 179.115L97.8032 165.771L84.4047 162.137L83.9707 148.251L71.8201 141.524L74.6951 127.909L64.497 118.47L70.5723 105.994L62.978 94.3854L71.8744 83.6995L67.2095 70.5722L78.3838 62.3271L77.0273 48.4947L89.8835 43.1787L91.8365 29.4548L105.615 27.3393L110.822 14.4833L124.654 15.731L132.791 4.44806L145.918 9.00458L156.55 0L168.213 7.54001L180.635 1.35612L190.182 11.4456L203.743 8.46214L210.578 20.5587L224.464 20.8842L228.207 34.2284L241.606 37.8628L242.04 51.7493L254.19 58.4759L251.315 72.0911L261.513 81.5297L255.438 94.0057L263.032 105.614L254.136 116.3L258.801 129.428L247.627 137.619L248.983 151.451L236.127 156.821L234.174 170.545L220.45 172.66Z" fill="url(#paint6_linear)"/>
<path d="M253.376 99.9731C253.376 149.878 212.91 190.344 163.005 190.344C113.1 190.344 72.6333 149.878 72.6333 99.9731C72.6333 50.068 113.1 9.60156 163.005 9.60156C212.91 9.65578 253.376 50.1223 253.376 99.9731Z" fill="url(#paint7_linear)"/>
<path d="M163.005 188.391C211.837 188.391 251.424 148.804 251.424 99.9725C251.424 51.1401 211.837 11.5537 163.005 11.5537C114.173 11.5537 74.5864 51.1401 74.5864 99.9725C74.5864 148.804 114.173 188.391 163.005 188.391Z" fill="url(#paint8_radial)"/>
<path d="M157.96 184.486C157.147 184.432 156.496 183.727 156.55 182.913C156.605 182.099 157.31 181.448 158.123 181.502C158.937 181.557 159.588 182.262 159.534 183.076C159.479 183.889 158.829 184.486 158.015 184.486C158.015 184.486 158.015 184.486 157.96 184.486ZM166.965 183.021C166.911 182.208 167.562 181.502 168.375 181.448C169.189 181.394 169.949 182.045 170.003 182.858C170.057 183.672 169.406 184.377 168.593 184.432C168.538 184.432 168.538 184.432 168.484 184.432C167.67 184.432 167.019 183.835 166.965 183.021ZM147.437 183.184C146.623 183.021 146.081 182.262 146.243 181.448C146.406 180.634 147.166 180.092 147.98 180.255C148.793 180.418 149.336 181.177 149.173 181.991C149.01 182.75 148.413 183.238 147.708 183.238C147.6 183.184 147.491 183.184 147.437 183.184ZM177.38 181.882C177.217 181.068 177.76 180.255 178.573 180.146C179.387 179.984 180.201 180.526 180.309 181.34C180.472 182.153 179.929 182.913 179.116 183.076C179.007 183.076 178.899 183.13 178.844 183.13C178.139 183.13 177.488 182.642 177.38 181.882ZM137.13 180.58C136.317 180.309 135.883 179.495 136.154 178.682C136.425 177.868 137.239 177.434 138.053 177.705C138.867 177.977 139.246 178.79 139.029 179.604C138.812 180.255 138.215 180.634 137.564 180.634C137.402 180.634 137.293 180.634 137.13 180.58ZM187.469 179.441C187.198 178.628 187.632 177.814 188.446 177.543C189.26 177.272 190.073 177.705 190.345 178.519C190.616 179.278 190.182 180.146 189.422 180.418C189.26 180.472 189.097 180.472 188.934 180.472C188.283 180.526 187.687 180.092 187.469 179.441ZM127.204 176.675C126.444 176.349 126.119 175.427 126.499 174.668C126.824 173.908 127.746 173.583 128.505 173.963C129.265 174.288 129.59 175.21 129.211 175.969C128.94 176.512 128.397 176.837 127.855 176.837C127.638 176.837 127.421 176.783 127.204 176.675ZM197.234 175.753C196.908 174.993 197.179 174.125 197.939 173.745C198.698 173.366 199.566 173.691 199.946 174.45C200.326 175.21 200 176.078 199.241 176.458C199.024 176.566 198.807 176.566 198.59 176.566C198.047 176.62 197.505 176.295 197.234 175.753ZM117.874 171.575C117.169 171.141 116.951 170.22 117.385 169.514C117.82 168.809 118.741 168.592 119.447 169.026C120.152 169.46 120.369 170.382 119.935 171.088C119.664 171.521 119.176 171.793 118.633 171.793C118.416 171.847 118.145 171.738 117.874 171.575ZM206.455 170.87C206.021 170.165 206.238 169.243 206.889 168.809C207.594 168.375 208.516 168.592 209.005 169.243C209.439 169.948 209.221 170.87 208.516 171.304C208.245 171.467 207.974 171.521 207.703 171.521C207.215 171.575 206.726 171.304 206.455 170.87ZM109.303 165.392C108.652 164.849 108.543 163.927 109.086 163.276C109.628 162.625 110.551 162.517 111.202 163.059C111.852 163.602 111.961 164.524 111.418 165.175C111.093 165.555 110.659 165.717 110.225 165.717C109.9 165.717 109.575 165.609 109.303 165.392ZM214.972 164.904C214.429 164.253 214.538 163.33 215.189 162.788C215.839 162.246 216.762 162.354 217.304 162.951C217.847 163.602 217.738 164.524 217.087 165.066C216.816 165.283 216.49 165.446 216.11 165.446C215.731 165.446 215.297 165.229 214.972 164.904ZM101.546 158.123C100.949 157.526 101.003 156.55 101.601 156.007C102.197 155.411 103.173 155.465 103.716 156.062C104.312 156.658 104.258 157.635 103.662 158.177C103.391 158.449 103.011 158.557 102.631 158.557C102.197 158.611 101.817 158.449 101.546 158.123ZM222.728 157.852C222.132 157.309 222.078 156.333 222.674 155.736C223.217 155.14 224.193 155.085 224.79 155.682C225.387 156.279 225.441 157.201 224.844 157.797C224.518 158.123 224.139 158.286 223.759 158.286C223.379 158.231 223 158.123 222.728 157.852ZM94.7115 149.986C94.2231 149.336 94.3861 148.359 95.0369 147.871C95.6877 147.382 96.6639 147.545 97.1523 148.196C97.6407 148.847 97.4777 149.823 96.8269 150.312C96.5558 150.529 96.2299 150.583 95.9588 150.583C95.4709 150.583 95.0369 150.366 94.7115 149.986ZM229.509 149.932C228.858 149.444 228.696 148.522 229.183 147.817C229.672 147.166 230.594 147.003 231.299 147.491C231.95 147.979 232.113 148.901 231.625 149.607C231.299 149.986 230.865 150.203 230.431 150.203C230.052 150.203 229.781 150.095 229.509 149.932ZM88.9611 141.036C88.5819 140.331 88.7986 139.409 89.5581 138.974C90.2632 138.595 91.1852 138.812 91.6192 139.572C91.999 140.277 91.7279 141.199 91.0227 141.633C90.8054 141.741 90.5343 141.796 90.3176 141.796C89.7749 141.796 89.2327 141.524 88.9611 141.036ZM235.259 141.199C234.554 140.819 234.282 139.897 234.662 139.137C235.042 138.432 235.964 138.161 236.723 138.54C237.429 138.92 237.7 139.843 237.32 140.548C237.049 141.036 236.507 141.307 236.018 141.307C235.693 141.362 235.476 141.307 235.259 141.199ZM84.4047 131.489C84.0793 130.729 84.4591 129.861 85.2185 129.536C85.978 129.21 86.8999 129.59 87.171 130.404C87.497 131.163 87.1172 132.031 86.3578 132.357C86.1948 132.411 85.978 132.465 85.815 132.465C85.2185 132.411 84.6758 132.031 84.4047 131.489ZM239.816 131.814C239.056 131.489 238.676 130.621 238.947 129.861C239.273 129.102 240.141 128.723 240.9 128.994C241.66 129.319 242.04 130.187 241.769 130.946C241.551 131.543 240.955 131.923 240.358 131.923C240.195 131.923 240.032 131.923 239.816 131.814ZM81.0957 121.345C80.879 120.531 81.3668 119.718 82.1806 119.501C82.9944 119.284 83.8082 119.772 84.025 120.586C84.2423 121.399 83.7539 122.213 82.9401 122.43C82.8315 122.484 82.669 122.484 82.5604 122.484C81.9095 122.484 81.2587 122.05 81.0957 121.345ZM243.233 121.942C242.419 121.725 241.931 120.911 242.148 120.097C242.365 119.284 243.179 118.796 243.992 119.012C244.806 119.23 245.294 120.043 245.077 120.857C244.915 121.562 244.264 121.996 243.612 121.996C243.45 121.996 243.341 121.996 243.233 121.942ZM79.0889 110.93C78.9803 110.117 79.5768 109.357 80.3906 109.248C81.2044 109.14 81.9639 109.737 82.0725 110.551C82.1806 111.364 81.5841 112.123 80.7703 112.232C80.716 112.232 80.6617 112.232 80.5536 112.232C79.8484 112.232 79.1971 111.69 79.0889 110.93ZM245.349 111.744C244.535 111.635 243.938 110.876 244.047 110.062C244.155 109.248 244.915 108.652 245.728 108.761C246.542 108.869 247.139 109.628 247.03 110.442C246.921 111.201 246.271 111.744 245.511 111.744C245.457 111.744 245.403 111.744 245.349 111.744ZM78.3838 100.353C78.3838 100.298 78.3838 100.244 78.3838 100.19C78.3838 100.136 78.3838 100.081 78.3838 100.027C78.3838 99.2133 79.0346 98.5081 79.9027 98.5081C80.716 98.5081 81.4212 99.159 81.4212 100.027C81.4212 100.081 81.4212 100.136 81.4212 100.19C81.4212 100.244 81.4212 100.298 81.4212 100.353C81.4212 101.221 80.7703 101.871 79.9027 101.871C79.0346 101.871 78.3838 101.166 78.3838 100.353ZM244.644 99.8098C244.644 98.9965 245.294 98.2914 246.162 98.2914C246.976 98.2914 247.681 98.9422 247.681 99.756C247.681 100.624 247.03 101.274 246.162 101.274C245.294 101.329 244.644 100.678 244.644 99.8098ZM81.3668 100.298C81.3668 100.352 81.3668 100.352 81.3668 100.298V100.298ZM80.3363 91.0769C79.523 90.9682 78.926 90.2087 79.0346 89.3949C79.1433 88.5811 79.9027 87.9846 80.716 88.0933C81.5298 88.2014 82.1263 88.9609 82.0182 89.7747C81.9095 90.5342 81.2587 91.0769 80.5536 91.0769C80.4992 91.0769 80.3906 91.0769 80.3363 91.0769ZM243.992 89.6123C243.884 88.7985 244.481 88.039 245.294 87.9303C246.108 87.8222 246.867 88.4187 246.976 89.2325C247.084 90.0458 246.488 90.8053 245.674 90.9139C245.62 90.9139 245.565 90.9139 245.457 90.9139C244.697 90.9139 244.101 90.3717 243.992 89.6123ZM82.0725 80.7702C81.2587 80.5534 80.7703 79.7396 80.9876 78.9258C81.2044 78.112 82.0182 77.6241 82.8315 77.8409C83.6453 78.0582 84.1337 78.8715 83.9163 79.6853C83.7539 80.3361 83.1574 80.8245 82.4517 80.8245C82.3436 80.8245 82.235 80.8245 82.0725 80.7702ZM242.04 79.5223C241.822 78.709 242.311 77.8952 243.125 77.6785C243.938 77.4612 244.752 77.9496 244.969 78.7634C245.186 79.5766 244.697 80.3904 243.884 80.6072C243.775 80.6072 243.612 80.6615 243.504 80.6615C242.799 80.6615 242.202 80.228 242.04 79.5223ZM85.1642 70.7894C84.4047 70.4634 84.025 69.5958 84.2961 68.8364C84.6215 68.0769 85.4896 67.6972 86.2491 67.9682C87.0086 68.2937 87.3883 69.1618 87.1172 69.9213C86.8999 70.5178 86.3034 70.8432 85.7064 70.8432C85.4896 70.8975 85.3272 70.8432 85.1642 70.7894ZM238.839 69.8126C238.514 69.0531 238.893 68.1855 239.707 67.8601C240.466 67.5347 241.335 67.9145 241.66 68.7277C241.985 69.4872 241.606 70.3553 240.792 70.6807C240.629 70.7351 240.412 70.7894 240.25 70.7894C239.653 70.7351 239.11 70.4097 238.839 69.8126ZM89.3951 61.2965C88.6356 60.8624 88.4189 59.9943 88.7986 59.2348C89.1784 58.5296 90.1003 58.2586 90.8054 58.6383C91.5649 59.018 91.7822 59.9405 91.4025 60.6994C91.1308 61.1878 90.5887 61.4589 90.1003 61.4589C89.8835 61.4589 89.6667 61.4046 89.3951 61.2965ZM234.5 60.537C234.12 59.8318 234.391 58.9094 235.096 58.4759C235.856 58.0961 236.723 58.3129 237.157 59.0724C237.537 59.7775 237.266 60.6994 236.561 61.1335C236.344 61.2965 236.073 61.3508 235.856 61.3508C235.259 61.3508 234.771 61.0254 234.5 60.537ZM94.8739 52.346C94.1687 51.8578 94.0601 50.9356 94.5485 50.2305C95.0369 49.5253 95.9588 49.4168 96.6639 49.905C97.3148 50.3932 97.4777 51.3154 96.9893 52.0205C96.7183 52.4003 96.2299 52.6172 95.7964 52.6172C95.4166 52.6715 95.145 52.563 94.8739 52.346ZM228.967 51.912C228.478 51.2611 228.641 50.2847 229.292 49.7965C229.943 49.3083 230.92 49.471 231.408 50.122C231.896 50.7729 231.733 51.7493 231.082 52.2375C230.811 52.4545 230.486 52.5088 230.214 52.5088C229.726 52.563 229.238 52.346 228.967 51.912ZM101.383 44.2093C100.787 43.6126 100.732 42.6905 101.329 42.0938C101.926 41.4971 102.848 41.4428 103.444 42.0395C104.041 42.6362 104.096 43.5584 103.499 44.155C103.173 44.4805 102.794 44.6433 102.414 44.6433C102.034 44.589 101.654 44.4805 101.383 44.2093ZM222.457 44.0466C221.861 43.4499 221.915 42.4735 222.512 41.9311C223.108 41.3343 224.084 41.3886 224.627 41.9853C225.224 42.582 225.169 43.5584 224.573 44.1008C224.302 44.372 223.922 44.4805 223.542 44.4805C223.108 44.5348 222.728 44.372 222.457 44.0466ZM108.815 36.9405C108.272 36.2896 108.381 35.3674 109.032 34.825C109.683 34.2825 110.605 34.391 111.147 35.042C111.69 35.6929 111.581 36.615 110.93 37.1575C110.659 37.3745 110.333 37.4829 109.954 37.4829C109.575 37.4829 109.14 37.266 108.815 36.9405ZM214.972 37.049C214.32 36.5065 214.266 35.5844 214.754 34.9335C215.297 34.2825 216.219 34.2283 216.87 34.7165C217.521 35.2589 217.575 36.1811 217.087 36.832C216.762 37.2118 216.382 37.3745 215.948 37.3745C215.568 37.3745 215.243 37.266 214.972 37.049ZM117.169 30.6481C116.735 29.943 116.951 29.0208 117.602 28.5869C118.307 28.1529 119.23 28.3699 119.664 29.0751C120.098 29.7802 119.881 30.7024 119.23 31.1364C118.959 31.2991 118.687 31.3533 118.416 31.3533C117.928 31.2991 117.44 31.0821 117.169 30.6481ZM206.672 31.0279C205.967 30.5939 205.75 29.6717 206.184 28.9666C206.618 28.2614 207.54 28.0444 208.245 28.4784C208.95 28.9123 209.168 29.8345 208.734 30.5397C208.462 30.9736 207.974 31.2449 207.431 31.2449C207.215 31.2449 206.889 31.1906 206.672 31.0279ZM126.173 25.4407C125.794 24.6812 126.119 23.8133 126.878 23.4336C127.638 23.1081 128.505 23.3794 128.885 24.1388C129.211 24.8982 128.94 25.7661 128.18 26.1459C127.963 26.2544 127.746 26.3086 127.529 26.3086C126.987 26.3086 126.444 25.9831 126.173 25.4407ZM197.667 26.0916C196.908 25.7119 196.582 24.844 196.962 24.0845C197.342 23.3251 198.21 22.9996 198.97 23.3794C199.729 23.7048 200.054 24.627 199.675 25.3864C199.404 25.9289 198.861 26.2544 198.319 26.2544C198.101 26.2001 197.885 26.2001 197.667 26.0916ZM135.829 21.4266C135.558 20.6129 135.992 19.7992 136.805 19.528C137.619 19.2568 138.432 19.6908 138.704 20.4502C138.975 21.2638 138.541 22.0775 137.727 22.3487C137.564 22.403 137.402 22.403 137.239 22.403C136.642 22.4572 136.045 22.0232 135.829 21.4266ZM188.121 22.2945C187.361 22.0232 186.927 21.2096 187.144 20.3959C187.415 19.6365 188.229 19.2025 189.043 19.4195C189.802 19.6908 190.236 20.5044 190.019 21.3181C189.802 21.969 189.206 22.3487 188.608 22.3487C188.446 22.403 188.283 22.3487 188.121 22.2945ZM145.864 18.6059C145.701 17.7922 146.243 16.9785 147.057 16.87C147.871 16.7073 148.631 17.2497 148.793 18.0634C148.956 18.8771 148.413 19.6908 147.6 19.7992C147.491 19.7992 147.383 19.8535 147.328 19.8535C146.678 19.8535 146.027 19.3653 145.864 18.6059ZM178.194 19.7992C177.38 19.6365 176.838 18.8771 177 18.0634C177.163 17.2497 177.923 16.7073 178.736 16.87C179.55 17.0327 180.092 17.7922 179.929 18.6059C179.821 19.311 179.17 19.8535 178.465 19.8535C178.41 19.7992 178.302 19.7992 178.194 19.7992ZM156.225 17.1412C156.17 16.3276 156.821 15.6224 157.635 15.5682C158.449 15.5139 159.208 16.1648 159.208 16.9785C159.262 17.7922 158.611 18.4974 157.797 18.5516C157.744 18.5516 157.744 18.5516 157.689 18.5516C156.93 18.5516 156.279 17.9007 156.225 17.1412ZM168.05 18.4974C167.236 18.4431 166.585 17.738 166.64 16.9243C166.694 16.1106 167.399 15.4597 168.213 15.5139C169.08 15.5682 169.678 16.2733 169.623 17.087C169.569 17.9007 168.918 18.4974 168.104 18.4974C168.104 18.5516 168.104 18.4974 168.05 18.4974Z" fill="url(#paint9_linear)"/>
<path d="M163.005 178.085C206.145 178.085 241.117 143.113 241.117 99.9726C241.117 56.8324 206.145 21.8604 163.005 21.8604C119.865 21.8604 84.8931 56.8324 84.8931 99.9726C84.8931 143.113 119.865 178.085 163.005 178.085Z" fill="url(#paint10_linear)"/>
<path d="M86.791 99.9725C86.791 57.8785 120.911 23.7588 163.005 23.7588C205.099 23.7588 239.218 57.8785 239.218 99.9725C239.218 142.066 205.099 176.186 163.005 176.186C120.911 176.186 86.791 142.066 86.791 99.9725Z" fill="url(#paint11_radial)"/>
<path d="M230.051 137.619H95.7417V138.433H230.051V137.619Z" fill="url(#paint12_linear)"/>
<path d="M229.347 60.1572H96.4473V60.8624H229.347V60.1572Z" fill="url(#paint13_linear)"/>
<g style="mix-blend-mode:screen">
<path style="mix-blend-mode:screen" d="M129.699 168.538L163.005 99.9188L127.854 167.616C128.451 167.941 129.048 168.267 129.699 168.538ZM121.996 164.199L163.059 99.9188L120.26 163.114C120.802 163.439 121.399 163.819 121.996 164.199ZM163.005 176.187C163.33 176.187 163.71 176.187 164.035 176.187L163.005 99.9188L161.974 176.187C162.3 176.187 162.68 176.187 163.005 176.187ZM137.889 171.956L163.005 99.9188L135.937 171.25C136.588 171.468 137.239 171.739 137.889 171.956ZM114.781 158.991L163.005 99.8645L113.208 157.635C113.751 158.123 114.239 158.557 114.781 158.991ZM146.406 174.396L163.005 99.9188L144.399 173.909C145.104 174.071 145.755 174.234 146.406 174.396ZM155.193 175.807L163.059 99.9188L153.187 175.536C153.783 175.644 154.488 175.753 155.193 175.807ZM88.0932 114.185L163.005 99.9188L87.7135 112.178C87.8216 112.829 87.9302 113.48 88.0932 114.185ZM90.2087 122.756L163.005 99.9188L89.6116 120.803C89.8289 121.454 89.9914 122.105 90.2087 122.756ZM97.4775 138.921L163.005 99.9188L96.4469 137.13C96.7723 137.728 97.0977 138.324 97.4775 138.921ZM102.468 146.298L163.059 99.9188L101.274 144.617C101.6 145.159 102.034 145.701 102.468 146.298ZM93.3547 131.055L163.005 99.9188L92.5409 129.157C92.8125 129.808 93.0836 130.404 93.3547 131.055ZM181.61 173.909L163.005 99.9188L179.604 174.396C180.255 174.234 180.905 174.071 181.61 173.909ZM236.398 120.803L163.005 99.9188L235.801 122.756C236.018 122.105 236.181 121.454 236.398 120.803ZM233.468 129.157L163.005 99.9188L232.655 131.055C232.926 130.404 233.197 129.808 233.468 129.157ZM229.563 137.13L163.005 99.9188L228.532 138.921C228.912 138.324 229.238 137.728 229.563 137.13ZM239.056 105.343C239.11 104.638 239.165 103.987 239.165 103.282L162.951 99.8645L239.056 105.343ZM224.789 144.617L163.005 99.9188L223.596 146.298C223.976 145.701 224.41 145.159 224.789 144.617ZM238.296 112.124L163.005 99.8645L237.917 114.131C238.08 113.48 238.188 112.829 238.296 112.124ZM219.202 151.506L163.005 99.9188L217.792 152.97C218.28 152.482 218.768 151.994 219.202 151.506ZM190.073 171.25L163.005 99.9188L188.12 171.956C188.771 171.739 189.422 171.468 190.073 171.25ZM172.878 175.536L163.005 99.9188L170.87 175.807C171.521 175.753 172.226 175.644 172.878 175.536ZM86.954 105.343L163.005 99.8645L86.791 103.282C86.8453 103.987 86.8997 104.692 86.954 105.343ZM198.155 167.616L163.005 99.9188L196.311 168.538C196.962 168.267 197.558 167.941 198.155 167.616ZM205.804 163.06L163.005 99.8645L204.068 164.145C204.61 163.819 205.207 163.439 205.804 163.06ZM212.801 157.69L163.005 99.9188L211.228 159.046C211.771 158.557 212.313 158.123 212.801 157.69ZM108.218 152.97L163.005 99.9188L106.807 151.506C107.296 151.994 107.729 152.482 108.218 152.97ZM217.792 46.8134L163.005 99.8645L219.202 48.278C218.768 47.844 218.28 47.3558 217.792 46.8134ZM196.311 31.2452L163.005 99.8645L198.155 32.1673C197.558 31.8961 196.962 31.5706 196.311 31.2452ZM211.228 40.7922L163.005 99.9188L212.801 42.1484C212.313 41.7144 211.771 41.2262 211.228 40.7922ZM204.068 35.5847L163.005 99.8645L205.804 36.6696C205.207 36.3442 204.61 35.9645 204.068 35.5847ZM179.604 25.441L163.005 99.9188L181.61 25.9292C180.905 25.7665 180.255 25.6038 179.604 25.441ZM188.12 27.882L163.005 99.9188L190.073 28.5872C189.422 28.316 188.771 28.099 188.12 27.882ZM237.971 85.6523L163.059 99.9188L238.351 87.6596C238.188 87.0088 238.08 86.3036 237.971 85.6523ZM170.87 24.0306L163.005 99.9188L172.878 24.3019C172.226 24.1934 171.521 24.0849 170.87 24.0306ZM239.056 94.44L163.005 99.9188L239.218 96.5017C239.165 95.796 239.11 95.1452 239.056 94.44ZM223.596 53.5397L163.059 99.9188L224.844 55.221C224.41 54.6245 223.976 54.0821 223.596 53.5397ZM235.801 77.0275L163.005 99.8645L236.398 78.9805C236.181 78.384 236.018 77.6783 235.801 77.0275ZM228.532 60.8628L163.005 99.9188L229.563 62.6528C229.238 62.0563 228.912 61.4593 228.532 60.8628ZM232.655 68.7824L163.005 99.9188L233.468 70.6811C233.197 70.0303 232.926 69.3789 232.655 68.7824ZM96.4469 62.6528L163.005 99.9188L97.4775 60.8628C97.0977 61.4593 96.7723 62.0563 96.4469 62.6528ZM106.807 48.3322L163.005 99.9188L108.218 46.8676C107.729 47.3558 107.296 47.844 106.807 48.3322ZM92.5409 70.6268L163.005 99.8645L93.3547 68.7281C93.0836 69.3789 92.8125 70.0303 92.5409 70.6268ZM101.22 55.1672L163.005 99.8645L102.468 53.5397C102.034 54.0821 101.6 54.6245 101.22 55.1672ZM86.791 96.5017L163.005 99.9188L86.954 94.44C86.8997 95.1452 86.8453 95.796 86.791 96.5017ZM87.7135 87.6596L163.005 99.9188L88.0932 85.6523C87.9302 86.3036 87.8216 87.0088 87.7135 87.6596ZM89.6116 79.0348L163.005 99.9188L90.2087 77.0275C89.9914 77.6783 89.8289 78.384 89.6116 79.0348ZM113.208 42.1484L163.005 99.9188L114.781 40.7922C114.239 41.2262 113.751 41.7144 113.208 42.1484ZM135.937 28.5872L163.005 99.9188L137.889 27.882C137.239 28.099 136.588 28.316 135.937 28.5872ZM144.399 25.9292L163.005 99.9188L146.406 25.441C145.755 25.6038 145.104 25.7665 144.399 25.9292ZM163.005 23.5967C162.68 23.5967 162.3 23.5967 161.974 23.5967L163.005 99.8645L164.035 23.5967C163.71 23.651 163.33 23.5967 163.005 23.5967ZM153.132 24.3019L163.005 99.9188L155.193 24.0306C154.488 24.0849 153.783 24.1934 153.132 24.3019ZM120.26 36.7239L163.059 99.9188L121.996 35.5847C121.399 35.9645 120.802 36.3442 120.26 36.7239ZM127.854 32.2216L163.005 99.9188L129.699 31.2452C129.048 31.5706 128.451 31.8961 127.854 32.2216Z" fill="url(#paint14_radial)"/>
</g>
<g style="mix-blend-mode:screen">
<path style="mix-blend-mode:screen" d="M113.642 158.015C124.111 140.873 136.588 124.871 150.962 110.496C172.986 88.4732 198.752 70.8977 226.742 58.2587C213.127 37.5374 189.693 23.8135 163.005 23.8135C120.911 23.8135 86.791 57.9333 86.791 100.027C86.791 123.244 97.2059 144.019 113.642 158.015Z" fill="url(#paint15_radial)"/>
</g>
<path d="M167.398 42.1478L163.927 40.0322L160.401 42.1478L161.269 38.1337L158.231 35.4214L162.299 35.0417L163.873 31.2988L165.5 35.0417L169.568 35.4214L166.531 38.1337L167.398 42.1478Z" fill="url(#paint16_linear)"/>
<path d="M177 41.28L174.668 39.8696L172.335 41.28L172.932 38.622L170.925 36.8319L173.583 36.5607L174.668 34.0654L175.753 36.5607L178.465 36.8319L176.404 38.622L177 41.28Z" fill="url(#paint17_linear)"/>
<path d="M154.977 41.28L152.644 39.8696L150.312 41.28L150.908 38.622L148.847 36.8319L151.559 36.5607L152.644 34.0654L153.729 36.5607L156.441 36.8319L154.38 38.622L154.977 41.28Z" fill="url(#paint18_linear)"/>
<path d="M159.913 157.797L163.439 159.913L166.965 157.797L166.043 161.811L169.135 164.524L165.066 164.903L163.439 168.646L161.812 164.903L157.743 164.524L160.781 161.811L159.913 157.797Z" fill="url(#paint19_linear)"/>
<path d="M150.312 158.666L152.644 160.076L154.977 158.666L154.38 161.324L156.441 163.114L153.729 163.385L152.644 165.881L151.559 163.385L148.847 163.114L150.908 161.324L150.312 158.666Z" fill="url(#paint20_linear)"/>
<path d="M172.335 158.666L174.668 160.076L177 158.666L176.404 161.324L178.465 163.114L175.753 163.385L174.668 165.881L173.583 163.385L170.925 163.114L172.932 161.324L172.335 158.666Z" fill="url(#paint21_linear)"/>
<path d="M116.246 145.646H114.673V150.854H117.819V149.606H116.192L116.246 145.646Z" fill="url(#paint22_linear)"/>
<path d="M119.989 145.646H118.416V150.8H119.989V145.646Z" fill="url(#paint23_linear)"/>
<path d="M123.135 146.841C123.678 146.841 123.895 147.112 123.949 147.871H125.522C125.522 146.678 124.925 145.593 123.135 145.593C121.074 145.593 120.694 146.949 120.694 148.251C120.694 149.553 121.074 150.909 123.135 150.909C124.925 150.909 125.522 149.878 125.522 148.631H123.949C123.84 149.39 123.624 149.661 123.135 149.661C122.321 149.661 122.268 149.01 122.268 148.251C122.268 147.491 122.376 146.841 123.135 146.841Z" fill="url(#paint24_linear)"/>
<path d="M126.282 150.854H130.133V149.606H127.854V148.793H129.916V147.653H127.854V146.894H130.133V145.646H126.282V150.854Z" fill="url(#paint25_linear)"/>
<path d="M134.201 148.521L132.683 145.646H130.892V150.854H132.465V148.033L134.039 150.854H135.774V145.646H134.201V148.521Z" fill="url(#paint26_linear)"/>
<path d="M138.161 147.274C138.107 147.002 138.215 146.786 138.758 146.786C139.3 146.786 139.463 147.002 139.463 147.491H140.982C140.982 146.46 140.439 145.646 138.758 145.646C137.076 145.646 136.588 146.46 136.588 147.382C136.642 149.172 139.517 148.576 139.517 149.335C139.517 149.498 139.409 149.823 138.867 149.823C138.27 149.823 138.053 149.552 138.053 149.01H136.479C136.479 150.257 137.13 151.017 138.867 151.017C140.548 151.017 141.036 150.095 141.036 149.335C141.036 147.328 138.27 147.925 138.161 147.274Z" fill="url(#paint27_linear)"/>
<path d="M141.741 150.854H145.592V149.606H143.26V148.793H145.321V147.653H143.26V146.894H145.592V145.646H141.741V150.854Z" fill="url(#paint28_linear)"/>
<path d="M148.413 145.646H146.352V150.8H148.359C150.041 150.8 150.908 149.715 150.908 148.196C150.855 146.677 150.041 145.646 148.413 145.646ZM148.142 149.606H147.871V146.894H148.142C148.902 146.894 149.281 147.057 149.281 148.196C149.336 149.443 148.847 149.606 148.142 149.606Z" fill="url(#paint29_linear)"/>
<path d="M156.605 149.172L155.682 145.646H153.458V150.854H154.977V147.708L155.899 150.854H157.31L158.232 147.708V150.854H159.751V145.646H157.526L156.605 149.172Z" fill="url(#paint30_linear)"/>
<path d="M163.005 145.593C160.889 145.593 160.51 146.949 160.51 148.251C160.51 149.553 160.889 150.909 163.005 150.909C165.12 150.909 165.5 149.553 165.5 148.251C165.554 146.949 165.12 145.593 163.005 145.593ZM163.005 149.661C162.137 149.661 162.083 149.01 162.083 148.251C162.083 147.491 162.137 146.841 163.005 146.841C163.873 146.841 163.927 147.491 163.927 148.251C163.981 149.01 163.927 149.661 163.005 149.661Z" fill="url(#paint31_linear)"/>
<path d="M169.623 148.521L168.104 145.646H166.314V150.854H167.887V148.033L169.46 150.854H171.196V145.646H169.623V148.521Z" fill="url(#paint32_linear)"/>
<path d="M172.172 150.854H176.024V149.606H173.691V148.793H175.752V147.653H173.691V146.894H176.024V145.646H172.172V150.854Z" fill="url(#paint33_linear)"/>
<path d="M178.899 147.762L178.031 145.646H176.295L178.085 149.227V150.854H179.658V149.227L181.611 145.646H179.821L178.899 147.762Z" fill="url(#paint34_linear)"/>
<path d="M183.618 145.646H182.099V150.854H185.246V149.606H183.618V145.646Z" fill="url(#paint35_linear)"/>
<path d="M185.842 150.854H189.693V149.606H187.361V148.793H189.422V147.653H187.361V146.894H189.693V145.646H185.842V150.854Z" fill="url(#paint36_linear)"/>
<path d="M193.762 148.521L192.243 145.646H190.453V150.854H192.026V148.033L193.599 150.854H195.335V145.646H193.762V148.521Z" fill="url(#paint37_linear)"/>
<path d="M198.372 145.646H196.311V150.8H198.318C200 150.8 200.867 149.715 200.867 148.196C200.813 146.677 200.054 145.646 198.372 145.646ZM198.101 149.606H197.83V146.894H198.101C198.861 146.894 199.24 147.057 199.24 148.196C199.295 149.443 198.861 149.606 198.101 149.606Z" fill="url(#paint38_linear)"/>
<path d="M201.573 150.854H205.424V149.606H203.146V148.793H205.207V147.653H203.146V146.894H205.424V145.646H201.573V150.854Z" fill="url(#paint39_linear)"/>
<path d="M209.33 148.955C210.09 148.793 210.415 148.196 210.415 147.491C210.415 146.731 210.252 145.646 208.191 145.646H206.184V150.8H207.757V148.901L208.896 150.8H210.849L209.33 148.955ZM208.137 148.033H207.757V146.894H208.191C208.734 146.894 208.896 147.111 208.896 147.491C208.842 147.816 208.734 148.033 208.137 148.033Z" fill="url(#paint40_linear)"/>
<path d="M119.067 95.5801C118.958 95.5801 118.85 95.6344 118.741 95.6882C118.687 95.7425 118.633 95.8511 118.633 95.9598V102.577C118.633 102.849 118.579 103.066 118.416 103.174C118.253 103.283 118.036 103.337 117.765 103.337H113.425C113.154 103.337 112.991 103.283 112.883 103.174C112.775 103.066 112.72 102.903 112.72 102.686V84.5682C112.72 84.3514 112.775 84.2428 112.828 84.1341C112.937 84.026 113.046 83.9717 113.208 83.9717H118.145C118.307 83.9717 118.416 84.026 118.47 84.1341C118.579 84.2428 118.579 84.3514 118.579 84.5139V90.5897C118.579 90.9151 118.741 91.1318 119.067 91.1318H123.46C123.786 91.1318 123.949 90.9694 123.949 90.5897V84.5139C123.949 84.3514 124.003 84.1884 124.057 84.1341C124.166 84.026 124.274 83.9717 124.383 83.9717H129.373C129.536 83.9717 129.644 84.026 129.753 84.1341C129.861 84.2428 129.861 84.4057 129.861 84.5682V102.686C129.861 102.903 129.807 103.066 129.699 103.174C129.59 103.283 129.428 103.337 129.156 103.337H124.816C124.545 103.337 124.329 103.283 124.166 103.174C124.003 103.066 123.949 102.849 123.949 102.577V95.9598C123.949 95.8511 123.895 95.7425 123.84 95.6882C123.786 95.6344 123.677 95.5801 123.515 95.5801H119.067Z" fill="url(#paint41_linear)"/>
<path d="M138.107 83.9707C138.433 83.9707 138.595 84.1337 138.595 84.5134V102.577C138.595 102.848 138.541 103.065 138.378 103.173C138.215 103.282 137.998 103.336 137.727 103.336H133.387C133.116 103.336 132.954 103.282 132.845 103.173C132.736 103.065 132.682 102.902 132.682 102.685V84.5672C132.682 84.3504 132.736 84.2418 132.791 84.1337C132.899 84.025 133.008 83.9707 133.171 83.9707H138.107Z" fill="url(#paint42_linear)"/>
<path d="M145.05 102.359C143.64 101.546 142.609 100.352 141.85 98.8877C141.091 97.423 140.711 95.6873 140.711 93.7343C140.711 91.7275 141.091 89.9913 141.904 88.4728C142.718 86.9539 143.803 85.7603 145.267 84.9465C146.732 84.1333 148.359 83.6992 150.203 83.6992C151.722 83.6992 153.024 83.9703 154.217 84.513C155.411 85.0552 156.333 85.7603 157.039 86.6285C157.744 87.4961 158.232 88.4185 158.449 89.3948C158.503 89.6121 158.503 89.7745 158.503 89.8831C158.503 90.0456 158.449 90.1542 158.395 90.2086C158.34 90.2629 158.232 90.3172 158.069 90.3172L153.621 91.0224C153.404 91.0224 153.296 90.968 153.241 90.9137C153.187 90.8594 153.133 90.6969 153.079 90.4796C152.916 89.6658 152.59 89.015 152.102 88.5272C151.614 88.0388 150.909 87.7677 150.041 87.7677C149.01 87.7677 148.251 88.2012 147.708 89.0693C147.166 89.9375 146.895 91.4559 146.895 93.5719C146.895 95.7954 147.166 97.3687 147.762 98.2368C148.359 99.1044 149.173 99.5385 150.258 99.5385C151.668 99.5385 152.59 98.942 153.079 97.6941L153.133 97.4774L153.187 97.2601C153.187 97.0976 153.079 97.0433 152.916 97.0433H150.475C150.258 97.0433 150.15 96.989 150.095 96.9347C150.041 96.8266 149.987 96.7179 149.987 96.5006V94.0054C149.987 93.7343 150.15 93.5719 150.529 93.5719L157.852 93.6257C158.177 93.6257 158.395 93.68 158.557 93.843C158.72 94.0054 158.829 94.1684 158.829 94.4395V102.956C158.829 103.064 158.774 103.173 158.72 103.282C158.611 103.39 158.503 103.39 158.395 103.39H157.418C157.092 103.39 156.821 103.227 156.605 102.902L155.574 101.383C155.574 101.329 155.52 101.329 155.465 101.329C155.411 101.329 155.357 101.383 155.302 101.437C154.869 101.871 154.435 102.251 154.001 102.522C153.567 102.793 153.024 103.064 152.374 103.282C151.668 103.498 150.909 103.607 149.932 103.607C148.034 103.607 146.461 103.173 145.05 102.359Z" fill="url(#paint43_linear)"/>
<path d="M167.508 95.5791C167.399 95.5791 167.29 95.6334 167.182 95.6877C167.128 95.7421 167.073 95.8502 167.073 95.9588V102.577C167.073 102.848 167.019 103.065 166.857 103.173C166.694 103.282 166.477 103.336 166.205 103.336H161.866C161.595 103.336 161.432 103.282 161.324 103.173C161.215 103.065 161.161 102.902 161.161 102.685V84.5672C161.161 84.3504 161.215 84.2418 161.269 84.1337C161.378 84.025 161.486 83.9707 161.649 83.9707H166.585C166.748 83.9707 166.857 84.025 166.911 84.1337C167.019 84.2418 167.019 84.3504 167.019 84.5134V90.5887C167.019 90.9141 167.182 91.1309 167.508 91.1309H171.901C172.227 91.1309 172.389 90.9684 172.389 90.5887V84.5134C172.389 84.3504 172.444 84.188 172.498 84.1337C172.607 84.025 172.715 83.9707 172.823 83.9707H177.814C177.977 83.9707 178.085 84.025 178.193 84.1337C178.302 84.2418 178.302 84.4048 178.302 84.5672V102.685C178.302 102.902 178.248 103.065 178.139 103.173C178.031 103.282 177.868 103.336 177.597 103.336H173.257C172.986 103.336 172.769 103.282 172.607 103.173C172.444 103.065 172.389 102.848 172.389 102.577V95.9588C172.389 95.8502 172.335 95.7421 172.281 95.6877C172.227 95.6334 172.118 95.5791 171.955 95.5791H167.508Z" fill="url(#paint44_linear)"/>
<path d="M181.177 84.1337C181.285 84.025 181.394 83.9707 181.556 83.9707H186.493C186.818 83.9707 186.981 84.1337 186.981 84.5134V98.7251C186.981 98.8881 186.981 98.9424 187.035 98.9967C187.089 99.0505 187.144 99.0505 187.307 99.0505H195.172C195.552 99.0505 195.768 99.2135 195.768 99.5389V102.739C195.768 102.902 195.714 103.065 195.606 103.173C195.497 103.282 195.334 103.336 195.118 103.336H181.774C181.502 103.336 181.339 103.282 181.231 103.173C181.123 103.065 181.068 102.902 181.068 102.685V84.5672C181.068 84.3504 181.123 84.188 181.177 84.1337Z" fill="url(#paint45_linear)"/>
<path d="M212.747 84.2414C212.747 84.2958 212.693 84.4044 212.639 84.5131L206.509 94.3852C206.401 94.5481 206.292 94.7649 206.292 94.9822C206.292 95.199 206.238 95.5787 206.238 96.1214V102.522C206.238 102.793 206.183 103.011 206.021 103.119C205.858 103.227 205.641 103.282 205.37 103.282H200.976C200.705 103.282 200.542 103.227 200.434 103.119C200.326 103.011 200.271 102.848 200.271 102.631V95.7417C200.271 95.5244 200.271 95.3076 200.217 95.1446C200.163 94.9822 200.054 94.8192 199.946 94.6025L193.816 84.6212C193.762 84.5131 193.708 84.4044 193.708 84.2958C193.708 84.0247 193.924 83.916 194.304 83.916H199.566C199.783 83.916 200 83.9703 200.108 84.0247C200.217 84.079 200.326 84.2414 200.434 84.4587L203.635 90.2629C203.743 90.4254 203.797 90.534 203.851 90.534C203.96 90.534 204.014 90.4797 204.068 90.3172L207.215 84.5131C207.323 84.2958 207.431 84.1333 207.54 84.079C207.648 84.0247 207.865 83.9703 208.082 83.9703H212.205C212.585 83.9703 212.747 84.079 212.747 84.2414Z" fill="url(#paint46_linear)"/>
<path d="M134.255 128.234C134.255 128.397 134.201 128.505 134.093 128.614C133.984 128.722 133.876 128.776 133.713 128.776H128.668C128.289 128.776 128.071 128.614 127.963 128.234L125.522 121.508C125.468 121.345 125.359 121.291 125.251 121.182C125.142 121.128 124.925 121.074 124.708 121.074H123.515C123.406 121.074 123.352 121.128 123.298 121.182C123.244 121.236 123.243 121.291 123.243 121.345V128.017C123.243 128.288 123.19 128.505 123.027 128.614C122.864 128.722 122.647 128.776 122.376 128.776H117.982C117.711 128.776 117.548 128.722 117.44 128.614C117.331 128.505 117.277 128.343 117.277 128.125V110.008C117.277 109.628 117.44 109.411 117.765 109.411H126.499C129.048 109.411 131.001 109.9 132.357 110.876C133.713 111.852 134.472 113.208 134.472 114.944C134.472 116.137 134.147 117.222 133.496 118.145C132.845 119.066 132.031 119.772 131.001 120.151C130.892 120.206 130.838 120.314 130.838 120.423C130.838 120.477 130.838 120.531 130.892 120.64L134.201 127.963C134.255 128.017 134.255 128.125 134.255 128.234ZM127.8 116.68C128.18 116.355 128.343 115.866 128.343 115.324C128.343 114.673 128.126 114.185 127.692 113.805C127.258 113.425 126.715 113.262 126.119 113.262H123.841C123.623 113.262 123.461 113.317 123.352 113.371C123.243 113.425 123.243 113.588 123.243 113.751V116.626C123.243 116.842 123.298 116.951 123.352 117.06C123.406 117.168 123.515 117.168 123.732 117.168H126.336C126.932 117.222 127.421 117.06 127.8 116.68Z" fill="url(#paint47_linear)"/>
<path d="M135.991 128.668C135.883 128.56 135.883 128.451 135.883 128.289C135.883 128.18 135.883 128.017 135.937 127.855L142.284 110.062C142.392 109.846 142.446 109.683 142.555 109.574C142.663 109.466 142.826 109.466 143.043 109.466H148.196C148.413 109.466 148.576 109.52 148.739 109.683C148.901 109.791 149.01 110.008 149.118 110.171L155.411 127.963C155.465 128.126 155.465 128.18 155.465 128.289C155.465 128.451 155.411 128.56 155.357 128.668C155.302 128.777 155.194 128.831 155.031 128.831H149.932C149.66 128.831 149.444 128.668 149.335 128.397L148.304 125.414C148.25 125.305 148.196 125.196 148.142 125.142C148.088 125.088 148.033 125.088 147.87 125.088H142.338C142.121 125.088 142.012 125.196 141.958 125.359L140.873 128.451C140.765 128.722 140.548 128.831 140.222 128.831H136.262C136.208 128.831 136.1 128.777 135.991 128.668ZM146.623 120.586C146.84 120.586 146.894 120.477 146.894 120.315C146.894 120.26 146.894 120.206 146.84 120.043L145.267 115.595C145.213 115.487 145.158 115.487 145.104 115.487C145.05 115.487 144.995 115.541 144.942 115.595L143.368 120.043C143.314 120.097 143.314 120.206 143.314 120.315C143.314 120.531 143.423 120.586 143.639 120.586H146.623Z" fill="url(#paint48_linear)"/>
<path d="M153.675 110.008C153.675 109.845 153.729 109.682 153.838 109.574C153.946 109.465 154.109 109.411 154.326 109.411H169.949C170.165 109.411 170.328 109.465 170.437 109.574C170.545 109.682 170.6 109.845 170.6 110.008V113.1C170.6 113.425 170.382 113.588 170.002 113.588H165.392C165.175 113.588 165.066 113.696 165.066 113.859V128.18C165.066 128.396 165.012 128.505 164.958 128.614C164.85 128.722 164.741 128.776 164.578 128.776H159.642C159.317 128.776 159.154 128.614 159.154 128.234V113.967C159.154 113.751 159.045 113.588 158.882 113.588H154.272C153.892 113.588 153.675 113.425 153.675 113.1V110.008Z" fill="url(#paint49_linear)"/>
<path d="M173.203 109.411H187.307C187.632 109.411 187.795 109.574 187.795 109.953V112.991C187.795 113.48 187.578 113.696 187.089 113.696H179.279C178.899 113.696 178.681 113.859 178.681 114.185V116.409C178.681 116.571 178.736 116.734 178.79 116.788C178.899 116.897 179.007 116.951 179.116 116.951H183.835C184.215 116.951 184.378 117.114 184.378 117.494V120.748C184.378 121.02 184.215 121.182 183.889 121.182H179.061C178.953 121.182 178.844 121.236 178.736 121.291C178.681 121.345 178.628 121.454 178.628 121.562V124.166C178.628 124.329 178.628 124.382 178.681 124.437C178.736 124.491 178.79 124.491 178.953 124.491H187.469C187.849 124.491 188.066 124.654 188.066 124.979V128.18C188.066 128.343 188.012 128.505 187.903 128.614C187.795 128.722 187.632 128.776 187.415 128.776H173.42C173.149 128.776 172.986 128.722 172.877 128.614C172.769 128.505 172.715 128.343 172.715 128.125V110.008C172.715 109.628 172.877 109.411 173.203 109.411Z" fill="url(#paint50_linear)"/>
<path d="M194.033 109.412C196.094 109.412 197.396 109.412 197.884 109.412C201.302 109.52 203.851 110.442 205.587 112.178C207.323 113.914 208.191 116.192 208.191 119.013C208.191 120.911 207.811 122.593 206.997 124.057C206.238 125.522 205.044 126.661 203.472 127.475C201.898 128.289 200.054 128.723 197.776 128.723H190.887C190.615 128.723 190.453 128.669 190.29 128.56C190.181 128.451 190.127 128.235 190.127 127.964V110.008C190.127 109.791 190.181 109.574 190.29 109.52C190.399 109.412 190.561 109.357 190.833 109.357H194.033V109.412ZM196.203 113.588C196.148 113.643 196.148 113.751 196.148 113.86V124.275C196.148 124.437 196.148 124.546 196.203 124.6C196.257 124.655 196.365 124.655 196.474 124.655H196.637C198.372 124.655 199.674 124.22 200.542 123.298C201.41 122.376 201.898 120.966 201.898 118.905C201.898 117.168 201.573 115.867 200.868 114.999C200.163 114.131 199.186 113.643 197.884 113.534L196.311 113.426C196.311 113.534 196.257 113.534 196.203 113.588Z" fill="url(#paint51_linear)"/>
<path d="M141.578 75.238V68.2402H143.585V73.6647H146.297V75.238H141.578Z" fill="url(#paint52_linear)"/>
<path d="M149.444 75.3462C147.708 75.3462 146.569 74.1527 146.569 72.6337C146.569 70.898 147.762 69.7588 149.661 69.7588C151.397 69.7588 152.535 70.9523 152.535 72.4713C152.535 74.207 151.342 75.3462 149.444 75.3462ZM149.552 71.0067C148.901 71.0067 148.468 71.6575 148.468 72.5256C148.468 73.3932 148.901 74.0984 149.607 74.0984C150.258 74.0984 150.692 73.4475 150.692 72.5799C150.637 71.7118 150.258 71.0067 149.552 71.0067Z" fill="url(#paint53_linear)"/>
<path d="M158.394 75.2376C158.122 75.2919 157.743 75.3462 157.472 75.3462C156.821 75.3462 156.495 75.1295 156.332 74.6411H156.278C155.953 75.0208 155.302 75.3462 154.542 75.3462C153.62 75.3462 153.023 74.6954 153.023 73.9359C153.023 73.0135 153.729 72.0372 156.224 71.8748V71.5488C156.224 71.2234 155.953 70.9523 155.573 70.9523C154.976 70.9523 154.163 71.2234 153.512 71.6575L153.403 70.5183C154.217 70.0304 155.139 69.7588 156.17 69.7588C157.201 69.7588 158.014 70.2472 158.014 71.3321C158.014 71.5488 157.96 73.3389 157.96 73.5018C157.96 73.9359 158.122 74.0984 158.557 74.0984L158.394 75.2376ZM156.17 72.7967C154.976 72.9053 154.651 73.2851 154.651 73.6648C154.651 73.9902 154.922 74.207 155.356 74.207C155.682 74.207 156.007 74.0446 156.224 73.8816V72.7967H156.17Z" fill="url(#paint54_linear)"/>
<path d="M162.842 75.2372V72.1998C162.842 71.4947 162.517 71.1687 161.974 71.1687C161.703 71.1687 161.377 71.2774 161.161 71.386V75.2372H159.371V69.9214L161.161 69.7584L161.106 70.6266H161.161C161.54 70.1382 162.191 69.7041 162.951 69.7041C163.873 69.7041 164.686 70.3011 164.686 71.6571V75.1829H162.842V75.2372Z" fill="url(#paint55_linear)"/>
<path d="M167.941 75.346C167.019 75.346 166.151 75.1292 165.5 74.7495L165.772 73.2848C166.423 73.6646 167.291 73.8813 167.996 73.8813C168.484 73.8813 168.864 73.6102 168.864 73.2848C168.864 72.9051 168.538 72.6335 167.616 72.3081C166.531 71.9283 165.663 71.3861 165.663 70.2469C165.663 68.9453 166.911 68.0771 168.484 68.0771C169.298 68.0771 170.165 68.2939 170.763 68.5655L170.6 69.9758C169.949 69.7048 169.135 69.4875 168.484 69.4875C168.05 69.4875 167.725 69.7048 167.725 70.0302C167.725 70.4099 167.996 70.5723 168.972 70.8978C170.057 71.2775 170.925 71.8745 170.925 73.0132C170.979 74.4778 169.678 75.346 167.941 75.346Z" fill="url(#paint56_linear)"/>
<path d="M173.691 75.3459C172.66 75.3459 172.01 74.7494 172.01 73.7726C172.01 73.4472 172.01 72.2542 172.01 71.5485V71.0606H171.467V70.3555L173.637 68.5654H173.8V69.8671H175.481V71.0606H173.8C173.8 71.2231 173.8 72.5796 173.8 73.1218C173.8 73.7183 174.125 73.9355 174.613 73.9355C174.884 73.9355 175.21 73.8812 175.535 73.8269V75.0204C174.993 75.2372 174.396 75.3459 173.691 75.3459Z" fill="url(#paint57_linear)"/>
<path d="M179.983 71.7116C179.658 71.5486 179.333 71.4405 178.953 71.4405C178.627 71.4405 178.356 71.5486 178.193 71.7116V75.2916H176.403V69.9758L178.139 69.8672L178.085 71.0064H178.139C178.41 70.3013 179.007 69.8672 179.604 69.8672C179.82 69.8672 180.146 69.9215 180.309 70.0302L179.983 71.7116Z" fill="url(#paint58_linear)"/>
<path d="M185.788 72.8507H182.262C182.317 73.5558 182.913 74.0442 183.781 74.0442C184.432 74.0442 185.028 73.9355 185.679 73.7182L185.625 74.8575C184.866 75.1291 184.16 75.2915 183.238 75.2915C181.503 75.2915 180.472 74.261 180.472 72.6334C180.472 70.8976 181.611 69.7041 183.401 69.7041C185.137 69.7041 185.842 70.8433 185.842 71.9825C185.842 72.3079 185.842 72.6877 185.788 72.8507ZM183.293 70.789C182.696 70.789 182.37 71.3317 182.262 71.9282H184.215C184.215 71.3317 183.889 70.789 183.293 70.789Z" fill="url(#paint59_linear)"/>
<path d="M191.754 72.8507H188.229C188.283 73.5558 188.879 74.0442 189.747 74.0442C190.398 74.0442 190.995 73.9355 191.646 73.7182L191.592 74.8575C190.832 75.1291 190.127 75.2915 189.205 75.2915C187.469 75.2915 186.438 74.261 186.438 72.6334C186.438 70.8976 187.578 69.7041 189.368 69.7041C191.103 69.7041 191.809 70.8433 191.809 71.9825C191.809 72.3079 191.754 72.6877 191.754 72.8507ZM189.205 70.789C188.608 70.789 188.283 71.3317 188.174 71.9282H190.127C190.127 71.3317 189.802 70.789 189.205 70.789Z" fill="url(#paint60_linear)"/>
<path d="M194.521 75.3459C193.49 75.3459 192.839 74.7494 192.839 73.7726C192.839 73.4472 192.839 72.2542 192.839 71.5485V71.0606H192.297V70.3555L194.467 68.5654H194.629V69.8671H196.311V71.0606H194.629C194.629 71.2231 194.629 72.5796 194.629 73.1218C194.629 73.7183 194.955 73.9355 195.443 73.9355C195.714 73.9355 196.039 73.8812 196.365 73.8269V75.0204C195.823 75.2372 195.226 75.3459 194.521 75.3459Z" fill="url(#paint61_linear)"/>
<path d="M134.418 74.695H129.482C129.265 74.695 129.103 74.532 129.103 74.3152C129.103 74.0979 129.265 73.9355 129.482 73.9355H134.201L137.998 69.2162C138.107 69.0532 138.378 68.9989 138.541 69.1619C138.704 69.2705 138.758 69.5416 138.595 69.7041L134.635 74.5863C134.689 74.6407 134.527 74.695 134.418 74.695Z" fill="url(#paint62_linear)"/>
<path d="M134.961 76.1598H129.482C129.265 76.1598 129.103 75.9968 129.103 75.7801C129.103 75.5628 129.265 75.4004 129.482 75.4004H134.744L138.541 70.681C138.649 70.5181 138.92 70.4637 139.083 70.6267C139.246 70.7354 139.3 71.0065 139.138 71.1689L135.178 76.0512C135.232 76.1055 135.069 76.1598 134.961 76.1598Z" fill="url(#paint63_linear)"/>
<path d="M138.324 67.6975C138.269 67.5888 138.107 67.4807 137.998 67.4807L133.767 67.3721C133.659 67.3721 133.55 67.4264 133.442 67.5345L129.211 72.5254C129.102 72.6335 129.102 72.7965 129.156 72.959C129.211 73.0676 129.374 73.1763 129.536 73.1763H134.039C134.147 73.1763 134.255 73.1219 134.364 73.0133L138.324 68.1315C138.324 67.9686 138.378 67.8061 138.324 67.6975ZM135.232 69.7043C135.015 69.5962 134.689 69.4875 134.418 69.4332C134.255 69.3789 134.039 69.4332 133.984 69.5418C133.876 69.6505 133.984 69.7043 134.364 69.8673C134.798 70.0302 135.015 70.3013 134.798 70.5724C134.581 70.8978 134.039 71.0608 133.442 71.0608L133.17 71.4405L132.574 71.3319L132.845 71.0065C132.52 70.9521 132.249 70.8435 132.086 70.6811L132.52 70.3013C132.736 70.4638 133.062 70.5724 133.388 70.6267C133.605 70.6811 133.821 70.6267 133.876 70.5181C133.984 70.41 133.876 70.3013 133.496 70.1384C133.116 69.9759 132.791 69.7586 133.062 69.4332C133.279 69.1078 133.821 68.9454 134.418 68.9991L134.689 68.6194L135.286 68.728L135.015 69.1078C135.286 69.1621 135.503 69.2708 135.666 69.3251L135.232 69.7043Z" fill="url(#paint64_linear)"/>
<path d="M150.257 53.3222C150.257 50.3387 154 50.8269 154.163 49.6335C154.271 48.9284 153.837 48.7114 153.349 48.7114C152.807 48.7114 152.481 48.9284 152.481 49.959H150.257C150.257 48.169 151.017 46.9756 153.349 46.9756C155.736 46.9756 156.55 48.2232 156.441 49.6335C156.278 51.9661 152.481 51.9661 152.481 52.9425V53.1052H156.441V54.9493H150.257V53.3222Z" fill="url(#paint65_linear)"/>
<path d="M157.364 50.9902C157.364 48.8747 157.906 46.9219 160.781 46.9219C163.656 46.9219 164.199 48.8204 164.199 50.9902C164.199 53.1057 163.656 55.0585 160.781 55.0585C157.852 55.0585 157.364 53.16 157.364 50.9902ZM161.811 50.9902C161.811 49.7426 161.866 48.8204 160.781 48.8204C159.75 48.8204 159.75 49.7426 159.75 50.9902C159.75 52.2921 159.75 53.16 160.781 53.16C161.866 53.16 161.811 52.2921 161.811 50.9902Z" fill="url(#paint66_linear)"/>
<path d="M165.012 53.3222C165.012 50.3388 168.755 50.827 168.918 49.6336C169.026 48.9284 168.592 48.7115 168.104 48.7115C167.561 48.7115 167.236 48.9284 167.236 49.9591H165.012C165.012 48.169 165.771 46.9756 168.104 46.9756C170.491 46.9756 171.304 48.2232 171.196 49.6336C171.033 51.9661 167.236 51.9661 167.236 52.9425V53.1052H171.196V54.9494H164.958V53.3222H165.012Z" fill="url(#paint67_linear)"/>
<path d="M172.823 48.9283H171.467V47.5179L173.149 47.084H175.156V54.9493H172.823V48.9283Z" fill="url(#paint68_linear)"/>
<defs>
<linearGradient id="paint0_linear" x1="326.592" y1="165.774" x2="238.835" y2="165.774" gradientUnits="userSpaceOnUse">
<stop stop-color="#EEBD47"/>
<stop offset="0.1194" stop-color="#F8DA76"/>
<stop offset="0.2097" stop-color="#FFED95"/>
<stop offset="0.4462" stop-color="#A1621E"/>
<stop offset="0.6667" stop-color="#EEA54B"/>
<stop offset="1" stop-color="#EEBD47"/>
</linearGradient>
<linearGradient id="paint1_linear" x1="266.961" y1="135.781" x2="293.641" y2="135.781" gradientUnits="userSpaceOnUse">
<stop stop-color="#793911"/>
<stop offset="0.0270246" stop-color="#793E16"/>
<stop offset="0.2097" stop-color="#795A35"/>
<stop offset="0.4462" stop-color="#50180C"/>
<stop offset="0.6667" stop-color="#782A0F"/>
<stop offset="1" stop-color="#793911"/>
</linearGradient>
<linearGradient id="paint2_linear" x1="9.22287" y1="165.775" x2="92.6073" y2="165.775" gradientUnits="userSpaceOnUse">
<stop stop-color="#EEBD47"/>
<stop offset="0.1194" stop-color="#F8DA76"/>
<stop offset="0.2097" stop-color="#FFED95"/>
<stop offset="0.4462" stop-color="#A1621E"/>
<stop offset="0.6667" stop-color="#EEA54B"/>
<stop offset="1" stop-color="#EEBD47"/>
</linearGradient>
<linearGradient id="paint3_linear" x1="31.827" y1="135.781" x2="58.5059" y2="135.781" gradientUnits="userSpaceOnUse">
<stop stop-color="#793911"/>
<stop offset="0.0270246" stop-color="#793E16"/>
<stop offset="0.2097" stop-color="#795A35"/>
<stop offset="0.4462" stop-color="#50180C"/>
<stop offset="0.6667" stop-color="#782A0F"/>
<stop offset="1" stop-color="#793911"/>
</linearGradient>
<linearGradient id="paint4_linear" x1="26.4133" y1="114.759" x2="113.385" y2="114.759" gradientUnits="userSpaceOnUse">
<stop stop-color="#EEBD47"/>
<stop offset="0.1194" stop-color="#F8DA76"/>
<stop offset="0.2097" stop-color="#FFED95"/>
<stop offset="0.4462" stop-color="#A1621E"/>
<stop offset="0.6667" stop-color="#EEA54B"/>
<stop offset="1" stop-color="#EEBD47"/>
</linearGradient>
<linearGradient id="paint5_linear" x1="291.33" y1="116.412" x2="218.138" y2="116.412" gradientUnits="userSpaceOnUse">
<stop stop-color="#EEBD47"/>
<stop offset="0.1194" stop-color="#F8DA76"/>
<stop offset="0.2097" stop-color="#FFED95"/>
<stop offset="0.4462" stop-color="#A1621E"/>
<stop offset="0.6667" stop-color="#EEA54B"/>
<stop offset="1" stop-color="#EEBD47"/>
</linearGradient>
<linearGradient id="paint6_linear" x1="97.311" y1="34.2987" x2="237.501" y2="174.489" gradientUnits="userSpaceOnUse">
<stop stop-color="#EEBD47"/>
<stop offset="0.1194" stop-color="#F8DA76"/>
<stop offset="0.2097" stop-color="#FFED95"/>
<stop offset="0.4462" stop-color="#A1621E"/>
<stop offset="0.6667" stop-color="#EEA54B"/>
<stop offset="1" stop-color="#EEBD47"/>
</linearGradient>
<linearGradient id="paint7_linear" x1="110.654" y1="47.639" x2="226.949" y2="163.934" gradientUnits="userSpaceOnUse">
<stop stop-color="#EEBD47"/>
<stop offset="0.1194" stop-color="#F8DA76"/>
<stop offset="0.2097" stop-color="#FFED95"/>
<stop offset="0.4462" stop-color="#A1621E"/>
<stop offset="0.6667" stop-color="#EEA54B"/>
<stop offset="1" stop-color="#EEBD47"/>
</linearGradient>
<radialGradient id="paint8_radial" cx="0" cy="0" r="1" gradientUnits="userSpaceOnUse" gradientTransform="translate(44.402 3.29442) scale(162.14)">
<stop stop-color="#998573"/>
<stop offset="0.4892" stop-color="#4D3725"/>
<stop offset="1" stop-color="#0A0D13"/>
</radialGradient>
<linearGradient id="paint9_linear" x1="97.9352" y1="34.926" x2="232.705" y2="169.696" gradientUnits="userSpaceOnUse">
<stop stop-color="#EEBD47"/>
<stop offset="0.1194" stop-color="#F8DA76"/>
<stop offset="0.2097" stop-color="#FFED95"/>
<stop offset="0.4462" stop-color="#A1621E"/>
<stop offset="0.6667" stop-color="#EEA54B"/>
<stop offset="1" stop-color="#EEBD47"/>
</linearGradient>
<linearGradient id="paint10_linear" x1="109.193" y1="46.1773" x2="216.379" y2="153.364" gradientUnits="userSpaceOnUse">
<stop stop-color="#EEBD47"/>
<stop offset="0.1194" stop-color="#F8DA76"/>
<stop offset="0.2097" stop-color="#FFED95"/>
<stop offset="0.4462" stop-color="#A1621E"/>
<stop offset="0.6667" stop-color="#EEA54B"/>
<stop offset="1" stop-color="#EEBD47"/>
</linearGradient>
<radialGradient id="paint11_radial" cx="0" cy="0" r="1" gradientUnits="userSpaceOnUse" gradientTransform="translate(44.4008 3.29505) scale(162.141)">
<stop stop-color="#998573"/>
<stop offset="0.4892" stop-color="#4D3725"/>
<stop offset="1" stop-color="#0A0D13"/>
</radialGradient>
<linearGradient id="paint12_linear" x1="99.0616" y1="98.6064" x2="275.628" y2="207.622" gradientUnits="userSpaceOnUse">
<stop stop-color="#EEBD47"/>
<stop offset="0.1194" stop-color="#F8DA76"/>
<stop offset="0.2097" stop-color="#FFED95"/>
<stop offset="0.4462" stop-color="#A1621E"/>
<stop offset="0.6667" stop-color="#EEA54B"/>
<stop offset="1" stop-color="#EEBD47"/>
</linearGradient>
<linearGradient id="paint13_linear" x1="99.7682" y1="21.5139" x2="274.393" y2="129.332" gradientUnits="userSpaceOnUse">
<stop stop-color="#EEBD47"/>
<stop offset="0.1194" stop-color="#F8DA76"/>
<stop offset="0.2097" stop-color="#FFED95"/>
<stop offset="0.4462" stop-color="#A1621E"/>
<stop offset="0.6667" stop-color="#EEA54B"/>
<stop offset="1" stop-color="#EEBD47"/>
</linearGradient>
<radialGradient id="paint14_radial" cx="0" cy="0" r="1" gradientUnits="userSpaceOnUse" gradientTransform="translate(120.281 -3.64322) scale(158.855)">
<stop stop-color="#FFF0D0"/>
<stop offset="0.0537634" stop-color="#FCC74D"/>
<stop offset="0.1398" stop-color="#A1621E"/>
<stop offset="0.1614" stop-color="#965B1C"/>
<stop offset="0.2483" stop-color="#6E4315"/>
<stop offset="0.3412" stop-color="#4C2E0E"/>
<stop offset="0.4395" stop-color="#301D09"/>
<stop offset="0.5452" stop-color="#1B1005"/>
<stop offset="0.6618" stop-color="#0C0702"/>
<stop offset="0.7979" stop-color="#030201"/>
<stop offset="1"/>
</radialGradient>
<radialGradient id="paint15_radial" cx="0" cy="0" r="1" gradientUnits="userSpaceOnUse" gradientTransform="translate(160.442 -33.1007) scale(216.176)">
<stop stop-color="#FCC74D"/>
<stop offset="0.1398" stop-color="#A1621E"/>
<stop offset="0.1614" stop-color="#965B1C"/>
<stop offset="0.2483" stop-color="#6E4315"/>
<stop offset="0.3412" stop-color="#4C2E0E"/>
<stop offset="0.4395" stop-color="#301D09"/>
<stop offset="0.5452" stop-color="#1B1005"/>
<stop offset="0.6618" stop-color="#0C0702"/>
<stop offset="0.7979" stop-color="#030201"/>
<stop offset="1"/>
</radialGradient>
<linearGradient id="paint16_linear" x1="154.496" y1="28.8094" x2="221.407" y2="92.3996" gradientUnits="userSpaceOnUse">
<stop stop-color="#EEBD47"/>
<stop offset="0.1194" stop-color="#F8DA76"/>
<stop offset="0.2097" stop-color="#FFED95"/>
<stop offset="0.4462" stop-color="#A1621E"/>
<stop offset="0.6667" stop-color="#EEA54B"/>
<stop offset="1" stop-color="#EEBD47"/>
</linearGradient>
<linearGradient id="paint17_linear" x1="159.305" y1="23.7438" x2="226.232" y2="87.3489" gradientUnits="userSpaceOnUse">
<stop stop-color="#EEBD47"/>
<stop offset="0.1194" stop-color="#F8DA76"/>
<stop offset="0.2097" stop-color="#FFED95"/>
<stop offset="0.4462" stop-color="#A1621E"/>
<stop offset="0.6667" stop-color="#EEA54B"/>
<stop offset="1" stop-color="#EEBD47"/>
</linearGradient>
<linearGradient id="paint18_linear" x1="148.85" y1="34.7482" x2="215.765" y2="98.3417" gradientUnits="userSpaceOnUse">
<stop stop-color="#EEBD47"/>
<stop offset="0.1194" stop-color="#F8DA76"/>
<stop offset="0.2097" stop-color="#FFED95"/>
<stop offset="0.4462" stop-color="#A1621E"/>
<stop offset="0.6667" stop-color="#EEA54B"/>
<stop offset="1" stop-color="#EEBD47"/>
</linearGradient>
<linearGradient id="paint19_linear" x1="235.045" y1="250.031" x2="143.74" y2="138.436" gradientUnits="userSpaceOnUse">
<stop stop-color="#EEBD47"/>
<stop offset="0.1194" stop-color="#F8DA76"/>
<stop offset="0.2097" stop-color="#FFED95"/>
<stop offset="0.4462" stop-color="#A1621E"/>
<stop offset="0.6667" stop-color="#EEA54B"/>
<stop offset="1" stop-color="#EEBD47"/>
</linearGradient>
<linearGradient id="paint20_linear" x1="228.929" y1="255.026" x2="137.632" y2="143.441" gradientUnits="userSpaceOnUse">
<stop stop-color="#EEBD47"/>
<stop offset="0.1194" stop-color="#F8DA76"/>
<stop offset="0.2097" stop-color="#FFED95"/>
<stop offset="0.4462" stop-color="#A1621E"/>
<stop offset="0.6667" stop-color="#EEA54B"/>
<stop offset="1" stop-color="#EEBD47"/>
</linearGradient>
<linearGradient id="paint21_linear" x1="242.132" y1="244.232" x2="150.829" y2="132.638" gradientUnits="userSpaceOnUse">
<stop stop-color="#EEBD47"/>
<stop offset="0.1194" stop-color="#F8DA76"/>
<stop offset="0.2097" stop-color="#FFED95"/>
<stop offset="0.4462" stop-color="#A1621E"/>
<stop offset="0.6667" stop-color="#EEA54B"/>
<stop offset="1" stop-color="#EEBD47"/>
</linearGradient>
<linearGradient id="paint22_linear" x1="113.744" y1="148.171" x2="215.194" y2="153.57" gradientUnits="userSpaceOnUse">
<stop stop-color="#EEBD47"/>
<stop offset="0.1202" stop-color="#F8DA76"/>
<stop offset="0.2112" stop-color="#FFED95"/>
<stop offset="0.3346" stop-color="#F9D279"/>
<stop offset="0.5053" stop-color="#F1B158"/>
<stop offset="0.5986" stop-color="#EEA54B"/>
<stop offset="1" stop-color="#EEBD47"/>
</linearGradient>
<linearGradient id="paint23_linear" x1="113.755" y1="147.972" x2="215.205" y2="153.372" gradientUnits="userSpaceOnUse">
<stop stop-color="#EEBD47"/>
<stop offset="0.1202" stop-color="#F8DA76"/>
<stop offset="0.2112" stop-color="#FFED95"/>
<stop offset="0.3346" stop-color="#F9D279"/>
<stop offset="0.5053" stop-color="#F1B158"/>
<stop offset="0.5986" stop-color="#EEA54B"/>
<stop offset="1" stop-color="#EEBD47"/>
</linearGradient>
<linearGradient id="paint24_linear" x1="113.766" y1="147.763" x2="215.215" y2="153.162" gradientUnits="userSpaceOnUse">
<stop stop-color="#EEBD47"/>
<stop offset="0.1202" stop-color="#F8DA76"/>
<stop offset="0.2112" stop-color="#FFED95"/>
<stop offset="0.3346" stop-color="#F9D279"/>
<stop offset="0.5053" stop-color="#F1B158"/>
<stop offset="0.5986" stop-color="#EEA54B"/>
<stop offset="1" stop-color="#EEBD47"/>
</linearGradient>
<linearGradient id="paint25_linear" x1="113.78" y1="147.493" x2="215.23" y2="152.892" gradientUnits="userSpaceOnUse">
<stop stop-color="#EEBD47"/>
<stop offset="0.1202" stop-color="#F8DA76"/>
<stop offset="0.2112" stop-color="#FFED95"/>
<stop offset="0.3346" stop-color="#F9D279"/>
<stop offset="0.5053" stop-color="#F1B158"/>
<stop offset="0.5986" stop-color="#EEA54B"/>
<stop offset="1" stop-color="#EEBD47"/>
</linearGradient>
<linearGradient id="paint26_linear" x1="113.795" y1="147.221" x2="215.245" y2="152.62" gradientUnits="userSpaceOnUse">
<stop stop-color="#EEBD47"/>
<stop offset="0.1202" stop-color="#F8DA76"/>
<stop offset="0.2112" stop-color="#FFED95"/>
<stop offset="0.3346" stop-color="#F9D279"/>
<stop offset="0.5053" stop-color="#F1B158"/>
<stop offset="0.5986" stop-color="#EEA54B"/>
<stop offset="1" stop-color="#EEBD47"/>
</linearGradient>
<linearGradient id="paint27_linear" x1="113.81" y1="146.932" x2="215.26" y2="152.331" gradientUnits="userSpaceOnUse">
<stop stop-color="#EEBD47"/>
<stop offset="0.1202" stop-color="#F8DA76"/>
<stop offset="0.2112" stop-color="#FFED95"/>
<stop offset="0.3346" stop-color="#F9D279"/>
<stop offset="0.5053" stop-color="#F1B158"/>
<stop offset="0.5986" stop-color="#EEA54B"/>
<stop offset="1" stop-color="#EEBD47"/>
</linearGradient>
<linearGradient id="paint28_linear" x1="113.824" y1="146.674" x2="215.273" y2="152.074" gradientUnits="userSpaceOnUse">
<stop stop-color="#EEBD47"/>
<stop offset="0.1202" stop-color="#F8DA76"/>
<stop offset="0.2112" stop-color="#FFED95"/>
<stop offset="0.3346" stop-color="#F9D279"/>
<stop offset="0.5053" stop-color="#F1B158"/>
<stop offset="0.5986" stop-color="#EEA54B"/>
<stop offset="1" stop-color="#EEBD47"/>
</linearGradient>
<linearGradient id="paint29_linear" x1="113.834" y1="146.475" x2="215.284" y2="151.874" gradientUnits="userSpaceOnUse">
<stop stop-color="#EEBD47"/>
<stop offset="0.1202" stop-color="#F8DA76"/>
<stop offset="0.2112" stop-color="#FFED95"/>
<stop offset="0.3346" stop-color="#F9D279"/>
<stop offset="0.5053" stop-color="#F1B158"/>
<stop offset="0.5986" stop-color="#EEA54B"/>
<stop offset="1" stop-color="#EEBD47"/>
</linearGradient>
<linearGradient id="paint30_linear" x1="113.86" y1="145.987" x2="215.31" y2="151.386" gradientUnits="userSpaceOnUse">
<stop stop-color="#EEBD47"/>
<stop offset="0.1202" stop-color="#F8DA76"/>
<stop offset="0.2112" stop-color="#FFED95"/>
<stop offset="0.3346" stop-color="#F9D279"/>
<stop offset="0.5053" stop-color="#F1B158"/>
<stop offset="0.5986" stop-color="#EEA54B"/>
<stop offset="1" stop-color="#EEBD47"/>
</linearGradient>
<linearGradient id="paint31_linear" x1="113.879" y1="145.647" x2="215.328" y2="151.046" gradientUnits="userSpaceOnUse">
<stop stop-color="#EEBD47"/>
<stop offset="0.1202" stop-color="#F8DA76"/>
<stop offset="0.2112" stop-color="#FFED95"/>
<stop offset="0.3346" stop-color="#F9D279"/>
<stop offset="0.5053" stop-color="#F1B158"/>
<stop offset="0.5986" stop-color="#EEA54B"/>
<stop offset="1" stop-color="#EEBD47"/>
</linearGradient>
<linearGradient id="paint32_linear" x1="113.894" y1="145.342" x2="215.345" y2="150.741" gradientUnits="userSpaceOnUse">
<stop stop-color="#EEBD47"/>
<stop offset="0.1202" stop-color="#F8DA76"/>
<stop offset="0.2112" stop-color="#FFED95"/>
<stop offset="0.3346" stop-color="#F9D279"/>
<stop offset="0.5053" stop-color="#F1B158"/>
<stop offset="0.5986" stop-color="#EEA54B"/>
<stop offset="1" stop-color="#EEBD47"/>
</linearGradient>
<linearGradient id="paint33_linear" x1="113.909" y1="145.059" x2="215.359" y2="150.458" gradientUnits="userSpaceOnUse">
<stop stop-color="#EEBD47"/>
<stop offset="0.1202" stop-color="#F8DA76"/>
<stop offset="0.2112" stop-color="#FFED95"/>
<stop offset="0.3346" stop-color="#F9D279"/>
<stop offset="0.5053" stop-color="#F1B158"/>
<stop offset="0.5986" stop-color="#EEA54B"/>
<stop offset="1" stop-color="#EEBD47"/>
</linearGradient>
<linearGradient id="paint34_linear" x1="113.926" y1="144.754" x2="215.376" y2="150.153" gradientUnits="userSpaceOnUse">
<stop stop-color="#EEBD47"/>
<stop offset="0.1202" stop-color="#F8DA76"/>
<stop offset="0.2112" stop-color="#FFED95"/>
<stop offset="0.3346" stop-color="#F9D279"/>
<stop offset="0.5053" stop-color="#F1B158"/>
<stop offset="0.5986" stop-color="#EEA54B"/>
<stop offset="1" stop-color="#EEBD47"/>
</linearGradient>
<linearGradient id="paint35_linear" x1="113.934" y1="144.593" x2="215.384" y2="149.993" gradientUnits="userSpaceOnUse">
<stop stop-color="#EEBD47"/>
<stop offset="0.1202" stop-color="#F8DA76"/>
<stop offset="0.2112" stop-color="#FFED95"/>
<stop offset="0.3346" stop-color="#F9D279"/>
<stop offset="0.5053" stop-color="#F1B158"/>
<stop offset="0.5986" stop-color="#EEA54B"/>
<stop offset="1" stop-color="#EEBD47"/>
</linearGradient>
<linearGradient id="paint36_linear" x1="113.948" y1="144.334" x2="215.398" y2="149.733" gradientUnits="userSpaceOnUse">
<stop stop-color="#EEBD47"/>
<stop offset="0.1202" stop-color="#F8DA76"/>
<stop offset="0.2112" stop-color="#FFED95"/>
<stop offset="0.3346" stop-color="#F9D279"/>
<stop offset="0.5053" stop-color="#F1B158"/>
<stop offset="0.5986" stop-color="#EEA54B"/>
<stop offset="1" stop-color="#EEBD47"/>
</linearGradient>
<linearGradient id="paint37_linear" x1="113.963" y1="144.062" x2="215.413" y2="149.461" gradientUnits="userSpaceOnUse">
<stop stop-color="#EEBD47"/>
<stop offset="0.1202" stop-color="#F8DA76"/>
<stop offset="0.2112" stop-color="#FFED95"/>
<stop offset="0.3346" stop-color="#F9D279"/>
<stop offset="0.5053" stop-color="#F1B158"/>
<stop offset="0.5986" stop-color="#EEA54B"/>
<stop offset="1" stop-color="#EEBD47"/>
</linearGradient>
<linearGradient id="paint38_linear" x1="113.975" y1="143.823" x2="215.425" y2="149.222" gradientUnits="userSpaceOnUse">
<stop stop-color="#EEBD47"/>
<stop offset="0.1202" stop-color="#F8DA76"/>
<stop offset="0.2112" stop-color="#FFED95"/>
<stop offset="0.3346" stop-color="#F9D279"/>
<stop offset="0.5053" stop-color="#F1B158"/>
<stop offset="0.5986" stop-color="#EEA54B"/>
<stop offset="1" stop-color="#EEBD47"/>
</linearGradient>
<linearGradient id="paint39_linear" x1="113.993" y1="143.497" x2="215.443" y2="148.896" gradientUnits="userSpaceOnUse">
<stop stop-color="#EEBD47"/>
<stop offset="0.1202" stop-color="#F8DA76"/>
<stop offset="0.2112" stop-color="#FFED95"/>
<stop offset="0.3346" stop-color="#F9D279"/>
<stop offset="0.5053" stop-color="#F1B158"/>
<stop offset="0.5986" stop-color="#EEA54B"/>
<stop offset="1" stop-color="#EEBD47"/>
</linearGradient>
<linearGradient id="paint40_linear" x1="114.004" y1="143.298" x2="215.454" y2="148.697" gradientUnits="userSpaceOnUse">
<stop stop-color="#EEBD47"/>
<stop offset="0.1202" stop-color="#F8DA76"/>
<stop offset="0.2112" stop-color="#FFED95"/>
<stop offset="0.3346" stop-color="#F9D279"/>
<stop offset="0.5053" stop-color="#F1B158"/>
<stop offset="0.5986" stop-color="#EEA54B"/>
<stop offset="1" stop-color="#EEBD47"/>
</linearGradient>
<linearGradient id="paint41_linear" x1="113.907" y1="94.9434" x2="323.155" y2="58.0479" gradientUnits="userSpaceOnUse">
<stop stop-color="#EEBD47"/>
<stop offset="0.1194" stop-color="#F8DA76"/>
<stop offset="0.2097" stop-color="#FFED95"/>
<stop offset="0.4462" stop-color="#A1621E"/>
<stop offset="0.6667" stop-color="#EEA54B"/>
<stop offset="1" stop-color="#EEBD47"/>
</linearGradient>
<linearGradient id="paint42_linear" x1="104.752" y1="99.063" x2="375.741" y2="51.2805" gradientUnits="userSpaceOnUse">
<stop stop-color="#EEBD47"/>
<stop offset="0.1194" stop-color="#F8DA76"/>
<stop offset="0.2097" stop-color="#FFED95"/>
<stop offset="0.4462" stop-color="#A1621E"/>
<stop offset="0.6667" stop-color="#EEA54B"/>
<stop offset="1" stop-color="#EEBD47"/>
</linearGradient>
<linearGradient id="paint43_linear" x1="114.921" y1="100.371" x2="297.764" y2="68.1316" gradientUnits="userSpaceOnUse">
<stop stop-color="#EEBD47"/>
<stop offset="0.1194" stop-color="#F8DA76"/>
<stop offset="0.2097" stop-color="#FFED95"/>
<stop offset="0.4462" stop-color="#A1621E"/>
<stop offset="0.6667" stop-color="#EEA54B"/>
<stop offset="1" stop-color="#EEBD47"/>
</linearGradient>
<linearGradient id="paint44_linear" x1="106.687" y1="104.756" x2="315.934" y2="67.8603" gradientUnits="userSpaceOnUse">
<stop stop-color="#EEBD47"/>
<stop offset="0.1194" stop-color="#F8DA76"/>
<stop offset="0.2097" stop-color="#FFED95"/>
<stop offset="0.4462" stop-color="#A1621E"/>
<stop offset="0.6667" stop-color="#EEA54B"/>
<stop offset="1" stop-color="#EEBD47"/>
</linearGradient>
<linearGradient id="paint45_linear" x1="113.038" y1="106.929" x2="296.541" y2="74.5717" gradientUnits="userSpaceOnUse">
<stop stop-color="#EEBD47"/>
<stop offset="0.1194" stop-color="#F8DA76"/>
<stop offset="0.2097" stop-color="#FFED95"/>
<stop offset="0.4462" stop-color="#A1621E"/>
<stop offset="0.6667" stop-color="#EEA54B"/>
<stop offset="1" stop-color="#EEBD47"/>
</linearGradient>
<linearGradient id="paint46_linear" x1="118.883" y1="107.928" x2="295.743" y2="76.7423" gradientUnits="userSpaceOnUse">
<stop stop-color="#EEBD47"/>
<stop offset="0.1194" stop-color="#F8DA76"/>
<stop offset="0.2097" stop-color="#FFED95"/>
<stop offset="0.4462" stop-color="#A1621E"/>
<stop offset="0.6667" stop-color="#EEA54B"/>
<stop offset="1" stop-color="#EEBD47"/>
</linearGradient>
<linearGradient id="paint47_linear" x1="-0.137177" y1="141.313" x2="201.146" y2="105.821" gradientUnits="userSpaceOnUse">
<stop stop-color="#EEBD47"/>
<stop offset="0.1194" stop-color="#F8DA76"/>
<stop offset="0.2097" stop-color="#FFED95"/>
<stop offset="0.4462" stop-color="#A1621E"/>
<stop offset="0.6667" stop-color="#EEA54B"/>
<stop offset="1" stop-color="#EEBD47"/>
</linearGradient>
<linearGradient id="paint48_linear" x1="14.6131" y1="142.812" x2="191.473" y2="111.627" gradientUnits="userSpaceOnUse">
<stop stop-color="#EEBD47"/>
<stop offset="0.1194" stop-color="#F8DA76"/>
<stop offset="0.2097" stop-color="#FFED95"/>
<stop offset="0.4462" stop-color="#A1621E"/>
<stop offset="0.6667" stop-color="#EEA54B"/>
<stop offset="1" stop-color="#EEBD47"/>
</linearGradient>
<linearGradient id="paint49_linear" x1="13.0919" y1="144.922" x2="195.568" y2="112.747" gradientUnits="userSpaceOnUse">
<stop stop-color="#EEBD47"/>
<stop offset="0.1194" stop-color="#F8DA76"/>
<stop offset="0.2097" stop-color="#FFED95"/>
<stop offset="0.4462" stop-color="#A1621E"/>
<stop offset="0.6667" stop-color="#EEA54B"/>
<stop offset="1" stop-color="#EEBD47"/>
</linearGradient>
<linearGradient id="paint50_linear" x1="-14.7264" y1="153.504" x2="196.457" y2="116.267" gradientUnits="userSpaceOnUse">
<stop stop-color="#EEBD47"/>
<stop offset="0.1194" stop-color="#F8DA76"/>
<stop offset="0.2097" stop-color="#FFED95"/>
<stop offset="0.4462" stop-color="#A1621E"/>
<stop offset="0.6667" stop-color="#EEA54B"/>
<stop offset="1" stop-color="#EEBD47"/>
</linearGradient>
<linearGradient id="paint51_linear" x1="-0.83955" y1="153.65" x2="193.203" y2="119.435" gradientUnits="userSpaceOnUse">
<stop stop-color="#EEBD47"/>
<stop offset="0.1194" stop-color="#F8DA76"/>
<stop offset="0.2097" stop-color="#FFED95"/>
<stop offset="0.4462" stop-color="#A1621E"/>
<stop offset="0.6667" stop-color="#EEA54B"/>
<stop offset="1" stop-color="#EEBD47"/>
</linearGradient>
<linearGradient id="paint52_linear" x1="127.642" y1="71.2667" x2="374.682" y2="79.0891" gradientUnits="userSpaceOnUse">
<stop stop-color="#EEBD47"/>
<stop offset="0.1194" stop-color="#F8DA76"/>
<stop offset="0.2097" stop-color="#FFED95"/>
<stop offset="0.4462" stop-color="#A1621E"/>
<stop offset="0.6667" stop-color="#EEA54B"/>
<stop offset="1" stop-color="#EEBD47"/>
</linearGradient>
<linearGradient id="paint53_linear" x1="127.624" y1="71.8579" x2="374.665" y2="79.6803" gradientUnits="userSpaceOnUse">
<stop stop-color="#EEBD47"/>
<stop offset="0.1194" stop-color="#F8DA76"/>
<stop offset="0.2097" stop-color="#FFED95"/>
<stop offset="0.4462" stop-color="#A1621E"/>
<stop offset="0.6667" stop-color="#EEA54B"/>
<stop offset="1" stop-color="#EEBD47"/>
</linearGradient>
<linearGradient id="paint54_linear" x1="127.629" y1="71.6754" x2="374.67" y2="79.4978" gradientUnits="userSpaceOnUse">
<stop stop-color="#EEBD47"/>
<stop offset="0.1194" stop-color="#F8DA76"/>
<stop offset="0.2097" stop-color="#FFED95"/>
<stop offset="0.4462" stop-color="#A1621E"/>
<stop offset="0.6667" stop-color="#EEA54B"/>
<stop offset="1" stop-color="#EEBD47"/>
</linearGradient>
<linearGradient id="paint55_linear" x1="127.637" y1="71.4355" x2="374.678" y2="79.2579" gradientUnits="userSpaceOnUse">
<stop stop-color="#EEBD47"/>
<stop offset="0.1194" stop-color="#F8DA76"/>
<stop offset="0.2097" stop-color="#FFED95"/>
<stop offset="0.4462" stop-color="#A1621E"/>
<stop offset="0.6667" stop-color="#EEA54B"/>
<stop offset="1" stop-color="#EEBD47"/>
</linearGradient>
<linearGradient id="paint56_linear" x1="127.668" y1="70.461" x2="374.708" y2="78.2833" gradientUnits="userSpaceOnUse">
<stop stop-color="#EEBD47"/>
<stop offset="0.1194" stop-color="#F8DA76"/>
<stop offset="0.2097" stop-color="#FFED95"/>
<stop offset="0.4462" stop-color="#A1621E"/>
<stop offset="0.6667" stop-color="#EEA54B"/>
<stop offset="1" stop-color="#EEBD47"/>
</linearGradient>
<linearGradient id="paint57_linear" x1="127.667" y1="70.4929" x2="374.707" y2="78.3153" gradientUnits="userSpaceOnUse">
<stop stop-color="#EEBD47"/>
<stop offset="0.1194" stop-color="#F8DA76"/>
<stop offset="0.2097" stop-color="#FFED95"/>
<stop offset="0.4462" stop-color="#A1621E"/>
<stop offset="0.6667" stop-color="#EEA54B"/>
<stop offset="1" stop-color="#EEBD47"/>
</linearGradient>
<linearGradient id="paint58_linear" x1="127.654" y1="70.9043" x2="374.693" y2="78.7261" gradientUnits="userSpaceOnUse">
<stop stop-color="#EEBD47"/>
<stop offset="0.1194" stop-color="#F8DA76"/>
<stop offset="0.2097" stop-color="#FFED95"/>
<stop offset="0.4462" stop-color="#A1621E"/>
<stop offset="0.6667" stop-color="#EEA54B"/>
<stop offset="1" stop-color="#EEBD47"/>
</linearGradient>
<linearGradient id="paint59_linear" x1="127.657" y1="70.7901" x2="374.698" y2="78.6125" gradientUnits="userSpaceOnUse">
<stop stop-color="#EEBD47"/>
<stop offset="0.1194" stop-color="#F8DA76"/>
<stop offset="0.2097" stop-color="#FFED95"/>
<stop offset="0.4462" stop-color="#A1621E"/>
<stop offset="0.6667" stop-color="#EEA54B"/>
<stop offset="1" stop-color="#EEBD47"/>
</linearGradient>
<linearGradient id="paint60_linear" x1="127.663" y1="70.6021" x2="374.704" y2="78.4245" gradientUnits="userSpaceOnUse">
<stop stop-color="#EEBD47"/>
<stop offset="0.1194" stop-color="#F8DA76"/>
<stop offset="0.2097" stop-color="#FFED95"/>
<stop offset="0.4462" stop-color="#A1621E"/>
<stop offset="0.6667" stop-color="#EEA54B"/>
<stop offset="1" stop-color="#EEBD47"/>
</linearGradient>
<linearGradient id="paint61_linear" x1="127.687" y1="69.8339" x2="374.729" y2="77.6564" gradientUnits="userSpaceOnUse">
<stop stop-color="#EEBD47"/>
<stop offset="0.1194" stop-color="#F8DA76"/>
<stop offset="0.2097" stop-color="#FFED95"/>
<stop offset="0.4462" stop-color="#A1621E"/>
<stop offset="0.6667" stop-color="#EEA54B"/>
<stop offset="1" stop-color="#EEBD47"/>
</linearGradient>
<linearGradient id="paint62_linear" x1="127.63" y1="71.6614" x2="374.671" y2="79.4838" gradientUnits="userSpaceOnUse">
<stop stop-color="#EEBD47"/>
<stop offset="0.1194" stop-color="#F8DA76"/>
<stop offset="0.2097" stop-color="#FFED95"/>
<stop offset="0.4462" stop-color="#A1621E"/>
<stop offset="0.6667" stop-color="#EEA54B"/>
<stop offset="1" stop-color="#EEBD47"/>
</linearGradient>
<linearGradient id="paint63_linear" x1="127.585" y1="73.1018" x2="374.625" y2="80.9242" gradientUnits="userSpaceOnUse">
<stop stop-color="#EEBD47"/>
<stop offset="0.1194" stop-color="#F8DA76"/>
<stop offset="0.2097" stop-color="#FFED95"/>
<stop offset="0.4462" stop-color="#A1621E"/>
<stop offset="0.6667" stop-color="#EEA54B"/>
<stop offset="1" stop-color="#EEBD47"/>
</linearGradient>
<linearGradient id="paint64_linear" x1="127.68" y1="70.0954" x2="374.72" y2="77.9178" gradientUnits="userSpaceOnUse">
<stop stop-color="#EEBD47"/>
<stop offset="0.1194" stop-color="#F8DA76"/>
<stop offset="0.2097" stop-color="#FFED95"/>
<stop offset="0.4462" stop-color="#A1621E"/>
<stop offset="0.6667" stop-color="#EEA54B"/>
<stop offset="1" stop-color="#EEBD47"/>
</linearGradient>
<linearGradient id="paint65_linear" x1="150.175" y1="50.9347" x2="219.426" y2="50.9347" gradientUnits="userSpaceOnUse">
<stop stop-color="#EEBD47"/>
<stop offset="0.1194" stop-color="#F8DA76"/>
<stop offset="0.2097" stop-color="#FFED95"/>
<stop offset="0.4462" stop-color="#A1621E"/>
<stop offset="0.6667" stop-color="#EEA54B"/>
<stop offset="1" stop-color="#EEBD47"/>
</linearGradient>
<linearGradient id="paint66_linear" x1="150.175" y1="50.9966" x2="219.427" y2="50.9966" gradientUnits="userSpaceOnUse">
<stop stop-color="#EEBD47"/>
<stop offset="0.1194" stop-color="#F8DA76"/>
<stop offset="0.2097" stop-color="#FFED95"/>
<stop offset="0.4462" stop-color="#A1621E"/>
<stop offset="0.6667" stop-color="#EEA54B"/>
<stop offset="1" stop-color="#EEBD47"/>
</linearGradient>
<linearGradient id="paint67_linear" x1="150.175" y1="50.9348" x2="219.426" y2="50.9348" gradientUnits="userSpaceOnUse">
<stop stop-color="#EEBD47"/>
<stop offset="0.1194" stop-color="#F8DA76"/>
<stop offset="0.2097" stop-color="#FFED95"/>
<stop offset="0.4462" stop-color="#A1621E"/>
<stop offset="0.6667" stop-color="#EEA54B"/>
<stop offset="1" stop-color="#EEBD47"/>
</linearGradient>
<linearGradient id="paint68_linear" x1="150.175" y1="50.996" x2="219.426" y2="50.996" gradientUnits="userSpaceOnUse">
<stop stop-color="#EEBD47"/>
<stop offset="0.1194" stop-color="#F8DA76"/>
<stop offset="0.2097" stop-color="#FFED95"/>
<stop offset="0.4462" stop-color="#A1621E"/>
<stop offset="0.6667" stop-color="#EEA54B"/>
<stop offset="1" stop-color="#EEBD47"/>
</linearGradient>
</defs>
</svg>
