<svg width="29" height="22" viewBox="0 0 29 22" fill="none" xmlns="http://www.w3.org/2000/svg">
<path d="M22.5932 22C26.1319 22 29 19.1319 29 15.5932C29 12.0545 26.1319 9.18633 22.5932 9.18633C22.2493 9.18633 21.9204 9.23545 21.5916 9.28671C23.0587 6.69194 25.8115 4.91511 29 4.91511L29 0.643887C21.9333 0.643886 16.1863 6.39082 16.1863 13.4576L16.1863 15.5932C16.1863 19.1319 19.0545 22 22.5932 22Z" fill="#4285F4"/>
<path d="M7.40567 22C10.9444 22 13.8125 19.1319 13.8125 15.5932C13.8125 12.0545 10.9444 9.18633 7.40567 9.18633C7.06183 9.18633 6.73295 9.23545 6.40406 9.28671C7.87123 6.69194 10.624 4.91511 13.8125 4.91511L13.8125 0.643887C6.74576 0.643886 0.998832 6.39082 0.998832 13.4576L0.998831 15.5932C0.998831 19.1319 3.86696 22 7.40567 22Z" fill="#4285F4"/>
</svg>
