<svg width="20" height="21" viewBox="0 0 20 21" fill="none" xmlns="http://www.w3.org/2000/svg">
<path d="M4.39187 13.3954L0.580874 9.66299C0.227277 9.30939 0.0504763 8.97544 0.0111877 8.66113C-0.0281009 9.01473 0.1487 9.42726 0.580874 9.83979L4.35258 13.5526L4.39187 13.3954Z" fill="#C6650E"/>
<path d="M4.39187 13.3749L0.580874 9.64249C0.227277 9.28889 0.0504763 8.95493 0.0111877 8.64062C-0.0281009 8.99422 0.1487 9.40675 0.580874 9.81928L4.35258 13.5321L4.39187 13.3749Z" fill="#C7660E"/>
<path d="M4.39187 13.3554L0.580874 9.62295C0.227277 9.26936 0.0504763 8.9354 0.0111877 8.62109C-0.0281009 8.97469 0.1487 9.38722 0.580874 9.79975L4.35258 13.5125L4.39187 13.3554Z" fill="#C7670E"/>
<path d="M4.39187 13.3163L0.580874 9.58389C0.227277 9.23029 0.0504763 8.89634 0.0111877 8.58203C-0.0281009 8.93563 0.1487 9.34816 0.580874 9.76069L4.35258 13.4735L4.39187 13.3163Z" fill="#C8680E"/>
<path d="M4.39187 13.2968L0.580874 9.56436C0.227277 9.21076 0.0504763 8.87681 0.0111877 8.5625C-0.0281009 8.9161 0.1487 9.32863 0.580874 9.74116L4.35258 13.4539L4.39187 13.2968Z" fill="#C9690E"/>
<path d="M4.39187 13.2772L0.580874 9.54483C0.227277 9.19123 0.0504763 8.85728 0.0111877 8.54297C-0.0281009 8.89657 0.1487 9.3091 0.580874 9.72163L4.35258 13.4344L4.39187 13.2772Z" fill="#C96A0E"/>
<path d="M4.39187 13.2577L0.580874 9.5253C0.227277 9.1717 0.0504763 8.83775 0.0111877 8.52344C-0.0281009 8.87704 0.1487 9.28957 0.580874 9.7021L4.35258 13.4149L4.39187 13.2577Z" fill="#CA6B0D"/>
<path d="M4.39187 13.2177L0.580874 9.48526C0.227277 9.13166 0.0504763 8.79771 0.0111877 8.4834C-0.0281009 8.837 0.1487 9.24953 0.580874 9.66206L4.35258 13.3748L4.39187 13.2177Z" fill="#CB6C0D"/>
<path d="M4.39187 13.1981L0.580874 9.46573C0.227277 9.11213 0.0504763 8.77818 0.0111877 8.46387C-0.0281009 8.81746 0.1487 9.23 0.580874 9.64253L4.35258 13.3553L4.39187 13.1981Z" fill="#CC6D0D"/>
<path d="M4.39187 13.1786L0.580874 9.4462C0.227277 9.0926 0.0504763 8.75864 0.0111877 8.44434C-0.0281009 8.79793 0.1487 9.21046 0.580874 9.62299L4.35258 13.3358L4.39187 13.1786Z" fill="#CC6E0D"/>
<path d="M4.39187 13.1591L0.580874 9.42666C0.227277 9.07307 0.0504763 8.73911 0.0111877 8.4248C-0.0281009 8.7784 0.1487 9.19093 0.580874 9.60346L4.35258 13.3162L4.39187 13.1591Z" fill="#CD6F0D"/>
<path d="M4.39187 13.12L0.580874 9.3876C0.227277 9.034 0.0504763 8.70005 0.0111877 8.38574C-0.0281009 8.73934 0.1487 9.15187 0.580874 9.5644L4.35258 13.2772L4.39187 13.12Z" fill="#CE700D"/>
<path d="M4.39187 13.1005L0.580874 9.36807C0.227277 9.01447 0.0504763 8.68052 0.0111877 8.36621C-0.0281009 8.71981 0.1487 9.13234 0.580874 9.54487L4.35258 13.2576L4.39187 13.1005Z" fill="#CE710D"/>
<path d="M4.39187 13.081L0.580874 9.34854C0.227277 8.99494 0.0504763 8.66099 0.0111877 8.34668C-0.0281009 8.70028 0.1487 9.11281 0.580874 9.52534L4.35258 13.2381L4.39187 13.081Z" fill="#CF720D"/>
<path d="M4.39187 13.0614L0.580874 9.32901C0.227277 8.97541 0.0504763 8.64146 0.0111877 8.32715C-0.0281009 8.68075 0.1487 9.09328 0.580874 9.50581L4.35258 13.2186L4.39187 13.0614Z" fill="#D0730D"/>
<path d="M4.39187 13.0214L0.580874 9.28897C0.227277 8.93537 0.0504763 8.60142 0.0111877 8.28711C-0.0281009 8.64071 0.1487 9.05324 0.580874 9.46577L4.35258 13.1785L4.39187 13.0214Z" fill="#D0740D"/>
<path d="M4.39187 13.0019L0.580874 9.26944C0.227277 8.91584 0.0504763 8.58189 0.0111877 8.26758C-0.0281009 8.62118 0.1487 9.03371 0.580874 9.44624L4.35258 13.159L4.39187 13.0019Z" fill="#D1750D"/>
<path d="M4.39187 12.9823L0.580874 9.24991C0.227277 8.89631 0.0504763 8.56236 0.0111877 8.24805C-0.0281009 8.60164 0.1487 9.01417 0.580874 9.42671L4.35258 13.1395L4.39187 12.9823Z" fill="#D2760D"/>
<path d="M4.39187 12.9628L0.580874 9.23037C0.227277 8.87678 0.0504763 8.54282 0.0111877 8.22852C-0.0281009 8.58211 0.1487 8.99464 0.580874 9.40717L4.35258 13.1199L4.39187 12.9628Z" fill="#D3770C"/>
<path d="M4.39187 12.9237L0.580874 9.19131C0.227277 8.83771 0.0504763 8.50376 0.0111877 8.18945C-0.0281009 8.54305 0.1487 8.95558 0.580874 9.36811L4.35258 13.0809L4.39187 12.9237Z" fill="#D3780C"/>
<path d="M4.39187 12.9042L0.580874 9.17178C0.227277 8.81818 0.0504763 8.48423 0.0111877 8.16992C-0.0281009 8.52352 0.1487 8.93605 0.580874 9.34858L4.35258 13.0614L4.39187 12.9042Z" fill="#D4790C"/>
<path d="M4.39187 12.8847L0.580874 9.15225C0.227277 8.79865 0.0504763 8.4647 0.0111877 8.15039C-0.0281009 8.50399 0.1487 8.91652 0.580874 9.32905L4.35258 13.0418L4.39187 12.8847Z" fill="#D57A0C"/>
<path d="M4.39187 12.8642L0.580874 9.13174C0.227277 8.77814 0.0504763 8.44419 0.0111877 8.12988C-0.0281009 8.48348 0.1487 8.89601 0.580874 9.30854L4.35258 13.0213L4.39187 12.8642Z" fill="#D57B0C"/>
<path d="M4.39187 12.8251L0.580874 9.09268C0.227277 8.73908 0.0504763 8.40513 0.0111877 8.09082C-0.0281009 8.44442 0.1487 8.85695 0.580874 9.26948L4.35258 12.9823L4.39187 12.8251Z" fill="#D67C0C"/>
<path d="M4.39187 12.8056L0.580874 9.07315C0.227277 8.71955 0.0504763 8.3856 0.0111877 8.07129C-0.0281009 8.42489 0.1487 8.83742 0.580874 9.24995L4.35258 12.9627L4.39187 12.8056Z" fill="#D77C0C"/>
<path d="M4.39187 12.786L0.580874 9.05362C0.227277 8.70002 0.0504763 8.36607 0.0111877 8.05176C-0.0281009 8.40536 0.1487 8.81789 0.580874 9.23042L4.35258 12.9432L4.39187 12.786Z" fill="#D77D0C"/>
<path d="M4.39187 12.7665L0.580874 9.03409C0.227277 8.68049 0.0504763 8.34654 0.0111877 8.03223C-0.0281009 8.38582 0.1487 8.79835 0.580874 9.21088L4.35258 12.9237L4.39187 12.7665Z" fill="#D87E0C"/>
<path d="M4.39187 12.7274L0.580874 8.99502C0.227277 8.64143 0.0504763 8.30747 0.0111877 7.99316C-0.0281009 8.34676 0.1487 8.75929 0.580874 9.17182L4.35258 12.8846L4.39187 12.7274Z" fill="#D97F0C"/>
<path d="M4.39187 12.7079L0.580874 8.97549C0.227277 8.62189 0.0504763 8.28794 0.0111877 7.97363C-0.0281009 8.32723 0.1487 8.73976 0.580874 9.15229L4.35258 12.8651L4.39187 12.7079Z" fill="#D9800C"/>
<path d="M4.39187 12.6884L0.580874 8.95596C0.227277 8.60236 0.0504763 8.26841 0.0111877 7.9541C-0.0281009 8.3077 0.1487 8.72023 0.580874 9.13276L4.35258 12.8455L4.39187 12.6884Z" fill="#DA810B"/>
<path d="M4.39187 12.6679L0.580874 8.93545C0.227277 8.58186 0.0504763 8.2479 0.0111877 7.93359C-0.0281009 8.28719 0.1487 8.69972 0.580874 9.11225L4.35258 12.825L4.39187 12.6679Z" fill="#DB820B"/>
<path d="M4.39187 12.6288L0.580874 8.89639C0.227277 8.54279 0.0504763 8.20884 0.0111877 7.89453C-0.0281009 8.24813 0.1487 8.66066 0.580874 9.07319L4.35258 12.786L4.39187 12.6288Z" fill="#DC830B"/>
<path d="M4.39187 12.6093L0.580874 8.87686C0.227277 8.52326 0.0504763 8.18931 0.0111877 7.875C-0.0281009 8.2286 0.1487 8.64113 0.580874 9.05366L4.35258 12.7664L4.39187 12.6093Z" fill="#DC840B"/>
<path d="M4.39187 12.5897L0.580874 8.85733C0.227277 8.50373 0.0504763 8.16978 0.0111877 7.85547C-0.0281009 8.20907 0.1487 8.6216 0.580874 9.03413L4.35258 12.7469L4.39187 12.5897Z" fill="#DD850B"/>
<path d="M4.39187 12.5507L0.580874 8.81827C0.227277 8.46467 0.0504763 8.13072 0.0111877 7.81641C-0.0281009 8.17 0.1487 8.58253 0.580874 8.99506L4.35258 12.7078L4.39187 12.5507Z" fill="#DE860B"/>
<path d="M4.39187 12.5312L0.580874 8.79873C0.227277 8.44514 0.0504763 8.11118 0.0111877 7.79688C-0.0281009 8.15047 0.1487 8.563 0.580874 8.97553L4.35258 12.6883L4.39187 12.5312Z" fill="#DE870B"/>
<path d="M4.39187 12.5106L0.580874 8.77823C0.227277 8.42463 0.0504763 8.09068 0.0111877 7.77637C-0.0281009 8.12996 0.1487 8.5425 0.580874 8.95503L4.35258 12.6678L4.39187 12.5106Z" fill="#DF880B"/>
<path d="M4.39187 12.4911L0.580874 8.7587C0.227277 8.4051 0.0504763 8.07114 0.0111877 7.75684C-0.0281009 8.11043 0.1487 8.52296 0.580874 8.93549L4.35258 12.6483L4.39187 12.4911Z" fill="#E0890B"/>
<path d="M4.39187 12.4521L0.580874 8.71963C0.227277 8.36604 0.0504763 8.03208 0.0111877 7.71777C-0.0281009 8.07137 0.1487 8.4839 0.580874 8.89643L4.35258 12.6092L4.39187 12.4521Z" fill="#E08A0B"/>
<path d="M4.39187 12.4325L0.580874 8.7001C0.227277 8.3465 0.0504763 8.01255 0.0111877 7.69824C-0.0281009 8.05184 0.1487 8.46437 0.580874 8.8769L4.35258 12.5897L4.39187 12.4325Z" fill="#E18B0B"/>
<path d="M4.39187 12.413L0.580874 8.68057C0.227277 8.32697 0.0504763 7.99302 0.0111877 7.67871C-0.0281009 8.03231 0.1487 8.44484 0.580874 8.85737L4.35258 12.5701L4.39187 12.413Z" fill="#E28C0B"/>
<path d="M4.39187 12.3935L0.580874 8.66104C0.227277 8.30744 0.0504763 7.97349 0.0111877 7.65918C-0.0281009 8.01278 0.1487 8.42531 0.580874 8.83784L4.35258 12.5506L4.39187 12.3935Z" fill="#E38D0A"/>
<path d="M4.39187 12.3534L0.580874 8.621C0.227277 8.2674 0.0504763 7.93345 0.0111877 7.61914C-0.0281009 7.97274 0.1487 8.38527 0.580874 8.7978L4.35258 12.5106L4.39187 12.3534Z" fill="#E38E0A"/>
<path d="M4.39187 12.3349L0.580874 8.60245C0.227277 8.24885 0.0504763 7.91489 0.0111877 7.60059C-0.0281009 7.95418 0.1487 8.36671 0.580874 8.77924L4.35258 12.492L4.39187 12.3349Z" fill="#E48F0A"/>
<path d="M4.39187 12.3144L0.580874 8.58194C0.227277 8.22834 0.0504763 7.89439 0.0111877 7.58008C-0.0281009 7.93368 0.1487 8.34621 0.580874 8.75874L4.35258 12.4715L4.39187 12.3144Z" fill="#E5900A"/>
<path d="M4.39187 12.2948L0.580874 8.56241C0.227277 8.20881 0.0504763 7.87486 0.0111877 7.56055C-0.0281009 7.91414 0.1487 8.32667 0.580874 8.73921L4.35258 12.452L4.39187 12.2948Z" fill="#E5910A"/>
<path d="M4.39187 12.2558L0.580874 8.52334C0.227277 8.16975 0.0504763 7.83579 0.0111877 7.52148C-0.0281009 7.87508 0.1487 8.28761 0.580874 8.70014L4.35258 12.4129L4.39187 12.2558Z" fill="#E6920A"/>
<path d="M14.6659 19.7995L9.95124 17.3047L5.21696 19.7602C4.17581 20.3103 3.44897 19.9567 3.40968 18.9941C3.37039 20.0942 4.11688 20.5067 5.21696 19.937L9.95124 17.4815L14.6659 19.9763C15.766 20.5656 16.5321 20.1335 16.4928 19.0334C16.4535 20.0156 15.707 20.3496 14.6659 19.7995Z" fill="#C6650E"/>
<path d="M14.6659 19.78L9.95124 17.2852L5.21696 19.7407C4.17581 20.2907 3.44897 19.9371 3.40968 18.9746C3.37039 20.0746 4.11688 20.4872 5.21696 19.9175L9.95124 17.462L14.6659 19.9568C15.766 20.5461 16.5321 20.1139 16.4928 19.0139C16.4535 19.9961 15.707 20.33 14.6659 19.78Z" fill="#C7660E"/>
<path d="M14.6659 19.7595L9.95124 17.2646L5.21696 19.7202C4.17581 20.2702 3.44897 19.9166 3.40968 18.9541C3.37039 20.0541 4.11688 20.4667 5.21696 19.897L9.95124 17.4414L14.6659 19.9363C15.766 20.5256 16.5321 20.0934 16.4928 18.9933C16.4535 19.9756 15.707 20.3095 14.6659 19.7595Z" fill="#C7670E"/>
<path d="M14.6659 19.7399L9.95124 17.2451L5.21696 19.7007C4.17581 20.2507 3.44897 19.8971 3.40968 18.9345C3.37039 20.0346 4.11688 20.4471 5.21696 19.8775L9.97088 17.4219L14.6855 19.9167C15.7856 20.5061 16.5517 20.0739 16.5124 18.9738C16.4535 19.9364 15.707 20.29 14.6659 19.7399Z" fill="#C8680E"/>
<path d="M14.6659 19.7204L9.95124 17.2256L5.21696 19.6811C4.17581 20.2312 3.44897 19.8776 3.40968 18.915C3.37039 20.0151 4.11688 20.4276 5.21696 19.8579L9.95124 17.4024L14.6659 19.8972C15.766 20.4865 16.5321 20.0544 16.4928 18.9543C16.4535 19.9169 15.707 20.2705 14.6659 19.7204Z" fill="#C9690E"/>
<path d="M14.6659 19.7009L9.95124 17.2061L5.21696 19.6616C4.17581 20.2116 3.44897 19.858 3.40968 18.8955C3.37039 19.9955 4.11688 20.4081 5.21696 19.8384L9.95124 17.3829L14.6659 19.8777C15.766 20.467 16.5321 20.0348 16.4928 18.9348C16.4535 19.8973 15.707 20.2509 14.6659 19.7009Z" fill="#C96A0E"/>
<path d="M14.6659 19.6813L9.95124 17.1865L5.21696 19.6421C4.17581 20.1921 3.44897 19.8385 3.40968 18.8759C3.37039 19.976 4.11688 20.3885 5.21696 19.8189L9.95124 17.3633L14.6659 19.8581C15.766 20.4475 16.5321 20.0153 16.4928 18.9152C16.4535 19.8778 15.707 20.2314 14.6659 19.6813Z" fill="#CA6B0D"/>
<path d="M14.6659 19.6618L9.95124 17.167L5.21696 19.6225C4.17581 20.1726 3.44897 19.819 3.40968 18.8564C3.37039 19.9565 4.11688 20.369 5.21696 19.7993L9.95124 17.3438L14.6659 19.8386C15.766 20.4279 16.5321 19.9958 16.4928 18.8957C16.4535 19.8583 15.707 20.2119 14.6659 19.6618Z" fill="#CB6C0D"/>
<path d="M14.6659 19.6423L9.95124 17.1475L5.21696 19.603C4.17581 20.153 3.44897 19.7994 3.40968 18.8369C3.37039 19.937 4.11688 20.3495 5.21696 19.7798L9.95124 17.3243L14.6659 19.8191C15.766 20.4084 16.5321 19.9762 16.4928 18.8762C16.4535 19.8387 15.707 20.1923 14.6659 19.6423Z" fill="#CC6D0D"/>
<path d="M14.6658 19.6228L9.95112 17.1279L5.23649 19.5835C4.19534 20.1335 3.4685 19.7799 3.42921 18.8173C3.38993 19.9174 4.13641 20.33 5.23649 19.7603L9.97077 17.3047L14.6854 19.7996C15.7855 20.3889 16.5516 19.9567 16.5123 18.8566C16.4534 19.8192 15.7069 20.1728 14.6658 19.6228Z" fill="#CC6E0D"/>
<path d="M14.6659 19.6022L9.95124 17.1074L5.21696 19.563C4.17581 20.113 3.44897 19.7594 3.40968 18.7968C3.37039 19.8969 4.11688 20.3094 5.21696 19.7398L9.95124 17.2842L14.6659 19.779C15.766 20.3684 16.5321 19.9362 16.4928 18.8361C16.4535 19.7987 15.707 20.1523 14.6659 19.6022Z" fill="#CD6F0D"/>
<path d="M14.6659 19.5827L9.95124 17.0879L5.21696 19.5434C4.17581 20.0935 3.44897 19.7399 3.40968 18.7773C3.37039 19.8774 4.11688 20.2899 5.21696 19.7202L9.95124 17.2647L14.6659 19.7595C15.766 20.3488 16.5321 19.9167 16.4928 18.8166C16.4535 19.7792 15.707 20.1328 14.6659 19.5827Z" fill="#CE700D"/>
<path d="M14.6659 19.5632L9.95124 17.0684L5.21696 19.5239C4.17581 20.0739 3.44897 19.7203 3.40968 18.7578C3.37039 19.8579 4.11688 20.2704 5.21696 19.7007L9.95124 17.2452L14.6659 19.74C15.766 20.3293 16.5321 19.8971 16.4928 18.7971C16.4535 19.7596 15.707 20.1132 14.6659 19.5632Z" fill="#CE710D"/>
<path d="M14.6659 19.5437L9.95124 17.0488L5.21696 19.5044C4.17581 20.0544 3.44897 19.7008 3.40968 18.7382C3.37039 19.8383 4.11688 20.2509 5.21696 19.6812L9.97088 17.2256L14.6855 19.7205C15.7856 20.3098 16.5517 19.8776 16.5124 18.7775C16.4535 19.7401 15.707 20.0937 14.6659 19.5437Z" fill="#CF720D"/>
<path d="M14.6659 19.5046L9.95124 17.0098L5.21696 19.4653C4.17581 20.0153 3.44897 19.6617 3.40968 18.6992C3.37039 19.7993 4.11688 20.2118 5.21696 19.6421L9.95124 17.1866L14.6659 19.6814C15.766 20.2707 16.5321 19.8385 16.4928 18.7385C16.4535 19.7207 15.707 20.0743 14.6659 19.5046Z" fill="#D0730D"/>
<path d="M14.6659 19.4851L9.95124 16.9902L5.21696 19.4458C4.17581 19.9958 3.44897 19.6422 3.40968 18.6796C3.37039 19.7797 4.11688 20.1923 5.21696 19.6226L9.95124 17.167L14.6659 19.6619C15.766 20.2512 16.5321 19.819 16.4928 18.7189C16.4535 19.7011 15.707 20.0547 14.6659 19.4851Z" fill="#D0740D"/>
<path d="M14.6659 19.4655L9.95124 16.9707L5.21696 19.4262C4.17581 19.9566 3.44897 19.6227 3.40968 18.6601C3.37039 19.7602 4.11688 20.1727 5.21696 19.603L9.95124 17.1475L14.6659 19.6423C15.766 20.2317 16.5321 19.7995 16.4928 18.6994C16.4535 19.6816 15.707 20.0352 14.6659 19.4655Z" fill="#D1750D"/>
<path d="M14.6659 19.445L9.95124 16.9502L5.21696 19.4057C4.17581 19.9361 3.44897 19.6022 3.40968 18.6396C3.37039 19.7397 4.11688 20.1522 5.21696 19.5825L9.95124 17.127L14.6659 19.6218C15.766 20.2111 16.5321 19.779 16.4928 18.6789C16.4535 19.6611 15.707 19.9951 14.6659 19.445Z" fill="#D2760D"/>
<path d="M14.6658 19.4255L9.95112 16.9307L5.23649 19.3862C4.19534 19.9166 3.4685 19.5826 3.42921 18.6201C3.38993 19.7202 4.13641 20.1327 5.23649 19.563L9.97077 17.1075L14.6854 19.6023C15.7855 20.1916 16.5516 19.7594 16.5123 18.6594C16.4534 19.6416 15.7069 19.9755 14.6658 19.4255Z" fill="#D3770C"/>
<path d="M14.6659 19.406L9.95124 16.9111L5.21696 19.3667C4.17581 19.8971 3.44897 19.5631 3.40968 18.6005C3.37039 19.7006 4.11688 20.1132 5.21696 19.5435L9.95124 17.0879L14.6659 19.5828C15.766 20.1721 16.5321 19.7399 16.4928 18.6398C16.4535 19.622 15.707 19.956 14.6659 19.406Z" fill="#D3780C"/>
<path d="M14.6659 19.3864L9.95124 16.8916L5.21696 19.3471C4.17581 19.8775 3.44897 19.5436 3.40968 18.581C3.37039 19.6811 4.11688 20.0936 5.21696 19.5239L9.95124 17.0684L14.6659 19.5632C15.766 20.1526 16.5321 19.7204 16.4928 18.6203C16.4535 19.6025 15.707 19.9365 14.6659 19.3864Z" fill="#D4790C"/>
<path d="M14.6659 19.3669L9.95124 16.8721L5.21696 19.3276C4.17581 19.858 3.44897 19.5241 3.40968 18.5615C3.37039 19.6616 4.11688 20.0741 5.21696 19.5044L9.95124 17.0489L14.6659 19.5437C15.766 20.133 16.5321 19.7009 16.4928 18.6008C16.4535 19.583 15.707 19.9169 14.6659 19.3669Z" fill="#D57A0C"/>
<path d="M14.6659 19.3474L9.95124 16.8525L5.21696 19.3081C4.17581 19.8385 3.44897 19.5045 3.40968 18.5419C3.37039 19.642 4.11688 20.0546 5.21696 19.4849L9.97088 17.0293L14.6855 19.5242C15.7856 20.1135 16.5517 19.6813 16.5124 18.5812C16.4535 19.5635 15.707 19.8974 14.6659 19.3474Z" fill="#D57B0C"/>
<path d="M14.6659 19.3278L9.95124 16.833L5.21696 19.2885C4.17581 19.8189 3.44897 19.485 3.40968 18.5224C3.37039 19.6225 4.11688 20.035 5.21696 19.4653L9.95124 17.0098L14.6659 19.5046C15.766 20.094 16.5321 19.6618 16.4928 18.5617C16.4535 19.5439 15.707 19.8779 14.6659 19.3278Z" fill="#D67C0C"/>
<path d="M14.6659 19.3083L9.95124 16.8135L5.21696 19.269C4.17581 19.7994 3.44897 19.4655 3.40968 18.5029C3.37039 19.603 4.11688 20.0155 5.21696 19.4458L9.95124 16.9903L14.6659 19.4851C15.766 20.0744 16.5321 19.6423 16.4928 18.5422C16.4535 19.5244 15.707 19.8583 14.6659 19.3083Z" fill="#D77C0C"/>
<path d="M14.6659 19.2888L9.95124 16.7939L5.21696 19.2495C4.17581 19.7799 3.44897 19.4459 3.40968 18.4834C3.37039 19.5834 4.11688 19.996 5.21696 19.4263L9.95124 16.9707L14.6659 19.4656C15.766 20.0549 16.5321 19.6227 16.4928 18.5226C16.4535 19.4852 15.707 19.8388 14.6659 19.2888Z" fill="#D77D0C"/>
<path d="M14.6659 19.2692L9.95124 16.7744L5.21696 19.23C4.17581 19.7603 3.44897 19.4264 3.40968 18.4638C3.37039 19.5639 4.11688 19.9764 5.21696 19.4068L9.95124 16.9512L14.6659 19.446C15.766 20.0354 16.5321 19.6032 16.4928 18.5031C16.4535 19.4657 15.707 19.8193 14.6659 19.2692Z" fill="#D87E0C"/>
<path d="M14.6659 19.2487L9.95124 16.7539L5.21696 19.2094C4.17581 19.7398 3.44897 19.4059 3.40968 18.4433C3.37039 19.5434 4.11688 19.9559 5.21696 19.3862L9.95124 16.9307L14.6659 19.4255C15.766 20.0149 16.5321 19.5827 16.4928 18.4826C16.4535 19.4452 15.707 19.7988 14.6659 19.2487Z" fill="#D97F0C"/>
<path d="M14.6658 19.2292L9.95112 16.7344L5.23649 19.1899C4.19534 19.7203 3.4685 19.3864 3.42921 18.4238C3.38993 19.5239 4.13641 19.9364 5.23649 19.3667L9.97077 16.9112L14.6854 19.406C15.7855 19.9953 16.5516 19.5632 16.5123 18.4631C16.4534 19.4256 15.7069 19.7792 14.6658 19.2292Z" fill="#D9800C"/>
<path d="M14.6659 19.2097L9.95124 16.7148L5.21696 19.1704C4.17581 19.7008 3.44897 19.3668 3.40968 18.4043C3.37039 19.5043 4.11688 19.9169 5.21696 19.3472L9.95124 16.8916L14.6659 19.3865C15.766 19.9758 16.5321 19.5436 16.4928 18.4435C16.4535 19.4061 15.707 19.7597 14.6659 19.2097Z" fill="#DA810B"/>
<path d="M14.6659 19.1901L9.95124 16.6953L5.21696 19.1509C4.17581 19.6812 3.44897 19.3473 3.40968 18.3847C3.37039 19.4848 4.11688 19.8973 5.21696 19.3276L9.95124 16.8721L14.6659 19.3669C15.766 19.9563 16.5321 19.5241 16.4928 18.424C16.4535 19.3866 15.707 19.7402 14.6659 19.1901Z" fill="#DB820B"/>
<path d="M14.6659 19.1706L9.95124 16.6758L5.21696 19.1313C4.17581 19.6617 3.44897 19.3278 3.40968 18.3652C3.37039 19.4653 4.11688 19.8778 5.21696 19.3081L9.95124 16.8526L14.6659 19.3474C15.766 19.9367 16.5321 19.5046 16.4928 18.4045C16.4535 19.3671 15.707 19.7206 14.6659 19.1706Z" fill="#DC830B"/>
<path d="M14.6659 19.1511L9.95124 16.6562L5.21696 19.1118C4.17581 19.6422 3.44897 19.3082 3.40968 18.3457C3.37039 19.4457 4.11688 19.8583 5.21696 19.2886L9.97088 16.833L14.6855 19.3279C15.7856 19.9172 16.5517 19.485 16.5124 18.3849C16.4535 19.3475 15.707 19.7011 14.6659 19.1511Z" fill="#DC840B"/>
<path d="M14.6659 19.1315L9.95124 16.6367L5.21696 19.0923C4.17581 19.6227 3.44897 19.2887 3.40968 18.3261C3.37039 19.4262 4.11688 19.8387 5.21696 19.2691L9.95124 16.8135L14.6659 19.3083C15.766 19.8977 16.5321 19.4655 16.4928 18.3654C16.4535 19.328 15.707 19.6816 14.6659 19.1315Z" fill="#DD850B"/>
<path d="M14.6659 19.111L9.95124 16.6162L5.21696 19.0717C4.17581 19.6021 3.44897 19.2682 3.40968 18.3056C3.37039 19.4057 4.11688 19.8182 5.21696 19.2485L9.95124 16.793L14.6659 19.2878C15.766 19.8772 16.5321 19.445 16.4928 18.3449C16.4535 19.3075 15.707 19.6611 14.6659 19.111Z" fill="#DE860B"/>
<path d="M14.6659 19.0915L9.95124 16.5967L5.21696 19.0522C4.17581 19.5826 3.44897 19.2487 3.40968 18.2861C3.37039 19.3862 4.11688 19.7987 5.21696 19.229L9.95124 16.7735L14.6659 19.2683C15.766 19.8576 16.5321 19.4255 16.4928 18.3254C16.4535 19.2879 15.707 19.6415 14.6659 19.0915Z" fill="#DE870B"/>
<path d="M14.6659 19.0524L9.95124 16.5576L5.21696 19.0132C4.17581 19.5436 3.44897 19.2096 3.40968 18.247C3.37039 19.3471 4.11688 19.7596 5.21696 19.19L9.95124 16.7344L14.6659 19.2292C15.766 19.8186 16.5321 19.3864 16.4928 18.2863C16.4535 19.2685 15.707 19.6221 14.6659 19.0524Z" fill="#DF880B"/>
<path d="M14.6658 19.0329L9.95112 16.5381L5.23649 18.9936C4.19534 19.524 3.4685 19.1901 3.42921 18.2275C3.38993 19.3276 4.13641 19.7401 5.23649 19.1704L9.97077 16.7149L14.6854 19.2097C15.7855 19.799 16.5516 19.3669 16.5123 18.2668C16.4534 19.249 15.7069 19.6026 14.6658 19.0329Z" fill="#E0890B"/>
<path d="M14.6659 19.0134L9.95124 16.5186L5.21696 18.9741C4.17581 19.5045 3.44897 19.1705 3.40968 18.208C3.37039 19.308 4.11688 19.7206 5.21696 19.1509L9.95124 16.6954L14.6659 19.1902C15.766 19.7795 16.5321 19.3473 16.4928 18.2473C16.4535 19.2295 15.707 19.5831 14.6659 19.0134Z" fill="#E08A0B"/>
<path d="M14.6659 18.9938L9.95124 16.499L5.21696 18.9546C4.17581 19.485 3.44897 19.151 3.40968 18.1884C3.37039 19.2885 4.11688 19.701 5.21696 19.1314L9.95124 16.6758L14.6659 19.1706C15.766 19.76 16.5321 19.3278 16.4928 18.2277C16.4535 19.2099 15.707 19.5635 14.6659 18.9938Z" fill="#E18B0B"/>
<path d="M14.6659 18.9743L9.95124 16.4795L5.21696 18.935C4.17581 19.4654 3.44897 19.1315 3.40968 18.1689C3.37039 19.269 4.11688 19.6815 5.21696 19.1118L9.95124 16.6563L14.6659 19.1511C15.766 19.7404 16.5321 19.3083 16.4928 18.2082C16.4535 19.1904 15.707 19.5244 14.6659 18.9743Z" fill="#E28C0B"/>
<path d="M14.6659 18.9548L9.95124 16.46L5.21696 18.9155C4.17581 19.4459 3.44897 19.1119 3.40968 18.1494C3.37039 19.2495 4.11688 19.662 5.21696 19.0923L9.97088 16.6368L14.6855 19.1316C15.7856 19.7209 16.5517 19.2887 16.5124 18.1887C16.4535 19.1709 15.707 19.5048 14.6659 18.9548Z" fill="#E38D0A"/>
<path d="M14.6659 18.9353L9.95124 16.4404L5.21696 18.896C4.17581 19.4264 3.44897 19.0924 3.40968 18.1298C3.37039 19.2299 4.11688 19.6425 5.21696 19.0728L9.95124 16.6172L14.6659 19.1121C15.766 19.7014 16.5321 19.2692 16.4928 18.1691C16.4535 19.1513 15.707 19.4853 14.6659 18.9353Z" fill="#E38E0A"/>
<path d="M14.6659 18.9147L9.95124 16.4199L5.21696 18.8755C4.17581 19.4059 3.44897 19.0719 3.40968 18.1093C3.37039 19.2094 4.11688 19.6219 5.21696 19.0523L9.95124 16.5967L14.6659 19.0915C15.766 19.6809 16.5321 19.2487 16.4928 18.1486C16.4535 19.1308 15.707 19.4648 14.6659 18.9147Z" fill="#E48F0A"/>
<path d="M14.6659 18.8952L9.95124 16.4004L5.21696 18.8559C4.17581 19.3863 3.44897 19.0524 3.40968 18.0898C3.37039 19.1899 4.11688 19.6024 5.21696 19.0327L9.95124 16.5772L14.6659 19.072C15.766 19.6613 16.5321 19.2292 16.4928 18.1291C16.4535 19.1113 15.707 19.4453 14.6659 18.8952Z" fill="#E5900A"/>
<path d="M14.6659 18.8757L9.95124 16.3809L5.21696 18.8364C4.17581 19.3668 3.44897 19.0328 3.40968 18.0703C3.37039 19.1704 4.11688 19.5829 5.21696 19.0132L9.95124 16.5577L14.6659 19.0525C15.766 19.6418 16.5321 19.2096 16.4928 18.1096C16.4535 19.0918 15.707 19.4257 14.6659 18.8757Z" fill="#E5910A"/>
<path d="M14.6659 18.8562L9.95124 16.3613L5.21696 18.8169C4.17581 19.3473 3.44897 19.0133 3.40968 18.0507C3.37039 19.1508 4.11688 19.5634 5.21696 18.9937L9.95124 16.5381L14.6659 19.033C15.766 19.6223 16.5321 19.1901 16.4928 18.09C16.4535 19.0722 15.707 19.4062 14.6659 18.8562Z" fill="#E6920A"/>
<path d="M19.4205 9.74112L15.5898 13.4342L15.6095 13.5914L19.4205 9.91792C19.8527 9.50539 20.0491 9.09286 19.9902 8.73926C19.9705 9.05357 19.7741 9.38752 19.4205 9.74112Z" fill="#C6650E"/>
<path d="M19.4205 9.72061L15.5898 13.4137L15.6095 13.5709L19.4205 9.89741C19.8527 9.48488 20.0491 9.07235 19.9902 8.71875C19.9705 9.01341 19.7741 9.36701 19.4205 9.72061Z" fill="#C7660E"/>
<path d="M19.4205 9.68143L15.5898 13.3942L15.6095 13.5514L19.4205 9.87788C19.8527 9.46535 20.0491 9.05282 19.9902 8.69922C19.9705 8.99388 19.7741 9.34748 19.4205 9.68143Z" fill="#C7670E"/>
<path d="M19.4205 9.6619L15.5898 13.3747L15.6095 13.5318L19.4205 9.85835C19.8527 9.44582 20.0491 9.03329 19.9902 8.67969C19.9705 8.97435 19.7741 9.30831 19.4205 9.6619Z" fill="#C8680E"/>
<path d="M19.4205 9.64249L15.5898 13.3356L15.6095 13.4928L19.4205 9.81928C19.8527 9.40675 20.0491 8.99422 19.9902 8.64062C19.9705 8.95493 19.7741 9.28889 19.4205 9.64249Z" fill="#C9690E"/>
<path d="M19.4205 9.62295L15.5898 13.3161L15.6095 13.4732L19.4205 9.79975C19.8527 9.38722 20.0491 8.97469 19.9902 8.62109C19.9705 8.91576 19.7741 9.26936 19.4205 9.62295Z" fill="#C96A0E"/>
<path d="M19.4205 9.58378L15.5898 13.2966L15.6095 13.4537L19.4205 9.78022C19.8527 9.36769 20.0491 8.95516 19.9902 8.60156C19.9705 8.89623 19.7741 9.24982 19.4205 9.58378Z" fill="#CA6B0D"/>
<path d="M19.4205 9.56425L15.5898 13.277L15.6095 13.4342L19.4205 9.76069C19.8527 9.34816 20.0491 8.93563 19.9902 8.58203C19.9705 8.8767 19.7741 9.21065 19.4205 9.56425Z" fill="#CB6C0D"/>
<path d="M19.4205 9.54385L15.5898 13.237L15.6095 13.3941L19.4205 9.72065C19.8527 9.30812 20.0491 8.89559 19.9902 8.54199C19.9705 8.8563 19.7741 9.19025 19.4205 9.54385Z" fill="#CC6D0D"/>
<path d="M19.4205 9.52432L15.5898 13.2174L15.6095 13.3746L19.4205 9.70112C19.8527 9.28859 20.0491 8.87606 19.9902 8.52246C19.9705 8.81713 19.7741 9.17072 19.4205 9.52432Z" fill="#CC6E0D"/>
<path d="M19.4205 9.48515L15.5898 13.1979L15.6095 13.3551L19.4205 9.68159C19.8527 9.26906 20.0491 8.85653 19.9902 8.50293C19.9705 8.79759 19.7741 9.15119 19.4205 9.48515Z" fill="#CD6F0D"/>
<path d="M19.4205 9.46561L15.5898 13.1784L15.6095 13.3355L19.4205 9.66206C19.8527 9.24953 20.0491 8.837 19.9902 8.4834C19.9705 8.77806 19.7741 9.11202 19.4205 9.46561Z" fill="#CE700D"/>
<path d="M19.4205 9.4462L15.5898 13.1393L15.6095 13.2965L19.4205 9.62299C19.8527 9.21046 20.0491 8.79793 19.9902 8.44434C19.9705 8.75864 19.7741 9.0926 19.4205 9.4462Z" fill="#CE710D"/>
<path d="M19.4205 9.42666L15.5898 13.1198L15.6095 13.2769L19.4205 9.60346C19.8527 9.19093 20.0491 8.7784 19.9902 8.4248C19.9705 8.71947 19.7741 9.07307 19.4205 9.42666Z" fill="#CF720D"/>
<path d="M19.4205 9.38749L15.5898 13.1003L15.6095 13.2574L19.4205 9.58393C19.8527 9.1714 20.0491 8.75887 19.9902 8.40527C19.9705 8.69994 19.7741 9.05354 19.4205 9.38749Z" fill="#D0730D"/>
<path d="M19.4205 9.36796L15.5898 13.0807L15.6095 13.2379L19.4205 9.5644C19.8527 9.15187 20.0491 8.73934 19.9902 8.38574C19.9705 8.68041 19.7741 9.01436 19.4205 9.36796Z" fill="#D0740D"/>
<path d="M19.4205 9.34756L15.5898 13.0407L15.6095 13.1978L19.4205 9.52436C19.8527 9.11183 20.0491 8.6993 19.9902 8.3457C19.9705 8.66001 19.7741 8.99397 19.4205 9.34756Z" fill="#D1750D"/>
<path d="M19.4205 9.32803L15.5898 13.0212L15.6095 13.1783L19.4205 9.50483C19.8527 9.0923 20.0491 8.67977 19.9902 8.32617C19.9705 8.62084 19.7741 8.97443 19.4205 9.32803Z" fill="#D2760D"/>
<path d="M19.4205 9.28886L15.5898 13.0016L15.6095 13.1588L19.4205 9.4853C19.8527 9.07277 20.0491 8.66024 19.9902 8.30664C19.9705 8.60131 19.7741 8.9549 19.4205 9.28886Z" fill="#D3770C"/>
<path d="M19.4205 9.26932L15.5898 12.9821L15.6095 13.1393L19.4205 9.46577C19.8527 9.05324 20.0491 8.64071 19.9902 8.28711C19.9705 8.58177 19.7741 8.91573 19.4205 9.26932Z" fill="#D3780C"/>
<path d="M19.4205 9.24991L15.5898 12.943L15.6095 13.1002L19.4205 9.42671C19.8527 9.01417 20.0491 8.60164 19.9902 8.24805C19.9705 8.56236 19.7741 8.89631 19.4205 9.24991Z" fill="#D4790C"/>
<path d="M19.4205 9.23037L15.5898 12.9235L15.6095 13.0807L19.4205 9.40717C19.8527 8.99464 20.0491 8.58211 19.9902 8.22852C19.9705 8.52318 19.7741 8.87678 19.4205 9.23037Z" fill="#D57A0C"/>
<path d="M19.4205 9.19022L15.5898 12.903L15.6095 13.0602L19.4205 9.38667C19.8527 8.97414 20.0491 8.56161 19.9902 8.20801C19.9705 8.50267 19.7741 8.85627 19.4205 9.19022Z" fill="#D57B0C"/>
<path d="M19.4205 9.17069L15.5898 12.8835L15.6095 13.0406L19.4205 9.36713C19.8527 8.9546 20.0491 8.54207 19.9902 8.18848C19.9705 8.48314 19.7741 8.81709 19.4205 9.17069Z" fill="#D67C0C"/>
<path d="M19.4205 9.15127L15.5898 12.8444L15.6095 13.0016L19.4205 9.32807C19.8527 8.91554 20.0491 8.50301 19.9902 8.14941C19.9705 8.46372 19.7741 8.79768 19.4205 9.15127Z" fill="#D77C0C"/>
<path d="M19.4205 9.13174L15.5898 12.8249L15.6095 12.982L19.4205 9.30854C19.8527 8.89601 20.0491 8.48348 19.9902 8.12988C19.9705 8.42455 19.7741 8.77814 19.4205 9.13174Z" fill="#D77D0C"/>
<path d="M19.4205 9.09257L15.5898 12.8053L15.6095 12.9625L19.4205 9.28901C19.8527 8.87648 20.0491 8.46395 19.9902 8.11035C19.9705 8.40502 19.7741 8.75861 19.4205 9.09257Z" fill="#D87E0C"/>
<path d="M19.4205 9.07304L15.5898 12.7858L15.6095 12.943L19.4205 9.26948C19.8527 8.85695 20.0491 8.44442 19.9902 8.09082C19.9705 8.38548 19.7741 8.71944 19.4205 9.07304Z" fill="#D97F0C"/>
<path d="M19.4205 9.05264L15.5898 12.7458L15.6095 12.9029L19.4205 9.22944C19.8527 8.81691 20.0491 8.40438 19.9902 8.05078C19.9705 8.36509 19.7741 8.69904 19.4205 9.05264Z" fill="#D9800C"/>
<path d="M19.4205 9.03311L15.5898 12.7262L15.6095 12.8834L19.4205 9.20991C19.8527 8.79738 20.0491 8.38485 19.9902 8.03125C19.9705 8.32591 19.7741 8.67951 19.4205 9.03311Z" fill="#DA810B"/>
<path d="M19.4205 8.99393L15.5898 12.7067L15.6095 12.8639L19.4205 9.19038C19.8527 8.77785 20.0491 8.36532 19.9902 8.01172C19.9705 8.30638 19.7741 8.65998 19.4205 8.99393Z" fill="#DB820B"/>
<path d="M19.4205 8.9744L15.5898 12.6872L15.6095 12.8443L19.4205 9.17085C19.8527 8.75832 20.0491 8.34579 19.9902 7.99219C19.9705 8.28685 19.7741 8.62081 19.4205 8.9744Z" fill="#DC830B"/>
<path d="M19.4205 8.95499L15.5898 12.6481L15.6095 12.8053L19.4205 9.13178C19.8527 8.71925 20.0491 8.30672 19.9902 7.95312C19.9705 8.26743 19.7741 8.60139 19.4205 8.95499Z" fill="#DC840B"/>
<path d="M19.4205 8.93545L15.5898 12.6286L15.6095 12.7857L19.4205 9.11225C19.8527 8.69972 20.0491 8.28719 19.9902 7.93359C19.9705 8.22826 19.7741 8.58186 19.4205 8.93545Z" fill="#DD850B"/>
<path d="M19.4205 8.89628L15.5898 12.6091L15.6095 12.7662L19.4205 9.09272C19.8527 8.68019 20.0491 8.26766 19.9902 7.91406C19.9705 8.20873 19.7741 8.56232 19.4205 8.89628Z" fill="#DE860B"/>
<path d="M19.4205 8.87675L15.5898 12.5895L15.6095 12.7467L19.4205 9.07319C19.8527 8.66066 20.0491 8.24813 19.9902 7.89453C19.9705 8.1892 19.7741 8.52315 19.4205 8.87675Z" fill="#DE870B"/>
<path d="M19.4205 8.85635L15.5898 12.5495L15.6095 12.7066L19.4205 9.03315C19.8527 8.62062 20.0491 8.20809 19.9902 7.85449C19.9705 8.1688 19.7741 8.50275 19.4205 8.85635Z" fill="#DF880B"/>
<path d="M19.4205 8.83682L15.5898 12.5299L15.6095 12.6871L19.4205 9.01362C19.8527 8.60109 20.0491 8.18856 19.9902 7.83496C19.9705 8.12963 19.7741 8.48322 19.4205 8.83682Z" fill="#E0890B"/>
<path d="M19.4205 8.79765L15.5898 12.5104L15.6095 12.6676L19.4205 8.99409C19.8527 8.58156 20.0491 8.16903 19.9902 7.81543C19.9705 8.11009 19.7741 8.46369 19.4205 8.79765Z" fill="#E08A0B"/>
<path d="M19.4205 8.77811L15.5898 12.4909L15.6095 12.648L19.4205 8.97456C19.8527 8.56203 20.0491 8.1495 19.9902 7.7959C19.9705 8.09056 19.7741 8.42452 19.4205 8.77811Z" fill="#E18B0B"/>
<path d="M19.4205 8.7587L15.5898 12.4518L15.6095 12.609L19.4205 8.93549C19.8527 8.52296 20.0491 8.11043 19.9902 7.75684C19.9705 8.07114 19.7741 8.4051 19.4205 8.7587Z" fill="#E28C0B"/>
<path d="M19.4205 8.73916L15.5898 12.4323L15.6095 12.5894L19.4205 8.91596C19.8527 8.50343 20.0491 8.0909 19.9902 7.7373C19.9705 8.03197 19.7741 8.38557 19.4205 8.73916Z" fill="#E38D0A"/>
<path d="M19.4205 8.69999L15.5898 12.4128L15.6095 12.5699L19.4205 8.89643C19.8527 8.4839 20.0491 8.07137 19.9902 7.71777C19.9705 8.01244 19.7741 8.36604 19.4205 8.69999Z" fill="#E38E0A"/>
<path d="M19.4205 8.67948L15.5898 12.3923L15.6095 12.5494L19.4205 8.87592C19.8527 8.46339 20.0491 8.05086 19.9902 7.69727C19.9705 7.99193 19.7741 8.32588 19.4205 8.67948Z" fill="#E48F0A"/>
<path d="M19.4205 8.66006L15.5898 12.3532L15.6095 12.5103L19.4205 8.83686C19.8527 8.42433 20.0491 8.0118 19.9902 7.6582C19.9705 7.95287 19.7741 8.30647 19.4205 8.66006Z" fill="#E5900A"/>
<path d="M19.4205 8.64053L15.5898 12.3337L15.6095 12.4908L19.4205 8.81733C19.8527 8.4048 20.0491 7.99227 19.9902 7.63867C19.9705 7.93334 19.7741 8.28693 19.4205 8.64053Z" fill="#E5910A"/>
<path d="M19.4205 8.60136L15.5898 12.3141L15.6095 12.4713L19.4205 8.7978C19.8527 8.38527 20.0491 7.97274 19.9902 7.61914C19.9705 7.91381 19.7741 8.2674 19.4205 8.60136Z" fill="#E6920A"/>
<path d="M8.92944 0.920842C9.53841 -0.31675 10.5206 -0.297105 11.1296 0.920842L13.4673 5.71405L18.7319 6.49983C20.0874 6.69627 20.4017 7.63919 19.3999 8.60177L15.5889 12.3145L16.4729 17.5792C16.6889 18.9347 15.9032 19.5044 14.6852 18.8561L9.97058 16.3613L5.23631 18.8168C4.01836 19.4454 3.21295 18.8757 3.46832 17.5203L4.3916 12.2753L0.580609 8.54283C-0.401606 7.58026 -0.0872976 6.63734 1.26816 6.46054L6.55248 5.71405L8.92944 0.920842Z" fill="#FFD919"/>
<g style="mix-blend-mode:soft-light" opacity="0.4">
<path d="M9.73485 11.9407C13.7816 10.762 17.1604 8.79761 19.2623 6.65638C19.1052 6.59744 18.9284 6.55816 18.7319 6.51887C16.9836 6.26349 15.2156 5.98847 13.4673 5.73309C13.4083 5.61523 13.3494 5.51701 13.3101 5.39914C12.8583 4.47586 12.4065 3.55258 11.9547 2.62929C11.6796 2.05961 11.4046 1.50957 11.1296 0.939884C10.8349 0.330911 10.442 0.0166016 10.0492 0.0166016C9.65628 0.0166016 9.24375 0.311266 8.92944 0.939884C8.14367 2.53107 7.33825 4.12226 6.55248 5.71345C5.31489 5.89025 4.09694 6.06705 2.85935 6.24385C2.32895 6.32242 1.79856 6.401 1.26816 6.45993C-0.0872975 6.65638 -0.401606 7.57966 0.580609 8.54223C1.34674 9.28871 2.11286 10.0548 2.87899 10.8013C3.38974 11.2924 3.88085 11.7835 4.3916 12.2746C4.35231 12.4907 4.31302 12.7265 4.27374 12.9426C6.00243 12.805 7.849 12.4907 9.73485 11.9407Z" fill="white"/>
</g>
<g opacity="0.3">
<path opacity="0.3" d="M4.43094 12.039L0.580661 8.24761C0.246708 7.91366 0.0699072 7.59935 0.0109743 7.30469C-0.0479586 7.65829 0.128842 8.09046 0.580661 8.52263L4.39165 12.2551L4.43094 12.039Z" fill="white"/>
<path opacity="0.3" d="M14.666 18.5808L9.95138 16.0859L5.21711 18.5415C4.1956 19.0719 3.46876 18.7379 3.40983 17.8146C3.33125 18.9344 4.09738 19.3862 5.21711 18.8165L9.95138 16.361L14.666 18.8558C15.7857 19.4451 16.5519 18.9933 16.4929 17.8539C16.434 18.7969 15.7072 19.1308 14.666 18.5808Z" fill="white"/>
<path opacity="0.3" d="M19.3795 8.38531L15.5488 12.0981L15.5881 12.3338L19.3795 8.66033C19.8313 8.22816 20.0081 7.79598 19.9492 7.44238C19.8902 7.7174 19.7134 8.05136 19.3795 8.38531Z" fill="white"/>
</g>
</svg>
