<svg width="94" height="80" viewBox="0 0 94 80" fill="none" xmlns="http://www.w3.org/2000/svg">
<g style="mix-blend-mode:multiply" opacity="0.2">
<ellipse cx="46.7131" cy="69.9179" rx="46.7131" ry="10.082" fill="url(#paint0_radial)"/>
</g>
<g filter="url(#filter0_i)">
<path d="M57.893 16.2279C59.9411 16.2279 62.1469 15.9128 64.0375 15.2826L65.2979 14.81L72.2303 3.93882C72.5454 3.15105 71.7576 2.67841 71.6001 2.52085C71.2849 2.3633 70.8123 2.20575 70.1821 2.20575C69.7094 2.20575 69.2368 2.3633 68.7641 2.52085L67.3461 3.30862C66.8735 3.62372 66.2432 3.62372 65.9281 3.62372C65.613 3.62372 64.9828 3.62372 64.5102 3.30862L58.8383 0.315101C58.5232 0.157548 57.893 0 57.4203 0C56.9477 0 56.3174 0.157548 56.0023 0.315101L50.3304 3.30862C49.8578 3.62372 49.2276 3.62372 48.9125 3.62372C48.5974 3.62372 47.9671 3.62372 47.4945 3.30862L46.0765 2.52085C45.7614 2.3633 45.1312 2.20575 44.6585 2.20575C44.1859 2.20575 43.7132 2.3633 43.3981 2.52085C43.083 2.67841 42.7679 2.9935 42.6104 3.15105C42.4528 3.46616 42.4528 3.62371 42.6104 3.93882L49.7002 14.81L51.1182 15.1251C53.4815 15.9128 55.6872 16.2279 57.893 16.2279Z" fill="url(#paint1_linear)"/>
</g>
<path d="M65.2969 14.8115L64.0365 15.2842C62.1459 15.9144 59.9401 16.2295 57.892 16.2295C55.6862 16.2295 53.4805 15.9144 51.1172 15.1266L49.6992 14.8115" stroke="url(#paint2_linear)" stroke-width="5" stroke-miterlimit="10" stroke-linecap="round" stroke-linejoin="round"/>
<g filter="url(#filter1_i)">
<path d="M82.9444 46.7947C80.4235 35.766 75.3819 21.4287 66.5589 15.5993L66.136 15.335C65.6081 15.005 64.9566 14.9397 64.3737 15.1583L64.0381 15.2842C61.9899 15.9144 59.9417 16.2295 57.8935 16.2295C55.6878 16.2295 53.482 15.9144 51.2763 15.2842L50.7289 15.1625C50.1748 15.0394 49.5945 15.1575 49.1326 15.4874L48.7554 15.7568C44.0289 18.9079 40.09 24.5798 36.7814 32.4574L33.9434 40.3282C35.9915 41.2735 39.7749 43.0485 40.2476 44.1514C40.4052 44.6241 40.5627 45.0967 40.5627 45.5694V47.5825V49.0005V57.0356V58.4536V67.119L40.8778 67.2766C42.926 68.537 45.1317 69.3247 47.6526 69.6398C50.9612 70.1125 54.2698 70.4276 57.5784 70.4276C60.887 70.4276 64.3532 70.1125 67.6618 69.6398C72.861 68.8521 77.43 66.0161 80.266 61.6047C83.1019 57.1932 84.0472 51.8364 82.9444 46.7947Z" fill="url(#paint3_linear)"/>
</g>
<g filter="url(#filter2_d)">
<path d="M64.0378 51.5199C63.0165 52.5413 61.4546 53.2924 59.7277 53.6481C59.4883 53.6974 59.3112 53.9048 59.3112 54.1493V56.6918C59.3112 56.968 59.0874 57.1918 58.8112 57.1918H56.6602C56.384 57.1918 56.1602 56.968 56.1602 56.6918V54.1732C56.1602 53.9184 55.9685 53.7047 55.7154 53.6753C54.4756 53.5313 53.3485 53.3606 52.2214 52.9379C51.1206 52.5251 50.2601 51.9921 49.4301 51.444C49.2231 51.3072 49.149 51.0386 49.2553 50.8144L50.2262 48.7646C50.3616 48.4788 50.7249 48.3895 50.9851 48.5694C52.5448 49.6474 54.114 50.2971 55.7808 50.5184C56.0695 50.5568 56.3177 50.326 56.3177 50.0347V44.5161C56.3177 44.2817 56.1547 44.0797 55.9275 44.0225C54.7106 43.7167 53.7341 43.3085 52.8851 43.0233C52.8627 43.0158 52.8409 43.0068 52.8198 42.9961C51.8886 42.5253 51.1114 41.9004 50.4883 41.1215C49.8581 40.3337 49.543 39.2308 49.543 37.8129C49.543 36.71 49.8581 35.6071 50.3307 34.6618C50.9609 33.7165 51.7487 32.9287 52.694 32.2985C53.5299 31.7412 54.6123 31.4304 55.7231 31.2569C55.9722 31.218 56.1602 31.0064 56.1602 30.7543V28.2295C56.1602 27.9533 56.384 27.7295 56.6602 27.7295H58.8112C59.0874 27.7295 59.3112 27.9533 59.3112 28.2295V30.7543C59.3112 31.0064 59.4993 31.218 59.7483 31.2576C60.8303 31.4293 61.8038 31.7237 62.7774 32.141C63.7616 32.5628 64.4949 32.9846 65.2012 33.6303C65.3571 33.7729 65.3954 34.0015 65.3049 34.1925L64.3084 36.2963C64.1703 36.5879 63.7963 36.6736 63.5362 36.4826C62.2925 35.5692 61.0383 34.96 59.6965 34.7324C59.4067 34.6833 59.1537 34.9153 59.1537 35.2093V41.0355C59.1537 41.2698 59.3167 41.4719 59.544 41.529C60.7608 41.8348 61.7373 42.243 62.5863 42.5282C62.6087 42.5357 62.6306 42.5448 62.6517 42.5554C63.5829 43.0228 64.36 43.4954 64.9831 44.4301C65.6134 45.2178 65.9284 46.3207 65.9284 47.5811C65.7709 48.9991 65.2982 50.4171 64.0378 51.5199ZM54.241 39.2092C54.2598 39.2236 54.2778 39.2393 54.2948 39.2557C54.6533 39.6019 55.1834 39.8631 55.8208 40.1034C56.1402 40.2238 56.4753 39.9813 56.4753 39.64V34.9369C56.4753 34.628 56.1958 34.3903 55.9034 34.4903C55.2642 34.7091 54.7973 35.0793 54.4271 35.4496C53.9644 35.9123 53.6526 36.6771 53.6398 37.4482C53.6392 37.4812 53.6359 37.5142 53.6299 37.5466C53.4908 38.2934 53.6474 38.7535 54.241 39.2092ZM61.0443 49.4718C61.517 48.9991 61.6745 48.3689 61.6745 47.4236C61.6745 46.8091 61.5247 46.3444 61.0791 45.8834C61.0562 45.8598 61.0306 45.8389 61.0032 45.8205C60.6397 45.5763 60.184 45.2501 59.5684 45.0449C59.2753 44.9472 58.9961 45.184 58.9961 45.493V49.8809C58.9961 50.2222 59.3314 50.465 59.6475 50.3363C60.2462 50.0924 60.6896 49.8265 61.0443 49.4718Z" fill="url(#paint4_linear)"/>
</g>
<g filter="url(#filter3_ii)">
<path d="M28.2295 50.4094C21.8737 50.4094 16.6948 48.6985 15.6355 46.1322C15.4001 45.5211 15.4001 44.5435 15.6355 43.9325C16.6948 41.4884 21.8737 39.6553 28.2295 39.6553C34.4676 39.6553 39.6464 41.3662 40.8234 43.9325C41.0588 44.5435 41.0588 45.5211 40.8234 46.1322C39.6464 48.5763 34.4676 50.4094 28.2295 50.4094Z" fill="url(#paint5_linear)"/>
</g>
<g filter="url(#filter4_i)">
<path d="M41 44.6963C41 45.0682 40.8828 45.4402 40.7656 45.8121C39.7112 48.2919 34.5561 50.1516 28.2295 50.1516C21.9028 50.1516 16.7478 48.4158 15.6933 45.8121C15.5762 45.5642 15.459 45.0682 15.459 44.6963V53.1273C16.6306 55.607 21.7857 57.4668 28.2295 57.4668C34.5561 57.4668 39.8284 55.731 41 53.1273V44.6963Z" fill="url(#paint6_linear)"/>
</g>
<g filter="url(#filter5_i)">
<path d="M41 51.7539C41 52.1259 40.8828 52.4978 40.7656 52.8698C39.7112 55.3495 34.5561 57.2093 28.2295 57.2093C21.9028 57.2093 16.7478 55.4735 15.6933 52.8698C15.5762 52.6218 15.459 52.1259 15.459 51.7539V60.1849C16.6306 62.6646 21.7857 64.5244 28.2295 64.5244C34.5561 64.5244 39.8284 62.7886 41 60.1849V51.7539Z" fill="url(#paint7_linear)"/>
</g>
<g filter="url(#filter6_i)">
<path d="M41 58.4756C41 58.8475 40.8828 59.2195 40.7656 59.5915C39.7112 62.0712 34.5561 63.931 28.2295 63.931C21.9028 63.931 16.7478 62.1952 15.6933 59.5915C15.5762 59.3435 15.459 58.8475 15.459 58.4756V66.6822C15.459 66.83 15.4894 66.9768 15.5621 67.1053C16.9089 69.485 21.959 71.2461 28.2295 71.2461C34.3993 71.2461 39.5662 69.5953 40.9053 67.0987C40.9722 66.974 41 66.8334 41 66.692V58.4756Z" fill="url(#paint8_linear)"/>
</g>
<defs>
<filter id="filter0_i" x="40.4922" y="-3" width="31.8118" height="19.2279" filterUnits="userSpaceOnUse" color-interpolation-filters="sRGB">
<feFlood flood-opacity="0" result="BackgroundImageFix"/>
<feBlend mode="normal" in="SourceGraphic" in2="BackgroundImageFix" result="shape"/>
<feColorMatrix in="SourceAlpha" type="matrix" values="0 0 0 0 0 0 0 0 0 0 0 0 0 0 0 0 0 0 127 0" result="hardAlpha"/>
<feOffset dx="-2" dy="-3"/>
<feGaussianBlur stdDeviation="2.5"/>
<feComposite in2="hardAlpha" operator="arithmetic" k2="-1" k3="1"/>
<feColorMatrix type="matrix" values="0 0 0 0 0 0 0 0 0 0.231373 0 0 0 0 1 0 0 0 0.15 0"/>
<feBlend mode="normal" in2="shape" result="effect1_innerShadow"/>
</filter>
<filter id="filter1_i" x="31.9434" y="12.0312" width="51.4495" height="58.3967" filterUnits="userSpaceOnUse" color-interpolation-filters="sRGB">
<feFlood flood-opacity="0" result="BackgroundImageFix"/>
<feBlend mode="normal" in="SourceGraphic" in2="BackgroundImageFix" result="shape"/>
<feColorMatrix in="SourceAlpha" type="matrix" values="0 0 0 0 0 0 0 0 0 0 0 0 0 0 0 0 0 0 127 0" result="hardAlpha"/>
<feOffset dx="-2" dy="-3"/>
<feGaussianBlur stdDeviation="4"/>
<feComposite in2="hardAlpha" operator="arithmetic" k2="-1" k3="1"/>
<feColorMatrix type="matrix" values="0 0 0 0 0 0 0 0 0 0.231373 0 0 0 0 1 0 0 0 0.15 0"/>
<feBlend mode="normal" in2="shape" result="effect1_innerShadow"/>
</filter>
<filter id="filter2_d" x="42.207" y="21.7295" width="26.7214" height="39.4624" filterUnits="userSpaceOnUse" color-interpolation-filters="sRGB">
<feFlood flood-opacity="0" result="BackgroundImageFix"/>
<feColorMatrix in="SourceAlpha" type="matrix" values="0 0 0 0 0 0 0 0 0 0 0 0 0 0 0 0 0 0 127 0"/>
<feOffset dx="-2" dy="-1"/>
<feGaussianBlur stdDeviation="2.5"/>
<feColorMatrix type="matrix" values="0 0 0 0 0 0 0 0 0 0.231373 0 0 0 0 1 0 0 0 0.2 0"/>
<feBlend mode="normal" in2="BackgroundImageFix" result="effect1_dropShadow"/>
<feBlend mode="normal" in="SourceGraphic" in2="effect1_dropShadow" result="shape"/>
</filter>
<filter id="filter3_ii" x="13.459" y="36.6553" width="29.541" height="16.7541" filterUnits="userSpaceOnUse" color-interpolation-filters="sRGB">
<feFlood flood-opacity="0" result="BackgroundImageFix"/>
<feBlend mode="normal" in="SourceGraphic" in2="BackgroundImageFix" result="shape"/>
<feColorMatrix in="SourceAlpha" type="matrix" values="0 0 0 0 0 0 0 0 0 0 0 0 0 0 0 0 0 0 127 0" result="hardAlpha"/>
<feOffset dx="-2" dy="-3"/>
<feGaussianBlur stdDeviation="4"/>
<feComposite in2="hardAlpha" operator="arithmetic" k2="-1" k3="1"/>
<feColorMatrix type="matrix" values="0 0 0 0 0.776471 0 0 0 0 0.396078 0 0 0 0 0.054902 0 0 0 0.15 0"/>
<feBlend mode="normal" in2="shape" result="effect1_innerShadow"/>
<feColorMatrix in="SourceAlpha" type="matrix" values="0 0 0 0 0 0 0 0 0 0 0 0 0 0 0 0 0 0 127 0" result="hardAlpha"/>
<feOffset dx="2" dy="3"/>
<feGaussianBlur stdDeviation="1.5"/>
<feComposite in2="hardAlpha" operator="arithmetic" k2="-1" k3="1"/>
<feColorMatrix type="matrix" values="0 0 0 0 1 0 0 0 0 1 0 0 0 0 1 0 0 0 0.35 0"/>
<feBlend mode="normal" in2="effect1_innerShadow" result="effect2_innerShadow"/>
</filter>
<filter id="filter4_i" x="13.459" y="41.6963" width="27.541" height="15.7705" filterUnits="userSpaceOnUse" color-interpolation-filters="sRGB">
<feFlood flood-opacity="0" result="BackgroundImageFix"/>
<feBlend mode="normal" in="SourceGraphic" in2="BackgroundImageFix" result="shape"/>
<feColorMatrix in="SourceAlpha" type="matrix" values="0 0 0 0 0 0 0 0 0 0 0 0 0 0 0 0 0 0 127 0" result="hardAlpha"/>
<feOffset dx="-2" dy="-3"/>
<feGaussianBlur stdDeviation="4"/>
<feComposite in2="hardAlpha" operator="arithmetic" k2="-1" k3="1"/>
<feColorMatrix type="matrix" values="0 0 0 0 0.776471 0 0 0 0 0.396078 0 0 0 0 0.054902 0 0 0 0.15 0"/>
<feBlend mode="normal" in2="shape" result="effect1_innerShadow"/>
</filter>
<filter id="filter5_i" x="13.459" y="48.7539" width="27.541" height="15.7705" filterUnits="userSpaceOnUse" color-interpolation-filters="sRGB">
<feFlood flood-opacity="0" result="BackgroundImageFix"/>
<feBlend mode="normal" in="SourceGraphic" in2="BackgroundImageFix" result="shape"/>
<feColorMatrix in="SourceAlpha" type="matrix" values="0 0 0 0 0 0 0 0 0 0 0 0 0 0 0 0 0 0 127 0" result="hardAlpha"/>
<feOffset dx="-2" dy="-3"/>
<feGaussianBlur stdDeviation="4"/>
<feComposite in2="hardAlpha" operator="arithmetic" k2="-1" k3="1"/>
<feColorMatrix type="matrix" values="0 0 0 0 0.776471 0 0 0 0 0.396078 0 0 0 0 0.054902 0 0 0 0.15 0"/>
<feBlend mode="normal" in2="shape" result="effect1_innerShadow"/>
</filter>
<filter id="filter6_i" x="13.459" y="55.4756" width="27.541" height="15.7705" filterUnits="userSpaceOnUse" color-interpolation-filters="sRGB">
<feFlood flood-opacity="0" result="BackgroundImageFix"/>
<feBlend mode="normal" in="SourceGraphic" in2="BackgroundImageFix" result="shape"/>
<feColorMatrix in="SourceAlpha" type="matrix" values="0 0 0 0 0 0 0 0 0 0 0 0 0 0 0 0 0 0 127 0" result="hardAlpha"/>
<feOffset dx="-2" dy="-3"/>
<feGaussianBlur stdDeviation="4"/>
<feComposite in2="hardAlpha" operator="arithmetic" k2="-1" k3="1"/>
<feColorMatrix type="matrix" values="0 0 0 0 0.776471 0 0 0 0 0.396078 0 0 0 0 0.054902 0 0 0 0.15 0"/>
<feBlend mode="normal" in2="shape" result="effect1_innerShadow"/>
</filter>
<radialGradient id="paint0_radial" cx="0" cy="0" r="1" gradientUnits="userSpaceOnUse" gradientTransform="translate(46.7131 69.9179) rotate(90) scale(10.082 46.7131)">
<stop/>
<stop offset="1" stop-opacity="0"/>
</radialGradient>
<linearGradient id="paint1_linear" x1="57.3981" y1="0" x2="57.3981" y2="16.2279" gradientUnits="userSpaceOnUse">
<stop stop-color="#DCEDFF"/>
<stop offset="1" stop-color="#B6D8FF"/>
</linearGradient>
<linearGradient id="paint2_linear" x1="57.4981" y1="13.0775" x2="57.4981" y2="17.0163" gradientUnits="userSpaceOnUse">
<stop stop-color="#A8C7FF"/>
<stop offset="1" stop-color="#7695FF"/>
</linearGradient>
<linearGradient id="paint3_linear" x1="58.6681" y1="14.8115" x2="58.6681" y2="70.4276" gradientUnits="userSpaceOnUse">
<stop stop-color="#DCEDFF"/>
<stop offset="1" stop-color="#B6D8FF"/>
</linearGradient>
<linearGradient id="paint4_linear" x1="57.4994" y1="27.7295" x2="57.4994" y2="57.1918" gradientUnits="userSpaceOnUse">
<stop stop-color="#4F92F8"/>
<stop offset="1" stop-color="#2E76E3"/>
</linearGradient>
<linearGradient id="paint5_linear" x1="28.2295" y1="39.6553" x2="28.2295" y2="50.4094" gradientUnits="userSpaceOnUse">
<stop stop-color="#FFE323"/>
<stop offset="1" stop-color="#FFD919"/>
</linearGradient>
<linearGradient id="paint6_linear" x1="28.2295" y1="44.6963" x2="28.2295" y2="57.4668" gradientUnits="userSpaceOnUse">
<stop stop-color="#FFE323"/>
<stop offset="1" stop-color="#FFD919"/>
</linearGradient>
<linearGradient id="paint7_linear" x1="28.2295" y1="51.7539" x2="28.2295" y2="64.5244" gradientUnits="userSpaceOnUse">
<stop stop-color="#FFE323"/>
<stop offset="1" stop-color="#FFD919"/>
</linearGradient>
<linearGradient id="paint8_linear" x1="28.2295" y1="58.4756" x2="28.2295" y2="71.2461" gradientUnits="userSpaceOnUse">
<stop stop-color="#FFE323"/>
<stop offset="1" stop-color="#FFD919"/>
</linearGradient>
</defs>
</svg>
